STARTFONT 2.1
FONT -FontForge-Bungee Shade-Book-R-Normal--11-110-72-72-P-93-ISO10646-1
SIZE 11 72 72
FONTBOUNDINGBOX 28 31 -7 -11
COMMENT "Generated by fontforge, http://fontforge.sourceforge.net"
COMMENT "Copyright 2008 The Bungee Project Authors (david@djr.com)"
STARTPROPERTIES 39
FOUNDRY "FontForge"
FAMILY_NAME "Bungee Shade"
WEIGHT_NAME "Book"
SLANT "R"
SETWIDTH_NAME "Normal"
ADD_STYLE_NAME ""
PIXEL_SIZE 11
POINT_SIZE 110
RESOLUTION_X 72
RESOLUTION_Y 72
SPACING "P"
AVERAGE_WIDTH 93
CHARSET_REGISTRY "ISO10646"
CHARSET_ENCODING "1"
FONTNAME_REGISTRY ""
CHARSET_COLLECTIONS "ISO8859-2 ISO8859-9 ISO8859-4 ISO10646-1"
FONT_NAME "BungeeShade-Regular"
FACE_NAME "Bungee Shade"
COPYRIGHT "Copyright 2008 The Bungee Project Authors (david@djr.com)"
FONT_VERSION "1.000;PS 1.0;hotconv 1.0.72;makeotf.lib2.5.5900"
FONT_ASCENT 9
FONT_DESCENT 2
UNDERLINE_POSITION 0
UNDERLINE_THICKNESS 0
X_HEIGHT 8
CAP_HEIGHT 8
RAW_ASCENT 860
RAW_DESCENT 140
NORM_SPACE 4
RELATIVE_WEIGHT 40
RELATIVE_SETWIDTH 50
SUPERSCRIPT_X 0
SUPERSCRIPT_Y 3
SUPERSCRIPT_SIZE 6
SUBSCRIPT_X 0
SUBSCRIPT_Y 0
SUBSCRIPT_SIZE 6
AVG_LOWERCASE_WIDTH 88
AVG_UPPERCASE_WIDTH 90
ENDPROPERTIES
CHARS 1065
STARTCHAR space
ENCODING 32
SWIDTH 325 0
DWIDTH 4 0
BBX 1 1 0 0
BITMAP
00
ENDCHAR
STARTCHAR exclam
ENCODING 33
SWIDTH 524 0
DWIDTH 6 0
BBX 4 10 1 -1
BITMAP
F0
B0
B0
B0
90
90
F0
B0
90
E0
ENDCHAR
STARTCHAR quotedbl
ENCODING 34
SWIDTH 746 0
DWIDTH 8 0
BBX 8 6 0 3
BITMAP
7F
DB
DB
C9
C9
FE
ENDCHAR
STARTCHAR numbersign
ENCODING 35
SWIDTH 850 0
DWIDTH 9 0
BBX 9 10 0 -1
BITMAP
1F80
2D80
5F80
7580
7680
5F80
D280
DF00
5F00
6C00
ENDCHAR
STARTCHAR dollar
ENCODING 36
SWIDTH 750 0
DWIDTH 8 0
BBX 8 13 0 -2
BITMAP
0C
12
29
4F
DE
D1
CD
FB
43
DD
CA
F2
3C
ENDCHAR
STARTCHAR percent
ENCODING 37
SWIDTH 1131 0
DWIDTH 12 0
BBX 12 10 0 -1
BITMAP
3F80
7B80
FA80
ED60
D7B0
FF70
0D70
0930
0F90
0DE0
ENDCHAR
STARTCHAR ampersand
ENCODING 38
SWIDTH 866 0
DWIDTH 10 0
BBX 10 10 0 -1
BITMAP
3F00
4D00
5600
7580
5B40
EF40
E180
DE80
E100
7E00
ENDCHAR
STARTCHAR quotesingle
ENCODING 39
SWIDTH 456 0
DWIDTH 5 0
BBX 5 6 0 3
BITMAP
78
D8
D8
C8
C8
F0
ENDCHAR
STARTCHAR parenleft
ENCODING 40
SWIDTH 529 0
DWIDTH 6 0
BBX 6 13 0 -2
BITMAP
18
24
5C
D8
D0
D0
D0
D0
D0
D8
CC
E4
78
ENDCHAR
STARTCHAR parenright
ENCODING 41
SWIDTH 529 0
DWIDTH 6 0
BBX 6 13 0 -2
BITMAP
38
44
D4
EC
6C
6C
6C
6C
6C
4C
D4
C8
F0
ENDCHAR
STARTCHAR asterisk
ENCODING 42
SWIDTH 818 0
DWIDTH 9 0
BBX 9 9 0 0
BITMAP
1E00
3500
4680
5E80
FD00
2B00
2500
7E00
2800
ENDCHAR
STARTCHAR plus
ENCODING 43
SWIDTH 834 0
DWIDTH 9 0
BBX 9 9 0 0
BITMAP
0C00
1200
1400
3700
5F80
C480
F700
1200
1C00
ENDCHAR
STARTCHAR comma
ENCODING 44
SWIDTH 484 0
DWIDTH 5 0
BBX 5 7 0 -3
BITMAP
38
48
D8
E8
D8
F0
40
ENDCHAR
STARTCHAR hyphen
ENCODING 45
SWIDTH 520 0
DWIDTH 6 0
BBX 6 4 0 2
BITMAP
38
54
C4
F8
ENDCHAR
STARTCHAR period
ENCODING 46
SWIDTH 484 0
DWIDTH 5 0
BBX 5 5 0 -1
BITMAP
38
58
C8
C8
F0
ENDCHAR
STARTCHAR slash
ENCODING 47
SWIDTH 487 0
DWIDTH 5 0
BBX 5 13 0 -2
BITMAP
18
28
78
78
58
58
58
58
50
D0
E8
D0
E0
ENDCHAR
STARTCHAR zero
ENCODING 48
SWIDTH 827 0
DWIDTH 9 0
BBX 9 10 0 -1
BITMAP
3F00
5180
5D80
DD80
DD80
DD80
D180
CE80
7300
3C00
ENDCHAR
STARTCHAR one
ENCODING 49
SWIDTH 701 0
DWIDTH 8 0
BBX 8 10 0 -1
BITMAP
7E
5A
CA
EA
2A
2A
2A
5D
C1
FE
ENDCHAR
STARTCHAR two
ENCODING 50
SWIDTH 739 0
DWIDTH 8 0
BBX 8 10 0 -1
BITMAP
7F
5D
7B
23
5D
E2
EF
DF
C1
FE
ENDCHAR
STARTCHAR three
ENCODING 51
SWIDTH 737 0
DWIDTH 8 0
BBX 8 10 0 -1
BITMAP
7E
D9
FD
26
6D
7B
43
DD
C2
FC
ENDCHAR
STARTCHAR four
ENCODING 52
SWIDTH 809 0
DWIDTH 9 0
BBX 8 10 0 -1
BITMAP
7F
5D
DD
DD
D1
CF
E1
7D
0D
0E
ENDCHAR
STARTCHAR five
ENCODING 53
SWIDTH 747 0
DWIDTH 8 0
BBX 8 10 0 -1
BITMAP
7F
5F
DE
D1
DD
FB
43
5D
C2
FC
ENDCHAR
STARTCHAR six
ENCODING 54
SWIDTH 793 0
DWIDTH 9 0
BBX 8 10 0 -1
BITMAP
3F
51
5E
DF
D1
DD
D5
CF
72
7C
ENDCHAR
STARTCHAR seven
ENCODING 55
SWIDTH 727 0
DWIDTH 8 0
BBX 8 10 0 -1
BITMAP
7F
DD
FB
13
25
5A
54
44
68
70
ENDCHAR
STARTCHAR eight
ENCODING 56
SWIDTH 811 0
DWIDTH 9 0
BBX 9 10 0 -1
BITMAP
3F00
5280
5E80
6F00
5180
DD80
D580
CE80
F300
7C00
ENDCHAR
STARTCHAR nine
ENCODING 57
SWIDTH 793 0
DWIDTH 9 0
BBX 8 10 0 -1
BITMAP
3F
53
DF
DF
CF
FF
63
6D
62
7C
ENDCHAR
STARTCHAR colon
ENCODING 58
SWIDTH 484 0
DWIDTH 5 0
BBX 5 10 0 -1
BITMAP
38
48
D8
C8
C8
F8
58
C8
C8
F0
ENDCHAR
STARTCHAR semicolon
ENCODING 59
SWIDTH 484 0
DWIDTH 5 0
BBX 5 11 0 -3
BITMAP
38
48
D8
C8
F8
48
D8
E8
D8
F0
40
ENDCHAR
STARTCHAR less
ENCODING 60
SWIDTH 814 0
DWIDTH 9 0
BBX 7 9 1 -1
BITMAP
16
6E
B2
BC
A4
DE
F2
7E
04
ENDCHAR
STARTCHAR equal
ENCODING 61
SWIDTH 834 0
DWIDTH 9 0
BBX 9 8 0 0
BITMAP
3F00
4080
DF80
FF00
2080
5F80
C080
FF00
ENDCHAR
STARTCHAR greater
ENCODING 62
SWIDTH 814 0
DWIDTH 9 0
BBX 7 8 1 0
BITMAP
60
BC
86
F2
7A
BE
8C
F0
ENDCHAR
STARTCHAR question
ENCODING 63
SWIDTH 756 0
DWIDTH 8 0
BBX 8 10 0 -1
BITMAP
7F
DD
FB
23
6D
7E
64
6C
64
78
ENDCHAR
STARTCHAR at
ENCODING 64
SWIDTH 967 0
DWIDTH 11 0
BBX 10 13 0 -2
BITMAP
1F80
2040
5FC0
6FC0
F7C0
F7C0
FFC0
FBC0
F7C0
FF80
E700
7F80
3F00
ENDCHAR
STARTCHAR A
ENCODING 65
SWIDTH 830 0
DWIDTH 9 0
BBX 9 10 0 -1
BITMAP
1F00
2D00
3680
5D80
5180
DF80
D180
DD80
DC80
E700
ENDCHAR
STARTCHAR B
ENCODING 66
SWIDTH 825 0
DWIDTH 9 0
BBX 9 10 0 -1
BITMAP
7F00
5C80
DE80
D300
DE80
DD80
D180
DE80
C100
7E00
ENDCHAR
STARTCHAR C
ENCODING 67
SWIDTH 728 0
DWIDTH 8 0
BBX 8 10 0 -1
BITMAP
3F
4F
5E
D8
D8
D8
D7
CF
71
7E
ENDCHAR
STARTCHAR D
ENCODING 68
SWIDTH 846 0
DWIDTH 9 0
BBX 9 10 0 -1
BITMAP
7F00
5E80
D180
D580
D580
D580
D580
DE80
C100
7E00
ENDCHAR
STARTCHAR E
ENCODING 69
SWIDTH 754 0
DWIDTH 8 0
BBX 8 10 0 -1
BITMAP
7F
5F
DE
D1
DD
DE
DF
DF
C1
7E
ENDCHAR
STARTCHAR F
ENCODING 70
SWIDTH 718 0
DWIDTH 8 0
BBX 8 10 0 -1
BITMAP
7F
5F
D6
D2
DE
D2
D4
D8
C8
70
ENDCHAR
STARTCHAR G
ENCODING 71
SWIDTH 808 0
DWIDTH 9 0
BBX 9 10 0 -1
BITMAP
3F00
4F00
5E00
DB00
DC80
DD80
D180
CE80
7180
7E00
ENDCHAR
STARTCHAR H
ENCODING 72
SWIDTH 859 0
DWIDTH 9 0
BBX 9 10 0 -1
BITMAP
7B80
5580
D580
D180
DF80
D180
D580
D580
CC80
7700
ENDCHAR
STARTCHAR I
ENCODING 73
SWIDTH 705 0
DWIDTH 8 0
BBX 7 10 0 -1
BITMAP
7E
DE
EA
EA
2C
2C
2A
5E
C2
FC
ENDCHAR
STARTCHAR J
ENCODING 74
SWIDTH 788 0
DWIDTH 9 0
BBX 8 10 0 -1
BITMAP
07
0F
0F
3F
4F
EF
D3
CD
F2
7C
ENDCHAR
STARTCHAR K
ENCODING 75
SWIDTH 846 0
DWIDTH 9 0
BBX 9 10 0 -1
BITMAP
7F80
5680
DB00
D280
DE80
D180
D580
D580
CC80
7700
ENDCHAR
STARTCHAR L
ENCODING 76
SWIDTH 795 0
DWIDTH 9 0
BBX 9 10 0 -1
BITMAP
7800
5800
D800
DB00
D480
D580
D180
DE80
C180
7E00
ENDCHAR
STARTCHAR M
ENCODING 77
SWIDTH 949 0
DWIDTH 10 0
BBX 10 10 0 -1
BITMAP
7BC0
56C0
D9C0
D7C0
D9C0
DEC0
DAC0
CA40
DA40
6380
ENDCHAR
STARTCHAR N
ENCODING 78
SWIDTH 853 0
DWIDTH 9 0
BBX 9 10 0 -1
BITMAP
7B80
5580
DB80
D580
DB80
DB80
DD80
DD80
CC80
7700
ENDCHAR
STARTCHAR O
ENCODING 79
SWIDTH 837 0
DWIDTH 9 0
BBX 9 10 0 -1
BITMAP
3F00
5180
5D80
DD80
DD80
DD80
D180
CE80
7300
3C00
ENDCHAR
STARTCHAR P
ENCODING 80
SWIDTH 782 0
DWIDTH 9 0
BBX 8 10 0 -1
BITMAP
7F
5F
DD
DD
D1
DF
D6
C8
D8
60
ENDCHAR
STARTCHAR Q
ENCODING 81
SWIDTH 837 0
DWIDTH 9 0
BBX 9 11 0 -2
BITMAP
3F00
4E80
5180
DD80
DD80
DD80
DD80
CE80
7100
7200
1C00
ENDCHAR
STARTCHAR R
ENCODING 82
SWIDTH 843 0
DWIDTH 9 0
BBX 9 10 0 -1
BITMAP
7F00
5C80
D680
D680
DE80
D180
D580
D580
CE80
7700
ENDCHAR
STARTCHAR S
ENCODING 83
SWIDTH 750 0
DWIDTH 8 0
BBX 8 10 0 -1
BITMAP
3F
4F
DE
D1
CD
FB
43
DD
C2
FC
ENDCHAR
STARTCHAR T
ENCODING 84
SWIDTH 756 0
DWIDTH 8 0
BBX 8 10 0 -1
BITMAP
7F
DF
FB
3A
3A
3A
3A
32
36
38
ENDCHAR
STARTCHAR U
ENCODING 85
SWIDTH 846 0
DWIDTH 9 0
BBX 9 10 0 -1
BITMAP
7B80
DD80
DD80
DD80
DD80
DD80
D180
CE80
7300
3C00
ENDCHAR
STARTCHAR V
ENCODING 86
SWIDTH 830 0
DWIDTH 9 0
BBX 9 10 0 -1
BITMAP
7F80
DD80
DD80
DD80
D580
D680
7300
6D00
7300
3C00
ENDCHAR
STARTCHAR W
ENCODING 87
SWIDTH 931 0
DWIDTH 10 0
BBX 10 10 0 -1
BITMAP
79C0
DAC0
DEC0
D9C0
DDC0
D6C0
DD40
D540
6E80
7700
ENDCHAR
STARTCHAR X
ENCODING 88
SWIDTH 837 0
DWIDTH 9 0
BBX 9 10 0 -1
BITMAP
7B80
DD80
D580
EA80
6D00
3280
5580
DD80
DC80
E700
ENDCHAR
STARTCHAR Y
ENCODING 89
SWIDTH 805 0
DWIDTH 9 0
BBX 9 10 0 -1
BITMAP
7F80
D580
D580
DD80
D280
6D00
7600
3600
3600
3800
ENDCHAR
STARTCHAR Z
ENCODING 90
SWIDTH 760 0
DWIDTH 8 0
BBX 8 10 0 -1
BITMAP
7F
DF
F3
15
2A
4C
57
DF
C1
FE
ENDCHAR
STARTCHAR bracketleft
ENCODING 91
SWIDTH 529 0
DWIDTH 6 0
BBX 6 13 0 -2
BITMAP
38
44
DC
D8
D0
D0
D0
D0
D0
D8
DC
C4
F8
ENDCHAR
STARTCHAR backslash
ENCODING 92
SWIDTH 487 0
DWIDTH 5 0
BBX 5 13 0 -2
BITMAP
30
48
E8
D0
D0
D8
58
58
78
78
78
68
78
ENDCHAR
STARTCHAR bracketright
ENCODING 93
SWIDTH 529 0
DWIDTH 6 0
BBX 6 13 0 -2
BITMAP
38
44
DC
EC
6C
6C
6C
6C
6C
4C
D4
C4
F8
ENDCHAR
STARTCHAR asciicircum
ENCODING 94
SWIDTH 814 0
DWIDTH 9 0
BBX 8 8 0 1
BITMAP
1E
2D
32
57
5F
5F
4D
FF
ENDCHAR
STARTCHAR underscore
ENCODING 95
SWIDTH 834 0
DWIDTH 9 0
BBX 9 4 0 -2
BITMAP
3F00
5F80
C080
FF00
ENDCHAR
STARTCHAR grave
ENCODING 96
SWIDTH 600 0
DWIDTH 7 0
BBX 6 4 0 8
BITMAP
70
5C
E4
FC
ENDCHAR
STARTCHAR a
ENCODING 97
SWIDTH 830 0
DWIDTH 9 0
BBX 9 10 0 -1
BITMAP
1F00
2D00
3680
5D80
5180
DF80
D180
DD80
DC80
E700
ENDCHAR
STARTCHAR b
ENCODING 98
SWIDTH 825 0
DWIDTH 9 0
BBX 9 10 0 -1
BITMAP
7F00
5C80
DE80
D300
DE80
DD80
D180
DE80
C100
7E00
ENDCHAR
STARTCHAR c
ENCODING 99
SWIDTH 728 0
DWIDTH 8 0
BBX 8 10 0 -1
BITMAP
3F
4F
5E
D8
D8
D8
D7
CF
71
7E
ENDCHAR
STARTCHAR d
ENCODING 100
SWIDTH 846 0
DWIDTH 9 0
BBX 9 10 0 -1
BITMAP
7F00
5E80
D180
D580
D580
D580
D580
DE80
C100
7E00
ENDCHAR
STARTCHAR e
ENCODING 101
SWIDTH 754 0
DWIDTH 8 0
BBX 8 10 0 -1
BITMAP
7F
5F
DE
D1
DD
DE
DF
DF
C1
7E
ENDCHAR
STARTCHAR f
ENCODING 102
SWIDTH 718 0
DWIDTH 8 0
BBX 8 10 0 -1
BITMAP
7F
5F
D6
D2
DE
D2
D4
D8
C8
70
ENDCHAR
STARTCHAR g
ENCODING 103
SWIDTH 808 0
DWIDTH 9 0
BBX 9 10 0 -1
BITMAP
3F00
4F00
5E00
DB00
DC80
DD80
D180
CE80
7180
7E00
ENDCHAR
STARTCHAR h
ENCODING 104
SWIDTH 859 0
DWIDTH 9 0
BBX 9 10 0 -1
BITMAP
7B80
5580
D580
D180
DF80
D180
D580
D580
CC80
7700
ENDCHAR
STARTCHAR i
ENCODING 105
SWIDTH 705 0
DWIDTH 8 0
BBX 7 10 0 -1
BITMAP
7E
DE
EA
EA
2C
2C
2A
5E
C2
FC
ENDCHAR
STARTCHAR j
ENCODING 106
SWIDTH 788 0
DWIDTH 9 0
BBX 8 10 0 -1
BITMAP
07
0F
0F
3F
4F
EF
D3
CD
F2
7C
ENDCHAR
STARTCHAR k
ENCODING 107
SWIDTH 846 0
DWIDTH 9 0
BBX 9 10 0 -1
BITMAP
7F80
5680
DB00
D280
DE80
D180
D580
D580
CC80
7700
ENDCHAR
STARTCHAR l
ENCODING 108
SWIDTH 795 0
DWIDTH 9 0
BBX 9 10 0 -1
BITMAP
7800
5800
D800
DB00
D480
D580
D180
DE80
C180
7E00
ENDCHAR
STARTCHAR m
ENCODING 109
SWIDTH 949 0
DWIDTH 10 0
BBX 10 10 0 -1
BITMAP
7BC0
56C0
D9C0
D7C0
D9C0
DEC0
DAC0
CA40
DA40
6380
ENDCHAR
STARTCHAR n
ENCODING 110
SWIDTH 853 0
DWIDTH 9 0
BBX 9 10 0 -1
BITMAP
7B80
5580
DB80
D580
DB80
DB80
DD80
DD80
CC80
7700
ENDCHAR
STARTCHAR o
ENCODING 111
SWIDTH 837 0
DWIDTH 9 0
BBX 9 10 0 -1
BITMAP
3F00
5180
5D80
DD80
DD80
DD80
D180
CE80
7300
3C00
ENDCHAR
STARTCHAR p
ENCODING 112
SWIDTH 782 0
DWIDTH 9 0
BBX 8 10 0 -1
BITMAP
7F
5F
DD
DD
D1
DF
D6
C8
D8
60
ENDCHAR
STARTCHAR q
ENCODING 113
SWIDTH 837 0
DWIDTH 9 0
BBX 9 11 0 -2
BITMAP
3F00
4E80
5180
DD80
DD80
DD80
DD80
CE80
7100
7200
1C00
ENDCHAR
STARTCHAR r
ENCODING 114
SWIDTH 843 0
DWIDTH 9 0
BBX 9 10 0 -1
BITMAP
7F00
5C80
D680
D680
DE80
D180
D580
D580
CE80
7700
ENDCHAR
STARTCHAR s
ENCODING 115
SWIDTH 750 0
DWIDTH 8 0
BBX 8 10 0 -1
BITMAP
3F
4F
DE
D1
CD
FB
43
DD
C2
FC
ENDCHAR
STARTCHAR t
ENCODING 116
SWIDTH 756 0
DWIDTH 8 0
BBX 8 10 0 -1
BITMAP
7F
DF
FB
3A
3A
3A
3A
32
36
38
ENDCHAR
STARTCHAR u
ENCODING 117
SWIDTH 846 0
DWIDTH 9 0
BBX 9 10 0 -1
BITMAP
7B80
DD80
DD80
DD80
DD80
DD80
D180
CE80
7300
3C00
ENDCHAR
STARTCHAR v
ENCODING 118
SWIDTH 830 0
DWIDTH 9 0
BBX 9 10 0 -1
BITMAP
7F80
DD80
DD80
DD80
D580
D680
7300
6D00
7300
3C00
ENDCHAR
STARTCHAR w
ENCODING 119
SWIDTH 931 0
DWIDTH 10 0
BBX 10 10 0 -1
BITMAP
79C0
DAC0
DEC0
D9C0
DDC0
D6C0
DD40
D540
6E80
7700
ENDCHAR
STARTCHAR x
ENCODING 120
SWIDTH 837 0
DWIDTH 9 0
BBX 9 10 0 -1
BITMAP
7B80
DD80
D580
EA80
6D00
3280
5580
DD80
DC80
E700
ENDCHAR
STARTCHAR y
ENCODING 121
SWIDTH 805 0
DWIDTH 9 0
BBX 9 10 0 -1
BITMAP
7F80
D580
D580
DD80
D280
6D00
7600
3600
3600
3800
ENDCHAR
STARTCHAR z
ENCODING 122
SWIDTH 760 0
DWIDTH 8 0
BBX 8 10 0 -1
BITMAP
7F
DF
F3
15
2A
4C
57
DF
C1
FE
ENDCHAR
STARTCHAR braceleft
ENCODING 123
SWIDTH 555 0
DWIDTH 6 0
BBX 6 13 0 -2
BITMAP
1C
24
5C
54
58
58
B0
D8
D8
54
4C
64
78
ENDCHAR
STARTCHAR bar
ENCODING 124
SWIDTH 447 0
DWIDTH 5 0
BBX 4 13 0 -2
BITMAP
30
50
D0
D0
D0
D0
D0
D0
D0
D0
D0
D0
F0
ENDCHAR
STARTCHAR braceright
ENCODING 125
SWIDTH 555 0
DWIDTH 6 0
BBX 6 13 0 -2
BITMAP
38
44
D4
E8
68
6C
7C
28
68
48
D4
C8
F0
ENDCHAR
STARTCHAR asciitilde
ENCODING 126
SWIDTH 834 0
DWIDTH 9 0
BBX 9 5 0 1
BITMAP
3000
5F80
4080
FF00
0400
ENDCHAR
STARTCHAR uni00A0
ENCODING 160
SWIDTH 325 0
DWIDTH 4 0
BBX 1 1 0 0
BITMAP
00
ENDCHAR
STARTCHAR exclamdown
ENCODING 161
SWIDTH 523 0
DWIDTH 6 0
BBX 4 10 1 -1
BITMAP
F0
B0
F0
90
B0
B0
B0
90
90
E0
ENDCHAR
STARTCHAR cent
ENCODING 162
SWIDTH 728 0
DWIDTH 8 0
BBX 8 12 0 -2
BITMAP
0C
12
25
4F
51
DE
D8
D7
CF
65
72
1C
ENDCHAR
STARTCHAR sterling
ENCODING 163
SWIDTH 795 0
DWIDTH 9 0
BBX 9 10 0 -1
BITMAP
3F00
4D00
5600
9400
B700
D580
D180
DE80
C180
7E00
ENDCHAR
STARTCHAR currency
ENCODING 164
SWIDTH 921 0
DWIDTH 10 0
BBX 10 10 0 -2
BITMAP
7FC0
56C0
E980
7780
7780
7780
5F40
49C0
FF80
4100
ENDCHAR
STARTCHAR yen
ENCODING 165
SWIDTH 803 0
DWIDTH 9 0
BBX 9 10 0 -1
BITMAP
7F80
D580
DD80
D300
6D00
5E80
4500
7200
3600
3800
ENDCHAR
STARTCHAR brokenbar
ENCODING 166
SWIDTH 447 0
DWIDTH 5 0
BBX 4 13 0 -2
BITMAP
30
50
D0
D0
D0
D0
F0
50
D0
D0
D0
D0
F0
ENDCHAR
STARTCHAR section
ENCODING 167
SWIDTH 750 0
DWIDTH 8 0
BBX 8 10 0 -1
BITMAP
3F
51
5E
DD
DF
CF
7F
5D
C2
FC
ENDCHAR
STARTCHAR dieresis
ENCODING 168
SWIDTH 600 0
DWIDTH 7 0
BBX 7 4 0 8
BITMAP
7C
B6
92
FC
ENDCHAR
STARTCHAR copyright
ENCODING 169
SWIDTH 967 0
DWIDTH 11 0
BBX 10 13 0 -2
BITMAP
1F80
2040
5FC0
6EC0
F8C0
FBC0
FCC0
FBC0
F6C0
FFC0
E040
7F80
3F00
ENDCHAR
STARTCHAR ordfeminine
ENCODING 170
SWIDTH 620 0
DWIDTH 7 0
BBX 7 10 0 -1
BITMAP
3C
6A
6E
DE
DE
DA
FC
7E
C2
FC
ENDCHAR
STARTCHAR guillemotleft
ENCODING 171
SWIDTH 912 0
DWIDTH 10 0
BBX 10 7 0 0
BITMAP
3FC0
5DC0
6E80
E640
DDC0
F3C0
3F80
ENDCHAR
STARTCHAR logicalnot
ENCODING 172
SWIDTH 834 0
DWIDTH 9 0
BBX 9 7 0 0
BITMAP
3F00
5F80
C180
FD80
0580
0480
0700
ENDCHAR
STARTCHAR uni00AD
ENCODING 173
SWIDTH 520 0
DWIDTH 6 0
BBX 6 4 0 2
BITMAP
38
54
C4
F8
ENDCHAR
STARTCHAR registered
ENCODING 174
SWIDTH 660 0
DWIDTH 7 0
BBX 7 8 0 1
BITMAP
3C
5E
DE
DA
DA
FE
7C
30
ENDCHAR
STARTCHAR macron
ENCODING 175
SWIDTH 600 0
DWIDTH 7 0
BBX 6 4 0 8
BITMAP
3C
44
DC
FC
ENDCHAR
STARTCHAR degree
ENCODING 176
SWIDTH 583 0
DWIDTH 6 0
BBX 6 7 0 2
BITMAP
3C
64
D4
D4
D4
F8
30
ENDCHAR
STARTCHAR plusminus
ENCODING 177
SWIDTH 834 0
DWIDTH 9 0
BBX 9 10 0 -1
BITMAP
1E00
1400
3700
5F80
C480
F700
3300
5F80
C080
7F00
ENDCHAR
STARTCHAR twosuperior
ENCODING 178
SWIDTH 585 0
DWIDTH 6 0
BBX 6 8 0 1
BITMAP
7C
F4
EC
74
DC
DC
C4
F8
ENDCHAR
STARTCHAR threesuperior
ENCODING 179
SWIDTH 584 0
DWIDTH 6 0
BBX 6 8 0 1
BITMAP
7C
CC
FC
5C
74
5C
C4
F8
ENDCHAR
STARTCHAR acute
ENCODING 180
SWIDTH 600 0
DWIDTH 7 0
BBX 6 4 0 8
BITMAP
2C
5C
C4
F8
ENDCHAR
STARTCHAR mu
ENCODING 181
SWIDTH 813 0
DWIDTH 9 0
BBX 9 10 0 -2
BITMAP
3300
4C80
DD80
DD80
DD80
D580
DE80
D100
FE00
E000
ENDCHAR
STARTCHAR paragraph
ENCODING 182
SWIDTH 782 0
DWIDTH 9 0
BBX 8 10 0 -1
BITMAP
3F
5F
E3
E3
DF
EB
EF
25
25
3E
ENDCHAR
STARTCHAR periodcentered
ENCODING 183
SWIDTH 464 0
DWIDTH 5 0
BBX 5 5 0 1
BITMAP
38
58
C8
C8
F0
ENDCHAR
STARTCHAR cedilla
ENCODING 184
SWIDTH 600 0
DWIDTH 7 0
BBX 5 4 1 -3
BITMAP
78
68
90
E0
ENDCHAR
STARTCHAR onesuperior
ENCODING 185
SWIDTH 557 0
DWIDTH 6 0
BBX 6 8 0 1
BITMAP
78
D8
F8
78
74
5C
C4
F8
ENDCHAR
STARTCHAR ordmasculine
ENCODING 186
SWIDTH 625 0
DWIDTH 7 0
BBX 7 10 0 -1
BITMAP
3E
66
EE
EE
EE
DA
FE
7E
C2
FC
ENDCHAR
STARTCHAR guillemotright
ENCODING 187
SWIDTH 912 0
DWIDTH 10 0
BBX 10 7 0 0
BITMAP
2A80
7740
CCC0
FBC0
5540
DD80
FF00
ENDCHAR
STARTCHAR onequarter
ENCODING 188
SWIDTH 1303 0
DWIDTH 14 0
BBX 14 10 0 -1
BITMAP
79C0
DA80
FB6C
7754
7754
5ABC
FDC4
04F4
0514
0E18
ENDCHAR
STARTCHAR onehalf
ENCODING 189
SWIDTH 1260 0
DWIDTH 14 0
BBX 14 10 0 -1
BITMAP
79C0
DA80
FB78
7774
777C
5A94
FDB8
04BC
058C
0EF0
ENDCHAR
STARTCHAR threequarters
ENCODING 190
SWIDTH 1313 0
DWIDTH 14 0
BBX 14 10 0 -1
BITMAP
7DC0
FA80
3F7C
4754
7754
5B7C
FDC4
04F4
0514
0618
ENDCHAR
STARTCHAR questiondown
ENCODING 191
SWIDTH 756 0
DWIDTH 8 0
BBX 8 10 0 -1
BITMAP
0F
15
11
3E
4D
51
DF
CF
E1
7E
ENDCHAR
STARTCHAR Agrave
ENCODING 192
SWIDTH 830 0
DWIDTH 9 0
BBX 9 13 0 -1
BITMAP
1800
2F00
6100
3F00
2D00
5680
5D80
5180
DF80
D180
DD80
DC80
E700
ENDCHAR
STARTCHAR Aacute
ENCODING 193
SWIDTH 830 0
DWIDTH 9 0
BBX 9 13 0 -1
BITMAP
0300
3F00
6100
7F00
2D00
3680
5D80
5180
DF80
D180
DD80
DC80
E700
ENDCHAR
STARTCHAR Acircumflex
ENCODING 194
SWIDTH 830 0
DWIDTH 9 0
BBX 9 14 0 -1
BITMAP
0600
1D00
2300
7F00
6100
2D00
5680
5D80
5180
DF80
D180
DD80
DC80
E700
ENDCHAR
STARTCHAR Atilde
ENCODING 195
SWIDTH 830 0
DWIDTH 9 0
BBX 9 13 0 -1
BITMAP
1900
2F00
6100
7F00
2D00
3680
5D00
5180
DF80
D180
DD80
DC80
E700
ENDCHAR
STARTCHAR Adieresis
ENCODING 196
SWIDTH 830 0
DWIDTH 9 0
BBX 9 13 0 -1
BITMAP
1B00
3700
6500
7B00
2D00
3700
5D00
5180
DF80
D180
DD80
DC80
E700
ENDCHAR
STARTCHAR Aring
ENCODING 197
SWIDTH 830 0
DWIDTH 9 0
BBX 9 14 0 -1
BITMAP
1E00
2D00
3300
7700
6D00
2D00
5680
5D80
5180
DF80
D180
DD80
DC80
E700
ENDCHAR
STARTCHAR AE
ENCODING 198
SWIDTH 1105 0
DWIDTH 12 0
BBX 12 10 0 -1
BITMAP
1FF0
2FF0
5560
5520
5DE0
DE60
D170
DDF0
DC10
E7E0
ENDCHAR
STARTCHAR Ccedilla
ENCODING 199
SWIDTH 728 0
DWIDTH 8 0
BBX 8 11 0 -2
BITMAP
3F
4F
51
DE
D8
D8
D7
CF
77
32
3C
ENDCHAR
STARTCHAR Egrave
ENCODING 200
SWIDTH 754 0
DWIDTH 8 0
BBX 8 13 0 -1
BITMAP
10
6E
61
5F
5F
DE
D1
DD
DE
DF
DF
C1
7E
ENDCHAR
STARTCHAR Eacute
ENCODING 201
SWIDTH 754 0
DWIDTH 8 0
BBX 8 13 0 -1
BITMAP
03
3D
61
5F
5F
DE
D1
DD
DE
DF
DF
C1
7E
ENDCHAR
STARTCHAR Ecircumflex
ENCODING 202
SWIDTH 754 0
DWIDTH 8 0
BBX 8 14 0 -1
BITMAP
08
3F
61
7F
41
DF
DE
D1
DD
DE
DF
DF
C1
7E
ENDCHAR
STARTCHAR Edieresis
ENCODING 203
SWIDTH 754 0
DWIDTH 8 0
BBX 8 13 0 -1
BITMAP
1F
37
65
5B
5F
DE
D1
DD
DE
DF
DF
C1
7E
ENDCHAR
STARTCHAR Igrave
ENCODING 204
SWIDTH 705 0
DWIDTH 8 0
BBX 7 13 0 -1
BITMAP
30
5E
42
7E
DE
EA
EA
2C
2C
2A
5E
C2
FC
ENDCHAR
STARTCHAR Iacute
ENCODING 205
SWIDTH 705 0
DWIDTH 8 0
BBX 7 13 0 -1
BITMAP
06
3E
42
7E
5E
EA
EA
2C
2C
2A
5E
C2
FC
ENDCHAR
STARTCHAR Icircumflex
ENCODING 206
SWIDTH 705 0
DWIDTH 8 0
BBX 7 14 0 -1
BITMAP
08
3E
42
7E
42
5E
EA
EA
2C
2C
2A
5E
C2
FC
ENDCHAR
STARTCHAR Idieresis
ENCODING 207
SWIDTH 705 0
DWIDTH 8 0
BBX 7 13 0 -1
BITMAP
36
5E
CA
F6
5E
EA
EA
2C
2C
2A
5E
C2
FC
ENDCHAR
STARTCHAR Eth
ENCODING 208
SWIDTH 856 0
DWIDTH 9 0
BBX 9 10 0 -1
BITMAP
7F80
5E80
5580
5580
B580
D580
D180
5E80
4100
7E00
ENDCHAR
STARTCHAR Ntilde
ENCODING 209
SWIDTH 853 0
DWIDTH 9 0
BBX 9 13 0 -1
BITMAP
1900
2F00
2100
5E80
5580
DB80
D580
DB80
DB80
DD80
DD80
CC80
7700
ENDCHAR
STARTCHAR Ograve
ENCODING 210
SWIDTH 837 0
DWIDTH 9 0
BBX 9 13 0 -1
BITMAP
3F00
6F00
7500
2F80
5180
DD80
DD80
DD80
DD80
D180
CE80
7300
3C00
ENDCHAR
STARTCHAR Oacute
ENCODING 211
SWIDTH 837 0
DWIDTH 9 0
BBX 9 13 0 -1
BITMAP
1F00
3F00
6500
5E80
5180
DD80
DD80
DD80
DD80
D180
CE80
7300
3C00
ENDCHAR
STARTCHAR Ocircumflex
ENCODING 212
SWIDTH 837 0
DWIDTH 9 0
BBX 9 14 0 -1
BITMAP
0600
3D00
2300
7F00
2E80
5180
DD80
DD80
DD80
DD80
D180
CE80
7300
3C00
ENDCHAR
STARTCHAR Otilde
ENCODING 213
SWIDTH 837 0
DWIDTH 9 0
BBX 9 14 0 -1
BITMAP
1B00
2D00
6300
6100
3F00
5180
DD80
DD80
DD80
DD80
D180
CE80
7300
3C00
ENDCHAR
STARTCHAR Odieresis
ENCODING 214
SWIDTH 837 0
DWIDTH 9 0
BBX 9 14 0 -1
BITMAP
1B00
2500
7700
6500
3F00
5180
DD80
DD80
DD80
DD80
D180
CE80
7300
3C00
ENDCHAR
STARTCHAR multiply
ENCODING 215
SWIDTH 834 0
DWIDTH 9 0
BBX 8 9 1 0
BITMAP
22
55
ED
DA
7A
65
89
FE
48
ENDCHAR
STARTCHAR Oslash
ENCODING 216
SWIDTH 837 0
DWIDTH 9 0
BBX 9 13 0 -2
BITMAP
0300
0280
3E80
5380
5D80
DD80
D580
DB80
DD80
CE80
6300
7C00
6000
ENDCHAR
STARTCHAR Ugrave
ENCODING 217
SWIDTH 846 0
DWIDTH 9 0
BBX 9 13 0 -1
BITMAP
1800
2F00
6100
5B80
DD80
DD80
DD80
DD80
DD80
D180
CE80
7300
3C00
ENDCHAR
STARTCHAR Uacute
ENCODING 218
SWIDTH 846 0
DWIDTH 9 0
BBX 9 13 0 -1
BITMAP
0300
1F00
2100
5680
5D80
DD80
DD80
DD80
DD80
D180
CE80
7300
3C00
ENDCHAR
STARTCHAR Ucircumflex
ENCODING 219
SWIDTH 846 0
DWIDTH 9 0
BBX 9 14 0 -1
BITMAP
0400
1F00
2500
3F00
4C80
DD80
DD80
DD80
DD80
DD80
D180
CE80
7300
3C00
ENDCHAR
STARTCHAR Udieresis
ENCODING 220
SWIDTH 846 0
DWIDTH 9 0
BBX 9 14 0 -1
BITMAP
1B00
2500
7700
6500
5E80
DD80
DD80
DD80
DD80
DD80
D180
CE80
7300
3C00
ENDCHAR
STARTCHAR Yacute
ENCODING 221
SWIDTH 805 0
DWIDTH 9 0
BBX 9 13 0 -1
BITMAP
0300
3F00
6100
5E80
D580
D580
DD80
D280
6D00
7600
3600
3600
3800
ENDCHAR
STARTCHAR Thorn
ENCODING 222
SWIDTH 792 0
DWIDTH 9 0
BBX 8 10 0 -1
BITMAP
78
57
DF
DD
DD
D1
DF
D6
D8
60
ENDCHAR
STARTCHAR germandbls
ENCODING 223
SWIDTH 859 0
DWIDTH 9 0
BBX 9 10 0 -1
BITMAP
7F00
5C80
D680
DB00
DA80
D780
D980
DA80
C980
7E00
ENDCHAR
STARTCHAR agrave
ENCODING 224
SWIDTH 830 0
DWIDTH 9 0
BBX 9 13 0 -1
BITMAP
1800
2F00
6100
3F00
2D00
5680
5D80
5180
DF80
D180
DD80
DC80
E700
ENDCHAR
STARTCHAR aacute
ENCODING 225
SWIDTH 830 0
DWIDTH 9 0
BBX 9 13 0 -1
BITMAP
0300
3F00
6100
7F00
2D00
3680
5D80
5180
DF80
D180
DD80
DC80
E700
ENDCHAR
STARTCHAR acircumflex
ENCODING 226
SWIDTH 830 0
DWIDTH 9 0
BBX 9 14 0 -1
BITMAP
0600
1D00
2300
7F00
6100
2D00
5680
5D80
5180
DF80
D180
DD80
DC80
E700
ENDCHAR
STARTCHAR atilde
ENCODING 227
SWIDTH 830 0
DWIDTH 9 0
BBX 9 13 0 -1
BITMAP
1900
2F00
6100
7F00
2D00
3680
5D00
5180
DF80
D180
DD80
DC80
E700
ENDCHAR
STARTCHAR adieresis
ENCODING 228
SWIDTH 830 0
DWIDTH 9 0
BBX 9 13 0 -1
BITMAP
1B00
3700
6500
7B00
2D00
3700
5D00
5180
DF80
D180
DD80
DC80
E700
ENDCHAR
STARTCHAR aring
ENCODING 229
SWIDTH 830 0
DWIDTH 9 0
BBX 9 14 0 -1
BITMAP
1E00
2D00
3300
7700
6D00
2D00
5680
5D80
5180
DF80
D180
DD80
DC80
E700
ENDCHAR
STARTCHAR ae
ENCODING 230
SWIDTH 1105 0
DWIDTH 12 0
BBX 12 10 0 -1
BITMAP
1FF0
2FF0
5560
5520
5DE0
DE60
D170
DDF0
DC10
E7E0
ENDCHAR
STARTCHAR ccedilla
ENCODING 231
SWIDTH 728 0
DWIDTH 8 0
BBX 8 11 0 -2
BITMAP
3F
4F
51
DE
D8
D8
D7
CF
77
32
3C
ENDCHAR
STARTCHAR egrave
ENCODING 232
SWIDTH 754 0
DWIDTH 8 0
BBX 8 13 0 -1
BITMAP
10
6E
61
5F
5F
DE
D1
DD
DE
DF
DF
C1
7E
ENDCHAR
STARTCHAR eacute
ENCODING 233
SWIDTH 754 0
DWIDTH 8 0
BBX 8 13 0 -1
BITMAP
03
3D
61
5F
5F
DE
D1
DD
DE
DF
DF
C1
7E
ENDCHAR
STARTCHAR ecircumflex
ENCODING 234
SWIDTH 754 0
DWIDTH 8 0
BBX 8 14 0 -1
BITMAP
08
3F
61
7F
41
DF
DE
D1
DD
DE
DF
DF
C1
7E
ENDCHAR
STARTCHAR edieresis
ENCODING 235
SWIDTH 754 0
DWIDTH 8 0
BBX 8 13 0 -1
BITMAP
1F
37
65
5B
5F
DE
D1
DD
DE
DF
DF
C1
7E
ENDCHAR
STARTCHAR igrave
ENCODING 236
SWIDTH 705 0
DWIDTH 8 0
BBX 7 13 0 -1
BITMAP
30
5E
42
7E
DE
EA
EA
2C
2C
2A
5E
C2
FC
ENDCHAR
STARTCHAR iacute
ENCODING 237
SWIDTH 705 0
DWIDTH 8 0
BBX 7 13 0 -1
BITMAP
06
3E
42
7E
5E
EA
EA
2C
2C
2A
5E
C2
FC
ENDCHAR
STARTCHAR icircumflex
ENCODING 238
SWIDTH 705 0
DWIDTH 8 0
BBX 7 14 0 -1
BITMAP
08
3E
42
7E
42
5E
EA
EA
2C
2C
2A
5E
C2
FC
ENDCHAR
STARTCHAR idieresis
ENCODING 239
SWIDTH 705 0
DWIDTH 8 0
BBX 7 13 0 -1
BITMAP
36
5E
CA
F6
5E
EA
EA
2C
2C
2A
5E
C2
FC
ENDCHAR
STARTCHAR eth
ENCODING 240
SWIDTH 856 0
DWIDTH 9 0
BBX 9 10 0 -1
BITMAP
7F80
5E80
5580
5580
B580
D580
D180
5E80
4100
7E00
ENDCHAR
STARTCHAR ntilde
ENCODING 241
SWIDTH 853 0
DWIDTH 9 0
BBX 9 13 0 -1
BITMAP
1900
2F00
2100
5E80
5580
DB80
D580
DB80
DB80
DD80
DD80
CC80
7700
ENDCHAR
STARTCHAR ograve
ENCODING 242
SWIDTH 837 0
DWIDTH 9 0
BBX 9 13 0 -1
BITMAP
3F00
6F00
7500
2F80
5180
DD80
DD80
DD80
DD80
D180
CE80
7300
3C00
ENDCHAR
STARTCHAR oacute
ENCODING 243
SWIDTH 837 0
DWIDTH 9 0
BBX 9 13 0 -1
BITMAP
1F00
3F00
6500
5E80
5180
DD80
DD80
DD80
DD80
D180
CE80
7300
3C00
ENDCHAR
STARTCHAR ocircumflex
ENCODING 244
SWIDTH 837 0
DWIDTH 9 0
BBX 9 14 0 -1
BITMAP
0600
3D00
2300
7F00
2E80
5180
DD80
DD80
DD80
DD80
D180
CE80
7300
3C00
ENDCHAR
STARTCHAR otilde
ENCODING 245
SWIDTH 837 0
DWIDTH 9 0
BBX 9 14 0 -1
BITMAP
1B00
2D00
6300
6100
3F00
5180
DD80
DD80
DD80
DD80
D180
CE80
7300
3C00
ENDCHAR
STARTCHAR odieresis
ENCODING 246
SWIDTH 837 0
DWIDTH 9 0
BBX 9 14 0 -1
BITMAP
1B00
2500
7700
6500
3F00
5180
DD80
DD80
DD80
DD80
D180
CE80
7300
3C00
ENDCHAR
STARTCHAR divide
ENCODING 247
SWIDTH 834 0
DWIDTH 9 0
BBX 9 9 0 -1
BITMAP
0E00
1600
3F00
4080
5F80
FF00
7600
3200
3C00
ENDCHAR
STARTCHAR oslash
ENCODING 248
SWIDTH 837 0
DWIDTH 9 0
BBX 9 13 0 -2
BITMAP
0300
0280
3E80
5380
5D80
DD80
D580
DB80
DD80
CE80
6300
7C00
6000
ENDCHAR
STARTCHAR ugrave
ENCODING 249
SWIDTH 846 0
DWIDTH 9 0
BBX 9 13 0 -1
BITMAP
1800
2F00
6100
5B80
DD80
DD80
DD80
DD80
DD80
D180
CE80
7300
3C00
ENDCHAR
STARTCHAR uacute
ENCODING 250
SWIDTH 846 0
DWIDTH 9 0
BBX 9 13 0 -1
BITMAP
0300
1F00
2100
5680
5D80
DD80
DD80
DD80
DD80
D180
CE80
7300
3C00
ENDCHAR
STARTCHAR ucircumflex
ENCODING 251
SWIDTH 846 0
DWIDTH 9 0
BBX 9 14 0 -1
BITMAP
0400
1F00
2500
3F00
4C80
DD80
DD80
DD80
DD80
DD80
D180
CE80
7300
3C00
ENDCHAR
STARTCHAR udieresis
ENCODING 252
SWIDTH 846 0
DWIDTH 9 0
BBX 9 14 0 -1
BITMAP
1B00
2500
7700
6500
5E80
DD80
DD80
DD80
DD80
DD80
D180
CE80
7300
3C00
ENDCHAR
STARTCHAR yacute
ENCODING 253
SWIDTH 805 0
DWIDTH 9 0
BBX 9 13 0 -1
BITMAP
0300
3F00
6100
5E80
D580
D580
DD80
D280
6D00
7600
3600
3600
3800
ENDCHAR
STARTCHAR thorn
ENCODING 254
SWIDTH 792 0
DWIDTH 9 0
BBX 8 10 0 -1
BITMAP
78
57
DF
DD
DD
D1
DF
D6
D8
60
ENDCHAR
STARTCHAR ydieresis
ENCODING 255
SWIDTH 805 0
DWIDTH 9 0
BBX 9 13 0 -1
BITMAP
1F00
3700
6500
5E80
D580
D580
DD80
D280
6D00
7600
3600
3600
3800
ENDCHAR
STARTCHAR Amacron
ENCODING 256
SWIDTH 830 0
DWIDTH 9 0
BBX 9 13 0 -1
BITMAP
1E00
2F00
6100
7F00
2D00
3700
5D00
5180
DF80
D180
DD80
DC80
E700
ENDCHAR
STARTCHAR amacron
ENCODING 257
SWIDTH 830 0
DWIDTH 9 0
BBX 9 13 0 -1
BITMAP
1E00
2F00
6100
7F00
2D00
3700
5D00
5180
DF80
D180
DD80
DC80
E700
ENDCHAR
STARTCHAR Abreve
ENCODING 258
SWIDTH 830 0
DWIDTH 9 0
BBX 9 14 0 -1
BITMAP
1B00
3700
6D00
7100
2F00
2D00
3680
5D80
5180
DF80
D180
DD80
DC80
E700
ENDCHAR
STARTCHAR abreve
ENCODING 259
SWIDTH 830 0
DWIDTH 9 0
BBX 9 14 0 -1
BITMAP
1B00
3700
6D00
7100
2F00
2D00
3680
5D80
5180
DF80
D180
DD80
DC80
E700
ENDCHAR
STARTCHAR Aogonek
ENCODING 260
SWIDTH 830 0
DWIDTH 9 0
BBX 9 12 0 -3
BITMAP
1F00
2D00
3680
5D80
5180
DF80
D180
DD80
DD80
E780
0480
0F00
ENDCHAR
STARTCHAR aogonek
ENCODING 261
SWIDTH 830 0
DWIDTH 9 0
BBX 9 12 0 -3
BITMAP
1F00
2D00
3680
5D80
5180
DF80
D180
DD80
DD80
E780
0480
0F00
ENDCHAR
STARTCHAR Cacute
ENCODING 262
SWIDTH 728 0
DWIDTH 8 0
BBX 8 13 0 -1
BITMAP
03
3F
21
3F
4F
5E
D8
D8
D8
D7
CF
71
7E
ENDCHAR
STARTCHAR cacute
ENCODING 263
SWIDTH 728 0
DWIDTH 8 0
BBX 8 13 0 -1
BITMAP
03
3F
21
3F
4F
5E
D8
D8
D8
D7
CF
71
7E
ENDCHAR
STARTCHAR Ccircumflex
ENCODING 264
SWIDTH 728 0
DWIDTH 8 0
BBX 8 14 0 -1
BITMAP
04
3F
21
7F
61
4F
5E
D8
D8
D8
D7
CF
71
7E
ENDCHAR
STARTCHAR ccircumflex
ENCODING 265
SWIDTH 728 0
DWIDTH 8 0
BBX 8 14 0 -1
BITMAP
04
3F
21
7F
61
4F
5E
D8
D8
D8
D7
CF
71
7E
ENDCHAR
STARTCHAR Cdotaccent
ENCODING 266
SWIDTH 728 0
DWIDTH 8 0
BBX 8 14 0 -1
BITMAP
0C
12
36
32
2D
4F
DE
D8
D8
D8
D7
CF
71
7E
ENDCHAR
STARTCHAR cdotaccent
ENCODING 267
SWIDTH 728 0
DWIDTH 8 0
BBX 8 14 0 -1
BITMAP
0C
12
36
32
2D
4F
DE
D8
D8
D8
D7
CF
71
7E
ENDCHAR
STARTCHAR Ccaron
ENCODING 268
SWIDTH 728 0
DWIDTH 8 0
BBX 8 14 0 -1
BITMAP
30
2F
6D
7A
25
4F
5E
D8
D8
D8
D7
CF
71
7E
ENDCHAR
STARTCHAR ccaron
ENCODING 269
SWIDTH 728 0
DWIDTH 8 0
BBX 8 14 0 -1
BITMAP
30
2F
6D
7A
25
4F
5E
D8
D8
D8
D7
CF
71
7E
ENDCHAR
STARTCHAR Dcaron
ENCODING 270
SWIDTH 846 0
DWIDTH 9 0
BBX 9 14 0 -1
BITMAP
1000
2F00
2F00
3A00
4580
5E80
D180
D580
D580
D580
D580
DE80
C100
7E00
ENDCHAR
STARTCHAR dcaron
ENCODING 271
SWIDTH 846 0
DWIDTH 9 0
BBX 9 14 0 -1
BITMAP
1000
2F00
2F00
3A00
4580
5E80
D180
D580
D580
D580
D580
DE80
C100
7E00
ENDCHAR
STARTCHAR Dcroat
ENCODING 272
SWIDTH 856 0
DWIDTH 9 0
BBX 9 10 0 -1
BITMAP
7F80
5E80
5580
5580
B580
D580
D180
5E80
4100
7E00
ENDCHAR
STARTCHAR dcroat
ENCODING 273
SWIDTH 856 0
DWIDTH 9 0
BBX 9 10 0 -1
BITMAP
7F80
5E80
5580
5580
B580
D580
D180
5E80
4100
7E00
ENDCHAR
STARTCHAR Emacron
ENCODING 274
SWIDTH 754 0
DWIDTH 8 0
BBX 8 13 0 -1
BITMAP
1E
2D
61
5F
5F
DE
D1
DD
DE
DF
DF
C1
7E
ENDCHAR
STARTCHAR emacron
ENCODING 275
SWIDTH 754 0
DWIDTH 8 0
BBX 8 13 0 -1
BITMAP
1E
2D
61
5F
5F
DE
D1
DD
DE
DF
DF
C1
7E
ENDCHAR
STARTCHAR Ebreve
ENCODING 276
SWIDTH 754 0
DWIDTH 8 0
BBX 8 14 0 -1
BITMAP
1A
37
6D
72
4D
5F
DE
D1
DD
DE
DF
DF
C1
7E
ENDCHAR
STARTCHAR ebreve
ENCODING 277
SWIDTH 754 0
DWIDTH 8 0
BBX 8 14 0 -1
BITMAP
1A
37
6D
72
4D
5F
DE
D1
DD
DE
DF
DF
C1
7E
ENDCHAR
STARTCHAR Edotaccent
ENCODING 278
SWIDTH 754 0
DWIDTH 8 0
BBX 8 14 0 -1
BITMAP
0C
12
3A
32
4D
5F
DE
D1
DD
DE
DF
DF
C1
7E
ENDCHAR
STARTCHAR edotaccent
ENCODING 279
SWIDTH 754 0
DWIDTH 8 0
BBX 8 14 0 -1
BITMAP
0C
12
3A
32
4D
5F
DE
D1
DD
DE
DF
DF
C1
7E
ENDCHAR
STARTCHAR Eogonek
ENCODING 280
SWIDTH 754 0
DWIDTH 8 0
BBX 8 12 0 -3
BITMAP
7F
5F
DE
D1
DD
DE
DF
DF
C3
7B
09
0E
ENDCHAR
STARTCHAR eogonek
ENCODING 281
SWIDTH 754 0
DWIDTH 8 0
BBX 8 12 0 -3
BITMAP
7F
5F
DE
D1
DD
DE
DF
DF
C3
7B
09
0E
ENDCHAR
STARTCHAR Ecaron
ENCODING 282
SWIDTH 754 0
DWIDTH 8 0
BBX 8 14 0 -1
BITMAP
30
2F
6D
7A
45
5F
DE
D1
DD
DE
DF
DF
C1
7E
ENDCHAR
STARTCHAR ecaron
ENCODING 283
SWIDTH 754 0
DWIDTH 8 0
BBX 8 14 0 -1
BITMAP
30
2F
6D
7A
45
5F
DE
D1
DD
DE
DF
DF
C1
7E
ENDCHAR
STARTCHAR Gcircumflex
ENCODING 284
SWIDTH 808 0
DWIDTH 9 0
BBX 9 14 0 -1
BITMAP
0400
1F00
2100
3F00
2100
4F00
5E00
DB00
DC80
DD80
D180
CE80
7180
7E00
ENDCHAR
STARTCHAR gcircumflex
ENCODING 285
SWIDTH 808 0
DWIDTH 9 0
BBX 9 14 0 -1
BITMAP
0400
1F00
2100
3F00
2100
4F00
5E00
DB00
DC80
DD80
D180
CE80
7180
7E00
ENDCHAR
STARTCHAR Gbreve
ENCODING 286
SWIDTH 808 0
DWIDTH 9 0
BBX 9 14 0 -1
BITMAP
1B00
3700
6D00
7300
2D00
4F00
5E00
DB00
DC80
DD80
D180
CE80
7180
7E00
ENDCHAR
STARTCHAR gbreve
ENCODING 287
SWIDTH 808 0
DWIDTH 9 0
BBX 9 14 0 -1
BITMAP
1B00
3700
6D00
7300
2D00
4F00
5E00
DB00
DC80
DD80
D180
CE80
7180
7E00
ENDCHAR
STARTCHAR Gdotaccent
ENCODING 288
SWIDTH 808 0
DWIDTH 9 0
BBX 9 14 0 -1
BITMAP
0E00
1200
1600
1200
2D00
4F00
5E00
DB00
DC80
DD80
D180
CE80
7180
7E00
ENDCHAR
STARTCHAR gdotaccent
ENCODING 289
SWIDTH 808 0
DWIDTH 9 0
BBX 9 14 0 -1
BITMAP
0E00
1200
1600
1200
2D00
4F00
5E00
DB00
DC80
DD80
D180
CE80
7180
7E00
ENDCHAR
STARTCHAR Gcommaaccent
ENCODING 290
SWIDTH 808 0
DWIDTH 9 0
BBX 9 14 0 -5
BITMAP
3F00
5100
5E00
DB00
DC80
DD80
D180
CE80
7F00
7100
1600
1E00
1400
1800
ENDCHAR
STARTCHAR gcommaaccent
ENCODING 291
SWIDTH 808 0
DWIDTH 9 0
BBX 9 14 0 -5
BITMAP
3F00
5100
5E00
DB00
DC80
DD80
D180
CE80
7F00
7100
1600
1E00
1400
1800
ENDCHAR
STARTCHAR Hcircumflex
ENCODING 292
SWIDTH 859 0
DWIDTH 9 0
BBX 9 14 0 -1
BITMAP
0400
1F00
2100
3F00
4480
5580
D580
D180
DF80
D180
D580
D580
CC80
7700
ENDCHAR
STARTCHAR hcircumflex
ENCODING 293
SWIDTH 859 0
DWIDTH 9 0
BBX 9 14 0 -1
BITMAP
0400
1F00
2100
3F00
4480
5580
D580
D180
DF80
D180
D580
D580
CC80
7700
ENDCHAR
STARTCHAR Hbar
ENCODING 294
SWIDTH 879 0
DWIDTH 10 0
BBX 10 10 0 -1
BITMAP
7BC0
5740
DFC0
D740
D140
5F40
5140
5740
4E80
7700
ENDCHAR
STARTCHAR hbar
ENCODING 295
SWIDTH 879 0
DWIDTH 10 0
BBX 10 10 0 -1
BITMAP
7BC0
5740
DFC0
D740
D140
5F40
5140
5740
4E80
7700
ENDCHAR
STARTCHAR Itilde
ENCODING 296
SWIDTH 705 0
DWIDTH 8 0
BBX 7 13 0 -1
BITMAP
3A
46
5A
66
5E
EA
EA
2C
2C
2A
5E
C2
FC
ENDCHAR
STARTCHAR itilde
ENCODING 297
SWIDTH 705 0
DWIDTH 8 0
BBX 7 13 0 -1
BITMAP
3A
46
5A
66
5E
EA
EA
2C
2C
2A
5E
C2
FC
ENDCHAR
STARTCHAR Imacron
ENCODING 298
SWIDTH 705 0
DWIDTH 8 0
BBX 7 13 0 -1
BITMAP
3E
5E
42
7E
5E
EA
EA
2C
2C
2A
5E
C2
FC
ENDCHAR
STARTCHAR imacron
ENCODING 299
SWIDTH 705 0
DWIDTH 8 0
BBX 7 13 0 -1
BITMAP
3E
5E
42
7E
5E
EA
EA
2C
2C
2A
5E
C2
FC
ENDCHAR
STARTCHAR Ibreve
ENCODING 300
SWIDTH 705 0
DWIDTH 8 0
BBX 7 14 0 -1
BITMAP
36
5A
4E
62
5E
5E
EA
EA
2C
2C
2A
5E
C2
FC
ENDCHAR
STARTCHAR ibreve
ENCODING 301
SWIDTH 705 0
DWIDTH 8 0
BBX 7 14 0 -1
BITMAP
36
5A
4E
62
5E
5E
EA
EA
2C
2C
2A
5E
C2
FC
ENDCHAR
STARTCHAR Iogonek
ENCODING 302
SWIDTH 705 0
DWIDTH 8 0
BBX 7 12 0 -3
BITMAP
7E
DE
EA
EA
2C
2C
2A
5E
C6
FE
1A
1E
ENDCHAR
STARTCHAR iogonek
ENCODING 303
SWIDTH 705 0
DWIDTH 8 0
BBX 7 12 0 -3
BITMAP
7E
DE
EA
EA
2C
2C
2A
5E
C6
FE
1A
1E
ENDCHAR
STARTCHAR Idotaccent
ENCODING 304
SWIDTH 705 0
DWIDTH 8 0
BBX 7 14 0 -1
BITMAP
1C
24
2C
24
5A
DE
EA
EA
2C
2C
2A
5E
C2
FC
ENDCHAR
STARTCHAR dotlessi
ENCODING 305
SWIDTH 705 0
DWIDTH 8 0
BBX 7 10 0 -1
BITMAP
7E
DE
EA
EA
2C
2C
2A
5E
C2
FC
ENDCHAR
STARTCHAR IJ
ENCODING 306
SWIDTH 844 0
DWIDTH 9 0
BBX 9 10 0 -1
BITMAP
7B80
5580
D580
D580
C580
FD80
7D80
5E80
C100
FE00
ENDCHAR
STARTCHAR ij
ENCODING 307
SWIDTH 844 0
DWIDTH 9 0
BBX 9 10 0 -1
BITMAP
7B80
5580
D580
D580
C580
FD80
7D80
5E80
C100
FE00
ENDCHAR
STARTCHAR Jcircumflex
ENCODING 308
SWIDTH 788 0
DWIDTH 9 0
BBX 9 14 0 -1
BITMAP
0600
0B80
1480
1F80
1C80
0E80
0E80
3E80
4E80
EE80
D280
CD00
F200
7C00
ENDCHAR
STARTCHAR jcircumflex
ENCODING 309
SWIDTH 788 0
DWIDTH 9 0
BBX 9 14 0 -1
BITMAP
0600
0B80
1480
1F80
1C80
0E80
0E80
3E80
4E80
EE80
D280
CD00
F200
7C00
ENDCHAR
STARTCHAR Kcommaaccent
ENCODING 310
SWIDTH 846 0
DWIDTH 9 0
BBX 9 14 0 -5
BITMAP
7F80
5A80
D300
DE80
D180
D580
D580
C480
CE80
7100
1600
1E00
1400
1800
ENDCHAR
STARTCHAR kcommaaccent
ENCODING 311
SWIDTH 846 0
DWIDTH 9 0
BBX 9 14 0 -5
BITMAP
7F80
5A80
D300
DE80
D180
D580
D580
C480
CE80
7100
1600
1E00
1400
1800
ENDCHAR
STARTCHAR kgreenlandic
ENCODING 312
SWIDTH 846 0
DWIDTH 9 0
BBX 9 10 0 -1
BITMAP
7F80
5680
DB00
D280
DE80
D180
D580
D580
CC80
7700
ENDCHAR
STARTCHAR Lacute
ENCODING 313
SWIDTH 795 0
DWIDTH 9 0
BBX 9 13 0 -1
BITMAP
0E00
7E00
C200
7C00
5800
D800
DB00
D480
D580
D180
DE80
C180
7E00
ENDCHAR
STARTCHAR lacute
ENCODING 314
SWIDTH 795 0
DWIDTH 9 0
BBX 9 13 0 -1
BITMAP
0E00
7E00
C200
7C00
5800
D800
DB00
D480
D580
D180
DE80
C180
7E00
ENDCHAR
STARTCHAR Lcommaaccent
ENCODING 315
SWIDTH 795 0
DWIDTH 9 0
BBX 9 14 0 -5
BITMAP
7800
5800
D800
DB00
D480
D580
D180
DE80
FF00
7200
1600
3E00
3E00
1800
ENDCHAR
STARTCHAR lcommaaccent
ENCODING 316
SWIDTH 795 0
DWIDTH 9 0
BBX 9 14 0 -5
BITMAP
7800
5800
D800
DB00
D480
D580
D180
DE80
FF00
7200
1600
3E00
3E00
1800
ENDCHAR
STARTCHAR Lcaron
ENCODING 317
SWIDTH 795 0
DWIDTH 9 0
BBX 9 10 0 -1
BITMAP
7F80
5680
D500
D700
D480
D580
D180
DE80
C180
7E00
ENDCHAR
STARTCHAR lcaron
ENCODING 318
SWIDTH 795 0
DWIDTH 9 0
BBX 9 10 0 -1
BITMAP
7F80
5680
D500
D700
D480
D580
D180
DE80
C180
7E00
ENDCHAR
STARTCHAR Ldot
ENCODING 319
SWIDTH 795 0
DWIDTH 9 0
BBX 9 10 0 -1
BITMAP
7800
5B00
D500
D480
D700
D480
D180
DE80
C180
7E00
ENDCHAR
STARTCHAR ldot
ENCODING 320
SWIDTH 795 0
DWIDTH 9 0
BBX 9 10 0 -1
BITMAP
7800
5B00
D500
D480
D700
D480
D180
DE80
C180
7E00
ENDCHAR
STARTCHAR Lslash
ENCODING 321
SWIDTH 805 0
DWIDTH 9 0
BBX 9 10 0 -1
BITMAP
7800
5800
5400
6B00
9480
D580
D180
5E80
4080
7F00
ENDCHAR
STARTCHAR lslash
ENCODING 322
SWIDTH 805 0
DWIDTH 9 0
BBX 9 10 0 -1
BITMAP
7800
5800
5400
6B00
9480
D580
D180
5E80
4080
7F00
ENDCHAR
STARTCHAR Nacute
ENCODING 323
SWIDTH 853 0
DWIDTH 9 0
BBX 9 13 0 -1
BITMAP
0300
1F00
2100
5E80
5580
DB80
D580
DB80
DB80
DD80
DD80
CC80
7700
ENDCHAR
STARTCHAR nacute
ENCODING 324
SWIDTH 853 0
DWIDTH 9 0
BBX 9 13 0 -1
BITMAP
0300
1F00
2100
5E80
5580
DB80
D580
DB80
DB80
DD80
DD80
CC80
7700
ENDCHAR
STARTCHAR Ncommaaccent
ENCODING 325
SWIDTH 853 0
DWIDTH 9 0
BBX 9 14 0 -5
BITMAP
7F80
5580
D980
D580
DB80
DD80
DD80
CC80
CE80
7100
1600
1E00
1400
1800
ENDCHAR
STARTCHAR ncommaaccent
ENCODING 326
SWIDTH 853 0
DWIDTH 9 0
BBX 9 14 0 -5
BITMAP
7F80
5580
D980
D580
DB80
DD80
DD80
CC80
CE80
7100
1600
1E00
1400
1800
ENDCHAR
STARTCHAR Ncaron
ENCODING 327
SWIDTH 853 0
DWIDTH 9 0
BBX 9 13 0 -1
BITMAP
3F00
6F00
7200
4F80
5580
DB80
D580
DB80
DB80
DD80
DD80
CC80
7700
ENDCHAR
STARTCHAR ncaron
ENCODING 328
SWIDTH 853 0
DWIDTH 9 0
BBX 9 13 0 -1
BITMAP
3F00
6F00
7200
4F80
5580
DB80
D580
DB80
DB80
DD80
DD80
CC80
7700
ENDCHAR
STARTCHAR napostrophe
ENCODING 329
SWIDTH 853 0
DWIDTH 9 0
BBX 9 15 0 -1
BITMAP
3000
5800
C800
F800
4800
FB80
5580
DB80
D580
DB80
DB80
DD80
DD80
CC80
7700
ENDCHAR
STARTCHAR Eng
ENCODING 330
SWIDTH 846 0
DWIDTH 9 0
BBX 9 11 0 -2
BITMAP
3F00
5180
5D80
DD80
DD80
DD80
DD80
C980
CA80
F900
0E00
ENDCHAR
STARTCHAR eng
ENCODING 331
SWIDTH 846 0
DWIDTH 9 0
BBX 9 11 0 -2
BITMAP
3F00
5180
5D80
DD80
DD80
DD80
DD80
C980
CA80
F900
0E00
ENDCHAR
STARTCHAR Omacron
ENCODING 332
SWIDTH 837 0
DWIDTH 9 0
BBX 9 13 0 -1
BITMAP
1E00
2F00
6100
3F00
5180
DD80
DD80
DD80
DD80
D180
CE80
7300
3C00
ENDCHAR
STARTCHAR omacron
ENCODING 333
SWIDTH 837 0
DWIDTH 9 0
BBX 9 13 0 -1
BITMAP
1E00
2F00
6100
3F00
5180
DD80
DD80
DD80
DD80
D180
CE80
7300
3C00
ENDCHAR
STARTCHAR Obreve
ENCODING 334
SWIDTH 837 0
DWIDTH 9 0
BBX 9 14 0 -1
BITMAP
1B00
3700
6D00
7100
2F00
5180
DD80
DD80
DD80
DD80
D180
CE80
7300
3C00
ENDCHAR
STARTCHAR obreve
ENCODING 335
SWIDTH 837 0
DWIDTH 9 0
BBX 9 14 0 -1
BITMAP
1B00
3700
6D00
7100
2F00
5180
DD80
DD80
DD80
DD80
D180
CE80
7300
3C00
ENDCHAR
STARTCHAR Ohungarumlaut
ENCODING 336
SWIDTH 837 0
DWIDTH 9 0
BBX 9 15 0 -1
BITMAP
1B00
2480
2D00
2F00
6500
3F00
5180
DD80
DD80
DD80
DD80
D180
CE80
7300
3C00
ENDCHAR
STARTCHAR ohungarumlaut
ENCODING 337
SWIDTH 837 0
DWIDTH 9 0
BBX 9 15 0 -1
BITMAP
1B00
2480
2D00
2F00
6500
3F00
5180
DD80
DD80
DD80
DD80
D180
CE80
7300
3C00
ENDCHAR
STARTCHAR OE
ENCODING 338
SWIDTH 1115 0
DWIDTH 12 0
BBX 12 10 0 -1
BITMAP
3FF0
4FF0
5D60
DD10
DDD0
DD60
D570
CFF0
7010
7FE0
ENDCHAR
STARTCHAR oe
ENCODING 339
SWIDTH 1115 0
DWIDTH 12 0
BBX 12 10 0 -1
BITMAP
3FF0
4FF0
5D60
DD10
DDD0
DD60
D570
CFF0
7010
7FE0
ENDCHAR
STARTCHAR Racute
ENCODING 340
SWIDTH 843 0
DWIDTH 9 0
BBX 9 13 0 -1
BITMAP
0700
3F00
6100
5F00
5C80
D680
D680
DE80
D180
D580
D580
CE80
7700
ENDCHAR
STARTCHAR racute
ENCODING 341
SWIDTH 843 0
DWIDTH 9 0
BBX 9 13 0 -1
BITMAP
0700
3F00
6100
5F00
5C80
D680
D680
DE80
D180
D580
D580
CE80
7700
ENDCHAR
STARTCHAR Rcommaaccent
ENCODING 342
SWIDTH 843 0
DWIDTH 9 0
BBX 9 14 0 -5
BITMAP
7F00
5280
D680
D680
DE80
D180
D580
D580
CE80
7500
1200
1E00
1400
1800
ENDCHAR
STARTCHAR rcommaaccent
ENCODING 343
SWIDTH 843 0
DWIDTH 9 0
BBX 9 14 0 -5
BITMAP
7F00
5280
D680
D680
DE80
D180
D580
D580
CE80
7500
1200
1E00
1400
1800
ENDCHAR
STARTCHAR Rcaron
ENCODING 344
SWIDTH 843 0
DWIDTH 9 0
BBX 9 14 0 -1
BITMAP
1000
2F00
2F00
7200
4D00
5C80
D680
D680
DE80
D180
D580
D580
CE80
7700
ENDCHAR
STARTCHAR rcaron
ENCODING 345
SWIDTH 843 0
DWIDTH 9 0
BBX 9 14 0 -1
BITMAP
1000
2F00
2F00
7200
4D00
5C80
D680
D680
DE80
D180
D580
D580
CE80
7700
ENDCHAR
STARTCHAR Sacute
ENCODING 346
SWIDTH 750 0
DWIDTH 8 0
BBX 8 13 0 -1
BITMAP
02
3D
61
7F
4F
5E
D1
CD
FB
43
DD
C2
FC
ENDCHAR
STARTCHAR sacute
ENCODING 347
SWIDTH 750 0
DWIDTH 8 0
BBX 8 13 0 -1
BITMAP
02
3D
61
7F
4F
5E
D1
CD
FB
43
DD
C2
FC
ENDCHAR
STARTCHAR Scircumflex
ENCODING 348
SWIDTH 750 0
DWIDTH 8 0
BBX 8 14 0 -1
BITMAP
08
3F
21
7F
61
4F
5E
D1
CD
FB
43
DD
C2
FC
ENDCHAR
STARTCHAR scircumflex
ENCODING 349
SWIDTH 750 0
DWIDTH 8 0
BBX 8 14 0 -1
BITMAP
08
3F
21
7F
61
4F
5E
D1
CD
FB
43
DD
C2
FC
ENDCHAR
STARTCHAR Scedilla
ENCODING 350
SWIDTH 750 0
DWIDTH 8 0
BBX 8 11 0 -2
BITMAP
3F
4F
DE
D1
CD
FB
43
DD
DA
E4
38
ENDCHAR
STARTCHAR scedilla
ENCODING 351
SWIDTH 750 0
DWIDTH 8 0
BBX 8 11 0 -2
BITMAP
3F
4F
DE
D1
CD
FB
43
DD
DA
E4
38
ENDCHAR
STARTCHAR Scaron
ENCODING 352
SWIDTH 750 0
DWIDTH 8 0
BBX 8 14 0 -1
BITMAP
30
2F
6D
76
69
4F
DE
D1
CD
FB
43
DD
C2
FC
ENDCHAR
STARTCHAR scaron
ENCODING 353
SWIDTH 750 0
DWIDTH 8 0
BBX 8 14 0 -1
BITMAP
30
2F
6D
76
69
4F
DE
D1
CD
FB
43
DD
C2
FC
ENDCHAR
STARTCHAR Tcommaaccent
ENCODING 354
SWIDTH 756 0
DWIDTH 8 0
BBX 8 14 0 -5
BITMAP
7F
C9
FB
3A
3A
3A
3A
32
3C
3A
34
3C
3C
38
ENDCHAR
STARTCHAR tcommaaccent
ENCODING 355
SWIDTH 756 0
DWIDTH 8 0
BBX 8 14 0 -5
BITMAP
7F
C9
FB
3A
3A
3A
3A
32
3C
3A
34
3C
3C
38
ENDCHAR
STARTCHAR Tcaron
ENCODING 356
SWIDTH 756 0
DWIDTH 8 0
BBX 8 14 0 -1
BITMAP
20
3F
6D
76
49
DF
FB
3A
3A
3A
3A
32
36
38
ENDCHAR
STARTCHAR tcaron
ENCODING 357
SWIDTH 756 0
DWIDTH 8 0
BBX 8 14 0 -1
BITMAP
20
3F
6D
76
49
DF
FB
3A
3A
3A
3A
32
36
38
ENDCHAR
STARTCHAR Tbar
ENCODING 358
SWIDTH 756 0
DWIDTH 8 0
BBX 8 10 0 -1
BITMAP
7F
DF
FB
3A
5D
49
7A
32
36
38
ENDCHAR
STARTCHAR tbar
ENCODING 359
SWIDTH 756 0
DWIDTH 8 0
BBX 8 10 0 -1
BITMAP
7F
DF
FB
3A
5D
49
7A
32
36
38
ENDCHAR
STARTCHAR Utilde
ENCODING 360
SWIDTH 846 0
DWIDTH 9 0
BBX 9 14 0 -1
BITMAP
1B00
2D00
2300
2100
5E80
5D80
DD80
DD80
DD80
DD80
D180
CE80
7300
3C00
ENDCHAR
STARTCHAR utilde
ENCODING 361
SWIDTH 846 0
DWIDTH 9 0
BBX 9 14 0 -1
BITMAP
1B00
2D00
2300
2100
5E80
5D80
DD80
DD80
DD80
DD80
D180
CE80
7300
3C00
ENDCHAR
STARTCHAR Umacron
ENCODING 362
SWIDTH 846 0
DWIDTH 9 0
BBX 9 13 0 -1
BITMAP
1F00
2F00
2100
5E80
5D80
DD80
DD80
DD80
DD80
D180
CE80
7300
3C00
ENDCHAR
STARTCHAR umacron
ENCODING 363
SWIDTH 846 0
DWIDTH 9 0
BBX 9 13 0 -1
BITMAP
1F00
2F00
2100
5E80
5D80
DD80
DD80
DD80
DD80
D180
CE80
7300
3C00
ENDCHAR
STARTCHAR Ubreve
ENCODING 364
SWIDTH 846 0
DWIDTH 9 0
BBX 9 14 0 -1
BITMAP
1B00
3700
6D00
7100
4E80
5D80
DD80
DD80
DD80
DD80
D180
CE80
7300
3C00
ENDCHAR
STARTCHAR ubreve
ENCODING 365
SWIDTH 846 0
DWIDTH 9 0
BBX 9 14 0 -1
BITMAP
1B00
3700
6D00
7100
4E80
5D80
DD80
DD80
DD80
DD80
D180
CE80
7300
3C00
ENDCHAR
STARTCHAR Uring
ENCODING 366
SWIDTH 846 0
DWIDTH 9 0
BBX 9 16 0 -1
BITMAP
0600
1D00
3700
7300
6D00
7100
4E80
5D80
DD80
DD80
DD80
DD80
D580
CE80
7300
3C00
ENDCHAR
STARTCHAR uring
ENCODING 367
SWIDTH 846 0
DWIDTH 9 0
BBX 9 16 0 -1
BITMAP
0600
1D00
3700
7300
6D00
7100
4E80
5D80
DD80
DD80
DD80
DD80
D580
CE80
7300
3C00
ENDCHAR
STARTCHAR Uhungarumlaut
ENCODING 368
SWIDTH 846 0
DWIDTH 9 0
BBX 9 15 0 -1
BITMAP
0B00
1480
2D00
2F00
2500
5E80
5D80
DD80
DD80
DD80
DD80
D180
CE80
7300
3C00
ENDCHAR
STARTCHAR uhungarumlaut
ENCODING 369
SWIDTH 846 0
DWIDTH 9 0
BBX 9 15 0 -1
BITMAP
0B00
1480
2D00
2F00
2500
5E80
5D80
DD80
DD80
DD80
DD80
D180
CE80
7300
3C00
ENDCHAR
STARTCHAR Uogonek
ENCODING 370
SWIDTH 846 0
DWIDTH 9 0
BBX 9 12 0 -3
BITMAP
7B80
5D80
DD80
DD80
DD80
DD80
D180
CE80
7700
7500
1100
1E00
ENDCHAR
STARTCHAR uogonek
ENCODING 371
SWIDTH 846 0
DWIDTH 9 0
BBX 9 12 0 -3
BITMAP
7B80
5D80
DD80
DD80
DD80
DD80
D180
CE80
7700
7500
1100
1E00
ENDCHAR
STARTCHAR Wcircumflex
ENCODING 372
SWIDTH 931 0
DWIDTH 10 0
BBX 10 14 0 -1
BITMAP
0400
1F80
1080
3F00
4EC0
DAC0
DEC0
D9C0
DDC0
D6C0
DD40
5540
6E80
7700
ENDCHAR
STARTCHAR wcircumflex
ENCODING 373
SWIDTH 931 0
DWIDTH 10 0
BBX 10 14 0 -1
BITMAP
0400
1F80
1080
3F00
4EC0
DAC0
DEC0
D9C0
DDC0
D6C0
DD40
5540
6E80
7700
ENDCHAR
STARTCHAR Ycircumflex
ENCODING 374
SWIDTH 805 0
DWIDTH 9 0
BBX 9 14 0 -1
BITMAP
0400
3F00
2100
7F00
4C80
D580
D580
DD80
D280
6D00
7600
3600
3600
3800
ENDCHAR
STARTCHAR ycircumflex
ENCODING 375
SWIDTH 805 0
DWIDTH 9 0
BBX 9 14 0 -1
BITMAP
0400
3F00
2100
7F00
4C80
D580
D580
DD80
D280
6D00
7600
3600
3600
3800
ENDCHAR
STARTCHAR Ydieresis
ENCODING 376
SWIDTH 805 0
DWIDTH 9 0
BBX 9 13 0 -1
BITMAP
1F00
3700
6500
5E80
D580
D580
DD80
D280
6D00
7600
3600
3600
3800
ENDCHAR
STARTCHAR Zacute
ENCODING 377
SWIDTH 760 0
DWIDTH 8 0
BBX 8 13 0 -1
BITMAP
02
3D
61
5F
DF
F3
15
2A
4C
57
DF
C1
FE
ENDCHAR
STARTCHAR zacute
ENCODING 378
SWIDTH 760 0
DWIDTH 8 0
BBX 8 13 0 -1
BITMAP
02
3D
61
5F
DF
F3
15
2A
4C
57
DF
C1
FE
ENDCHAR
STARTCHAR Zdotaccent
ENCODING 379
SWIDTH 760 0
DWIDTH 8 0
BBX 8 14 0 -1
BITMAP
0C
12
3A
32
4D
DF
F3
15
2A
4C
57
DF
C1
FE
ENDCHAR
STARTCHAR zdotaccent
ENCODING 380
SWIDTH 760 0
DWIDTH 8 0
BBX 8 14 0 -1
BITMAP
0C
12
3A
32
4D
DF
F3
15
2A
4C
57
DF
C1
FE
ENDCHAR
STARTCHAR Zcaron
ENCODING 381
SWIDTH 760 0
DWIDTH 8 0
BBX 8 14 0 -1
BITMAP
20
3F
6D
76
49
DF
F3
15
2A
4C
57
DF
C1
FE
ENDCHAR
STARTCHAR zcaron
ENCODING 382
SWIDTH 760 0
DWIDTH 8 0
BBX 8 14 0 -1
BITMAP
20
3F
6D
76
49
DF
F3
15
2A
4C
57
DF
C1
FE
ENDCHAR
STARTCHAR Schwa
ENCODING 399
SWIDTH 815 0
DWIDTH 9 0
BBX 9 10 0 -1
BITMAP
3F00
6180
7D80
4180
5E80
DD80
D180
CE80
F300
7C00
ENDCHAR
STARTCHAR florin
ENCODING 402
SWIDTH 674 0
DWIDTH 7 0
BBX 7 10 0 -1
BITMAP
0E
16
2A
6A
DE
EA
CC
D4
C8
F0
ENDCHAR
STARTCHAR Ohorn
ENCODING 416
SWIDTH 847 0
DWIDTH 9 0
BBX 9 12 0 -1
BITMAP
0080
0180
3F80
5180
5D80
DD80
DD80
DD80
D180
CE80
7300
7C00
ENDCHAR
STARTCHAR ohorn
ENCODING 417
SWIDTH 847 0
DWIDTH 9 0
BBX 9 12 0 -1
BITMAP
0080
0180
3F80
5180
5D80
DD80
DD80
DD80
D180
CE80
7300
7C00
ENDCHAR
STARTCHAR Uhorn
ENCODING 431
SWIDTH 856 0
DWIDTH 9 0
BBX 10 12 0 -1
BITMAP
0080
0340
7CC0
DD80
DD80
DD80
DD80
DD80
D180
CE80
7300
7C00
ENDCHAR
STARTCHAR uhorn
ENCODING 432
SWIDTH 856 0
DWIDTH 9 0
BBX 10 12 0 -1
BITMAP
0080
0340
7CC0
DD80
DD80
DD80
DD80
DD80
D180
CE80
7300
7C00
ENDCHAR
STARTCHAR Acaron
ENCODING 461
SWIDTH 830 0
DWIDTH 9 0
BBX 9 14 0 -1
BITMAP
1000
2F00
6F00
7A00
2500
2D00
3680
5D80
5180
DF80
D180
DD80
DC80
E700
ENDCHAR
STARTCHAR acaron
ENCODING 462
SWIDTH 830 0
DWIDTH 9 0
BBX 9 14 0 -1
BITMAP
1000
2F00
6F00
7A00
2500
2D00
3680
5D80
5180
DF80
D180
DD80
DC80
E700
ENDCHAR
STARTCHAR Icaron
ENCODING 463
SWIDTH 705 0
DWIDTH 8 0
BBX 7 14 0 -1
BITMAP
20
5E
5E
76
4A
DE
EA
EA
2C
2C
2A
5E
C2
FC
ENDCHAR
STARTCHAR icaron
ENCODING 464
SWIDTH 705 0
DWIDTH 8 0
BBX 7 14 0 -1
BITMAP
20
5E
5E
76
4A
DE
EA
EA
2C
2C
2A
5E
C2
FC
ENDCHAR
STARTCHAR Ocaron
ENCODING 465
SWIDTH 837 0
DWIDTH 9 0
BBX 9 14 0 -1
BITMAP
1000
2F00
6F00
7200
2F00
5180
DD80
DD80
DD80
DD80
D180
CE80
7300
3C00
ENDCHAR
STARTCHAR ocaron
ENCODING 466
SWIDTH 837 0
DWIDTH 9 0
BBX 9 14 0 -1
BITMAP
1000
2F00
6F00
7200
2F00
5180
DD80
DD80
DD80
DD80
D180
CE80
7300
3C00
ENDCHAR
STARTCHAR Ucaron
ENCODING 467
SWIDTH 846 0
DWIDTH 9 0
BBX 9 13 0 -1
BITMAP
3F00
2F00
3200
4D80
DD80
DD80
DD80
DD80
DD80
D180
CE80
7300
3C00
ENDCHAR
STARTCHAR ucaron
ENCODING 468
SWIDTH 846 0
DWIDTH 9 0
BBX 9 13 0 -1
BITMAP
3F00
2F00
3200
4D80
DD80
DD80
DD80
DD80
DD80
D180
CE80
7300
3C00
ENDCHAR
STARTCHAR Udieresismacron
ENCODING 469
SWIDTH 846 0
DWIDTH 9 0
BBX 9 16 0 -1
BITMAP
1F00
2F00
3E00
6500
3700
6500
5E80
DD80
DD80
DD80
DD80
DD80
D180
CE80
7300
3C00
ENDCHAR
STARTCHAR udieresismacron
ENCODING 470
SWIDTH 846 0
DWIDTH 9 0
BBX 9 16 0 -1
BITMAP
1F00
2F00
3E00
6500
3700
6500
5E80
DD80
DD80
DD80
DD80
DD80
D180
CE80
7300
3C00
ENDCHAR
STARTCHAR Udieresisacute
ENCODING 471
SWIDTH 846 0
DWIDTH 9 0
BBX 9 16 0 -1
BITMAP
0E00
1E00
1900
2B00
7700
6500
5E80
DD80
DD80
DD80
DD80
DD80
D180
CE80
7300
3C00
ENDCHAR
STARTCHAR udieresisacute
ENCODING 472
SWIDTH 846 0
DWIDTH 9 0
BBX 9 16 0 -1
BITMAP
0E00
1E00
1900
2B00
7700
6500
5E80
DD80
DD80
DD80
DD80
DD80
D180
CE80
7300
3C00
ENDCHAR
STARTCHAR Udieresiscaron
ENCODING 473
SWIDTH 846 0
DWIDTH 9 0
BBX 9 17 0 -1
BITMAP
1000
2F00
2F00
3F00
2500
7700
6500
5E80
DD80
DD80
DD80
DD80
DD80
D180
CE80
7300
3C00
ENDCHAR
STARTCHAR udieresiscaron
ENCODING 474
SWIDTH 846 0
DWIDTH 9 0
BBX 9 17 0 -1
BITMAP
1000
2F00
2F00
3F00
2500
7700
6500
5E80
DD80
DD80
DD80
DD80
DD80
D180
CE80
7300
3C00
ENDCHAR
STARTCHAR Udieresisgrave
ENCODING 475
SWIDTH 846 0
DWIDTH 9 0
BBX 9 16 0 -1
BITMAP
1C00
1C00
1300
2B00
7700
6500
5E80
DD80
DD80
DD80
DD80
DD80
D180
CE80
7300
3C00
ENDCHAR
STARTCHAR udieresisgrave
ENCODING 476
SWIDTH 846 0
DWIDTH 9 0
BBX 9 16 0 -1
BITMAP
1C00
1C00
1300
2B00
7700
6500
5E80
DD80
DD80
DD80
DD80
DD80
D180
CE80
7300
3C00
ENDCHAR
STARTCHAR Gcaron
ENCODING 486
SWIDTH 808 0
DWIDTH 9 0
BBX 9 14 0 -1
BITMAP
1000
2F00
6D00
7A00
2500
4F00
5E00
DB00
DC80
DD80
D180
CE80
7180
7E00
ENDCHAR
STARTCHAR gcaron
ENCODING 487
SWIDTH 808 0
DWIDTH 9 0
BBX 9 14 0 -1
BITMAP
1000
2F00
6D00
7A00
2500
4F00
5E00
DB00
DC80
DD80
D180
CE80
7180
7E00
ENDCHAR
STARTCHAR Scommaaccent
ENCODING 536
SWIDTH 750 0
DWIDTH 8 0
BBX 8 14 0 -5
BITMAP
3F
51
DE
D9
C7
FB
43
DD
FE
FA
34
3C
3C
38
ENDCHAR
STARTCHAR scommaaccent
ENCODING 537
SWIDTH 750 0
DWIDTH 8 0
BBX 8 14 0 -5
BITMAP
3F
51
DE
D9
C7
FB
43
DD
FE
FA
34
3C
3C
38
ENDCHAR
STARTCHAR uni021A
ENCODING 538
SWIDTH 756 0
DWIDTH 8 0
BBX 8 14 0 -5
BITMAP
7F
C9
FB
3A
3A
3A
3A
32
3C
3A
34
3C
3C
38
ENDCHAR
STARTCHAR uni021B
ENCODING 539
SWIDTH 756 0
DWIDTH 8 0
BBX 8 14 0 -5
BITMAP
7F
C9
FB
3A
3A
3A
3A
32
3C
3A
34
3C
3C
38
ENDCHAR
STARTCHAR dotlessj
ENCODING 567
SWIDTH 788 0
DWIDTH 9 0
BBX 8 10 0 -1
BITMAP
07
0F
0F
3F
4F
EF
D3
CD
F2
7C
ENDCHAR
STARTCHAR ascript
ENCODING 593
SWIDTH 846 0
DWIDTH 9 0
BBX 9 10 0 -1
BITMAP
3F00
5180
5D80
DD80
DD80
DD80
D180
CF80
7080
7F00
ENDCHAR
STARTCHAR schwa
ENCODING 601
SWIDTH 815 0
DWIDTH 9 0
BBX 9 10 0 -1
BITMAP
3F00
6180
7D80
4180
5E80
DD80
D180
CE80
F300
7C00
ENDCHAR
STARTCHAR gscript
ENCODING 609
SWIDTH 815 0
DWIDTH 9 0
BBX 9 11 0 -2
BITMAP
3F00
4E80
5D80
DD80
D180
EE80
7D80
2180
6C80
6100
7E00
ENDCHAR
STARTCHAR commaturnedmod
ENCODING 699
SWIDTH 600 0
DWIDTH 7 0
BBX 4 5 1 4
BITMAP
30
50
F0
D0
F0
ENDCHAR
STARTCHAR apostrophemod
ENCODING 700
SWIDTH 600 0
DWIDTH 7 0
BBX 4 6 1 4
BITMAP
30
70
D0
F0
F0
E0
ENDCHAR
STARTCHAR ringhalfright
ENCODING 702
SWIDTH 412 0
DWIDTH 5 0
BBX 4 5 0 4
BITMAP
70
D0
F0
70
E0
ENDCHAR
STARTCHAR ringhalfleft
ENCODING 703
SWIDTH 412 0
DWIDTH 5 0
BBX 4 5 0 4
BITMAP
70
D0
D0
D0
F0
ENDCHAR
STARTCHAR circumflex
ENCODING 710
SWIDTH 600 0
DWIDTH 7 0
BBX 6 5 0 7
BITMAP
28
5C
C4
FC
88
ENDCHAR
STARTCHAR caron
ENCODING 711
SWIDTH 600 0
DWIDTH 7 0
BBX 6 4 0 8
BITMAP
7C
DC
E4
F8
ENDCHAR
STARTCHAR verticallinemod
ENCODING 712
SWIDTH 456 0
DWIDTH 5 0
BBX 5 6 0 3
BITMAP
78
D8
D8
C8
C8
F0
ENDCHAR
STARTCHAR firsttonechinese
ENCODING 713
SWIDTH 600 0
DWIDTH 7 0
BBX 6 4 0 8
BITMAP
3C
44
DC
FC
ENDCHAR
STARTCHAR secondtonechinese
ENCODING 714
SWIDTH 600 0
DWIDTH 7 0
BBX 6 4 0 8
BITMAP
2C
5C
C4
F8
ENDCHAR
STARTCHAR fourthtonechinese
ENCODING 715
SWIDTH 600 0
DWIDTH 7 0
BBX 6 4 0 8
BITMAP
70
5C
E4
FC
ENDCHAR
STARTCHAR verticallinelowmod
ENCODING 716
SWIDTH 456 0
DWIDTH 5 0
BBX 5 6 0 -2
BITMAP
78
D8
D8
C8
C8
F0
ENDCHAR
STARTCHAR breve
ENCODING 728
SWIDTH 600 0
DWIDTH 7 0
BBX 7 4 0 8
BITMAP
24
7E
DE
F8
ENDCHAR
STARTCHAR dotaccent
ENCODING 729
SWIDTH 600 0
DWIDTH 7 0
BBX 4 4 1 8
BITMAP
30
50
D0
F0
ENDCHAR
STARTCHAR ring
ENCODING 730
SWIDTH 600 0
DWIDTH 7 0
BBX 7 6 0 8
BITMAP
3C
5A
FE
E6
DE
F8
ENDCHAR
STARTCHAR ogonek
ENCODING 731
SWIDTH 600 0
DWIDTH 7 0
BBX 5 5 1 -3
BITMAP
30
70
F8
C8
F0
ENDCHAR
STARTCHAR tilde
ENCODING 732
SWIDTH 600 0
DWIDTH 7 0
BBX 6 4 0 8
BITMAP
24
5C
C4
F8
ENDCHAR
STARTCHAR hungarumlaut
ENCODING 733
SWIDTH 600 0
DWIDTH 7 0
BBX 7 5 0 8
BITMAP
36
4A
B4
92
FC
ENDCHAR
STARTCHAR gravecmb
ENCODING 768
SWIDTH 100 0
DWIDTH 1 0
BBX 7 4 -3 8
BITMAP
70
5E
E2
FC
ENDCHAR
STARTCHAR acutecmb
ENCODING 769
SWIDTH 100 0
DWIDTH 1 0
BBX 7 4 -3 8
BITMAP
2E
5E
C4
F8
ENDCHAR
STARTCHAR circumflexcmb
ENCODING 770
SWIDTH 100 0
DWIDTH 1 0
BBX 7 5 -3 7
BITMAP
08
7E
42
FC
88
ENDCHAR
STARTCHAR tildecmb
ENCODING 771
SWIDTH 100 0
DWIDTH 1 0
BBX 7 4 -3 8
BITMAP
32
5E
C2
FC
ENDCHAR
STARTCHAR uni0304
ENCODING 772
SWIDTH 600 0
DWIDTH 7 0
BBX 6 4 0 8
BITMAP
3C
44
DC
FC
ENDCHAR
STARTCHAR brevecmb
ENCODING 774
SWIDTH 100 0
DWIDTH 1 0
BBX 7 4 -3 8
BITMAP
36
6E
DA
FC
ENDCHAR
STARTCHAR dotaccentcmb
ENCODING 775
SWIDTH 100 0
DWIDTH 1 0
BBX 5 4 -2 8
BITMAP
30
58
C8
F0
ENDCHAR
STARTCHAR dieresiscmb
ENCODING 776
SWIDTH 100 0
DWIDTH 1 0
BBX 7 4 -3 8
BITMAP
36
6E
CA
FC
ENDCHAR
STARTCHAR hookcmb
ENCODING 777
SWIDTH 100 0
DWIDTH 1 0
BBX 5 5 -2 8
BITMAP
38
58
F8
68
70
ENDCHAR
STARTCHAR ringcmb
ENCODING 778
SWIDTH 100 0
DWIDTH 1 0
BBX 7 6 -3 8
BITMAP
3C
5A
6E
E6
DA
FC
ENDCHAR
STARTCHAR hungarumlautcmb
ENCODING 779
SWIDTH 100 0
DWIDTH 1 0
BBX 7 5 -3 8
BITMAP
36
4A
5E
4A
FC
ENDCHAR
STARTCHAR caroncmb
ENCODING 780
SWIDTH 100 0
DWIDTH 1 0
BBX 7 4 -3 8
BITMAP
7E
DE
E4
78
ENDCHAR
STARTCHAR horncmb
ENCODING 795
SWIDTH 100 0
DWIDTH 1 0
BBX 4 4 -2 6
BITMAP
30
50
70
E0
ENDCHAR
STARTCHAR dotbelowcmb
ENCODING 803
SWIDTH 100 0
DWIDTH 1 0
BBX 5 4 -2 -4
BITMAP
30
58
C8
F0
ENDCHAR
STARTCHAR dieresisbelowcmb
ENCODING 804
SWIDTH 100 0
DWIDTH 1 0
BBX 7 4 -3 -3
BITMAP
36
6E
CA
FC
ENDCHAR
STARTCHAR commaaccent
ENCODING 806
SWIDTH 600 0
DWIDTH 7 0
BBX 4 6 1 -5
BITMAP
30
70
D0
F0
F0
E0
ENDCHAR
STARTCHAR cedillacmb
ENCODING 807
SWIDTH 100 0
DWIDTH 1 0
BBX 5 4 -2 -3
BITMAP
38
50
48
F0
ENDCHAR
STARTCHAR ogonekcmb
ENCODING 808
SWIDTH 100 0
DWIDTH 1 0
BBX 4 5 -1 -3
BITMAP
60
A0
B0
90
E0
ENDCHAR
STARTCHAR brevebelowcmb
ENCODING 814
SWIDTH 100 0
DWIDTH 1 0
BBX 7 4 -3 -4
BITMAP
36
6E
DA
FC
ENDCHAR
STARTCHAR macronbelowcmb
ENCODING 817
SWIDTH 100 0
DWIDTH 1 0
BBX 7 4 -3 -4
BITMAP
3C
42
DE
FC
ENDCHAR
STARTCHAR uni0394
ENCODING 916
SWIDTH 830 0
DWIDTH 9 0
BBX 9 10 0 -1
BITMAP
1F00
2D00
3300
7680
5500
5D80
5D80
DF80
C080
FF00
ENDCHAR
STARTCHAR uni03A9
ENCODING 937
SWIDTH 877 0
DWIDTH 10 0
BBX 10 10 0 -1
BITMAP
1F00
2E80
5540
5540
5540
5540
5580
5F40
C440
FF80
ENDCHAR
STARTCHAR uni03BC
ENCODING 956
SWIDTH 813 0
DWIDTH 9 0
BBX 9 10 0 -2
BITMAP
3300
4C80
DD80
DD80
DD80
D580
DE80
D100
FE00
E000
ENDCHAR
STARTCHAR pi
ENCODING 960
SWIDTH 821 0
DWIDTH 9 0
BBX 9 8 0 -1
BITMAP
7F80
DF80
DD80
DD80
DD80
DD80
CC80
FF00
ENDCHAR
STARTCHAR Ddotbelow
ENCODING 7692
SWIDTH 846 0
DWIDTH 9 0
BBX 9 13 0 -4
BITMAP
7F00
5E80
D180
D580
D580
D580
D580
DE80
FF00
7200
1600
1200
1C00
ENDCHAR
STARTCHAR ddotbelow
ENCODING 7693
SWIDTH 846 0
DWIDTH 9 0
BBX 9 13 0 -4
BITMAP
7F00
5E80
D180
D580
D580
D580
D580
DE80
FF00
7200
1600
1200
1C00
ENDCHAR
STARTCHAR Dlinebelow
ENCODING 7694
SWIDTH 846 0
DWIDTH 9 0
BBX 9 12 0 -3
BITMAP
7F80
5E80
D180
D580
D580
D580
D580
DE80
FF00
6100
2F00
7E00
ENDCHAR
STARTCHAR dlinebelow
ENCODING 7695
SWIDTH 846 0
DWIDTH 9 0
BBX 9 12 0 -3
BITMAP
7F80
5E80
D180
D580
D580
D580
D580
DE80
FF00
6100
2F00
7E00
ENDCHAR
STARTCHAR Gmacron
ENCODING 7712
SWIDTH 808 0
DWIDTH 9 0
BBX 9 13 0 -1
BITMAP
1F00
2F00
2100
3F00
4F00
5E00
DB00
DC80
DD80
D180
CE80
7180
7E00
ENDCHAR
STARTCHAR gmacron
ENCODING 7713
SWIDTH 808 0
DWIDTH 9 0
BBX 9 13 0 -1
BITMAP
1F00
2F00
2100
3F00
4F00
5E00
DB00
DC80
DD80
D180
CE80
7180
7E00
ENDCHAR
STARTCHAR Hdotbelow
ENCODING 7716
SWIDTH 859 0
DWIDTH 9 0
BBX 9 13 0 -4
BITMAP
7B80
5580
D580
D180
DF80
D180
D580
D580
CE80
7100
1600
1200
1C00
ENDCHAR
STARTCHAR hdotbelow
ENCODING 7717
SWIDTH 859 0
DWIDTH 9 0
BBX 9 13 0 -4
BITMAP
7B80
5580
D580
D180
DF80
D180
D580
D580
CE80
7100
1600
1200
1C00
ENDCHAR
STARTCHAR Hbrevebelow
ENCODING 7722
SWIDTH 859 0
DWIDTH 9 0
BBX 9 13 0 -4
BITMAP
7B80
5580
D580
D180
DF80
D580
D580
D580
FF80
6500
2F00
3E00
3C00
ENDCHAR
STARTCHAR hbrevebelow
ENCODING 7723
SWIDTH 859 0
DWIDTH 9 0
BBX 9 13 0 -4
BITMAP
7B80
5580
D580
D180
DF80
D580
D580
D580
FF80
6500
2F00
3E00
3C00
ENDCHAR
STARTCHAR Ldotbelow
ENCODING 7734
SWIDTH 795 0
DWIDTH 9 0
BBX 9 13 0 -4
BITMAP
7800
5800
D800
DB00
D480
D580
D180
DE80
FF00
7200
1600
3200
3C00
ENDCHAR
STARTCHAR ldotbelow
ENCODING 7735
SWIDTH 795 0
DWIDTH 9 0
BBX 9 13 0 -4
BITMAP
7800
5800
D800
DB00
D480
D580
D180
DE80
FF00
7200
1600
3200
3C00
ENDCHAR
STARTCHAR Ldotbelowmacron
ENCODING 7736
SWIDTH 795 0
DWIDTH 9 0
BBX 9 16 0 -4
BITMAP
1E00
2D00
6100
5E00
5800
D800
DB00
D480
D580
D180
DE80
FF00
7200
1600
3200
3C00
ENDCHAR
STARTCHAR ldotbelowmacron
ENCODING 7737
SWIDTH 795 0
DWIDTH 9 0
BBX 9 16 0 -4
BITMAP
1E00
2D00
6100
5E00
5800
D800
DB00
D480
D580
D180
DE80
FF00
7200
1600
3200
3C00
ENDCHAR
STARTCHAR Llinebelow
ENCODING 7738
SWIDTH 795 0
DWIDTH 9 0
BBX 9 12 0 -3
BITMAP
7800
5800
D800
DB00
D480
D580
D180
DE80
FF00
6D00
6100
7E00
ENDCHAR
STARTCHAR llinebelow
ENCODING 7739
SWIDTH 795 0
DWIDTH 9 0
BBX 9 12 0 -3
BITMAP
7800
5800
D800
DB00
D480
D580
D180
DE80
FF00
6D00
6100
7E00
ENDCHAR
STARTCHAR Mdotbelow
ENCODING 7746
SWIDTH 949 0
DWIDTH 10 0
BBX 10 13 0 -4
BITMAP
7BC0
56C0
D9C0
D7C0
D9C0
DEC0
DAC0
CA40
DE40
6980
1D00
1900
1E00
ENDCHAR
STARTCHAR mdotbelow
ENCODING 7747
SWIDTH 949 0
DWIDTH 10 0
BBX 10 13 0 -4
BITMAP
7BC0
56C0
D9C0
D7C0
D9C0
DEC0
DAC0
CA40
DE40
6980
1D00
1900
1E00
ENDCHAR
STARTCHAR Ndotaccent
ENCODING 7748
SWIDTH 853 0
DWIDTH 9 0
BBX 9 14 0 -1
BITMAP
0E00
1200
1600
1200
6D80
5580
DB80
D580
DB80
DB80
DD80
DD80
CC80
7700
ENDCHAR
STARTCHAR ndotaccent
ENCODING 7749
SWIDTH 853 0
DWIDTH 9 0
BBX 9 14 0 -1
BITMAP
0E00
1200
1600
1200
6D80
5580
DB80
D580
DB80
DB80
DD80
DD80
CC80
7700
ENDCHAR
STARTCHAR Ndotbelow
ENCODING 7750
SWIDTH 853 0
DWIDTH 9 0
BBX 9 13 0 -4
BITMAP
7B80
5580
DB80
D580
DB80
DB80
DD80
DD80
CE80
7100
1600
1200
1C00
ENDCHAR
STARTCHAR ndotbelow
ENCODING 7751
SWIDTH 853 0
DWIDTH 9 0
BBX 9 13 0 -4
BITMAP
7B80
5580
DB80
D580
DB80
DB80
DD80
DD80
CE80
7100
1600
1200
1C00
ENDCHAR
STARTCHAR Nlinebelow
ENCODING 7752
SWIDTH 853 0
DWIDTH 9 0
BBX 9 12 0 -3
BITMAP
7B80
5580
DB80
D580
DB80
DB80
DD80
DD80
FF80
6F00
2100
3E00
ENDCHAR
STARTCHAR nlinebelow
ENCODING 7753
SWIDTH 853 0
DWIDTH 9 0
BBX 9 12 0 -3
BITMAP
7B80
5580
DB80
D580
DB80
DB80
DD80
DD80
FF80
6F00
2100
3E00
ENDCHAR
STARTCHAR Rdotbelow
ENCODING 7770
SWIDTH 843 0
DWIDTH 9 0
BBX 9 13 0 -4
BITMAP
7F00
5C80
D680
D680
DE80
D180
D580
D580
CE80
7100
1600
1200
1C00
ENDCHAR
STARTCHAR rdotbelow
ENCODING 7771
SWIDTH 843 0
DWIDTH 9 0
BBX 9 13 0 -4
BITMAP
7F00
5C80
D680
D680
DE80
D180
D580
D580
CE80
7100
1600
1200
1C00
ENDCHAR
STARTCHAR Rdotbelowmacron
ENCODING 7772
SWIDTH 843 0
DWIDTH 9 0
BBX 9 16 0 -4
BITMAP
1E00
2D00
6100
5F00
5C80
D680
D680
DE80
D180
D580
D580
CE80
7100
1600
1200
1C00
ENDCHAR
STARTCHAR rdotbelowmacron
ENCODING 7773
SWIDTH 843 0
DWIDTH 9 0
BBX 9 16 0 -4
BITMAP
1E00
2D00
6100
5F00
5C80
D680
D680
DE80
D180
D580
D580
CE80
7100
1600
1200
1C00
ENDCHAR
STARTCHAR Rlinebelow
ENCODING 7774
SWIDTH 843 0
DWIDTH 9 0
BBX 9 12 0 -3
BITMAP
7F00
5280
D680
D680
DE80
D180
D580
C480
FF80
6F00
2100
3E00
ENDCHAR
STARTCHAR rlinebelow
ENCODING 7775
SWIDTH 843 0
DWIDTH 9 0
BBX 9 12 0 -3
BITMAP
7F00
5280
D680
D680
DE80
D180
D580
C480
FF80
6F00
2100
3E00
ENDCHAR
STARTCHAR Sdotaccent
ENCODING 7776
SWIDTH 750 0
DWIDTH 8 0
BBX 8 14 0 -1
BITMAP
0C
12
3A
32
2D
4F
DE
D1
CD
FB
43
DD
C2
FC
ENDCHAR
STARTCHAR sdotaccent
ENCODING 7777
SWIDTH 750 0
DWIDTH 8 0
BBX 8 14 0 -1
BITMAP
0C
12
3A
32
2D
4F
DE
D1
CD
FB
43
DD
C2
FC
ENDCHAR
STARTCHAR Sdotbelow
ENCODING 7778
SWIDTH 750 0
DWIDTH 8 0
BBX 8 13 0 -4
BITMAP
3F
4F
DE
D1
CD
FB
43
DD
FE
F2
3A
32
3C
ENDCHAR
STARTCHAR sdotbelow
ENCODING 7779
SWIDTH 750 0
DWIDTH 8 0
BBX 8 13 0 -4
BITMAP
3F
4F
DE
D1
CD
FB
43
DD
FE
F2
3A
32
3C
ENDCHAR
STARTCHAR Tdotbelow
ENCODING 7788
SWIDTH 756 0
DWIDTH 8 0
BBX 8 13 0 -4
BITMAP
7F
DF
FB
3A
3A
3A
3A
32
3C
32
3A
32
3C
ENDCHAR
STARTCHAR tdotbelow
ENCODING 7789
SWIDTH 756 0
DWIDTH 8 0
BBX 8 13 0 -4
BITMAP
7F
DF
FB
3A
3A
3A
3A
32
3C
32
3A
32
3C
ENDCHAR
STARTCHAR Tlinebelow
ENCODING 7790
SWIDTH 756 0
DWIDTH 8 0
BBX 8 12 0 -3
BITMAP
7F
C9
FB
3A
3A
3A
3A
32
3E
2D
61
7E
ENDCHAR
STARTCHAR tlinebelow
ENCODING 7791
SWIDTH 756 0
DWIDTH 8 0
BBX 8 12 0 -3
BITMAP
7F
C9
FB
3A
3A
3A
3A
32
3E
2D
61
7E
ENDCHAR
STARTCHAR Wgrave
ENCODING 7808
SWIDTH 931 0
DWIDTH 10 0
BBX 10 13 0 -1
BITMAP
1800
3F00
2080
5D40
DAC0
DEC0
D9C0
DDC0
D6C0
DD40
D540
6E80
7700
ENDCHAR
STARTCHAR wgrave
ENCODING 7809
SWIDTH 931 0
DWIDTH 10 0
BBX 10 13 0 -1
BITMAP
1800
3F00
2080
5D40
DAC0
DEC0
D9C0
DDC0
D6C0
DD40
D540
6E80
7700
ENDCHAR
STARTCHAR Wacute
ENCODING 7810
SWIDTH 931 0
DWIDTH 10 0
BBX 10 13 0 -1
BITMAP
0100
1E80
3080
4F40
DAC0
DEC0
D9C0
DDC0
D6C0
DD40
D540
6E80
7700
ENDCHAR
STARTCHAR wacute
ENCODING 7811
SWIDTH 931 0
DWIDTH 10 0
BBX 10 13 0 -1
BITMAP
0100
1E80
3080
4F40
DAC0
DEC0
D9C0
DDC0
D6C0
DD40
D540
6E80
7700
ENDCHAR
STARTCHAR Wdieresis
ENCODING 7812
SWIDTH 931 0
DWIDTH 10 0
BBX 10 13 0 -1
BITMAP
1B00
2D00
2480
5F40
5AC0
DEC0
D9C0
DDC0
D6C0
DD40
D540
6E80
7700
ENDCHAR
STARTCHAR wdieresis
ENCODING 7813
SWIDTH 931 0
DWIDTH 10 0
BBX 10 13 0 -1
BITMAP
1B00
2D00
2480
5F40
5AC0
DEC0
D9C0
DDC0
D6C0
DD40
D540
6E80
7700
ENDCHAR
STARTCHAR Ydotaccent
ENCODING 7822
SWIDTH 805 0
DWIDTH 9 0
BBX 9 14 0 -1
BITMAP
0C00
1200
3600
3200
4D80
CC80
D580
DD80
D280
6D00
7600
3600
3600
3800
ENDCHAR
STARTCHAR ydotaccent
ENCODING 7823
SWIDTH 805 0
DWIDTH 9 0
BBX 9 14 0 -1
BITMAP
0C00
1200
3600
3200
4D80
CC80
D580
DD80
D280
6D00
7600
3600
3600
3800
ENDCHAR
STARTCHAR Zdotbelow
ENCODING 7826
SWIDTH 760 0
DWIDTH 8 0
BBX 8 13 0 -4
BITMAP
7F
DF
F3
15
2A
4C
57
DF
FF
F2
34
32
3C
ENDCHAR
STARTCHAR zdotbelow
ENCODING 7827
SWIDTH 760 0
DWIDTH 8 0
BBX 8 13 0 -4
BITMAP
7F
DF
F3
15
2A
4C
57
DF
FF
F2
34
32
3C
ENDCHAR
STARTCHAR tdieresis
ENCODING 7831
SWIDTH 756 0
DWIDTH 8 0
BBX 8 13 0 -1
BITMAP
3E
5B
49
77
DF
FB
3A
3A
3A
3A
32
36
38
ENDCHAR
STARTCHAR Germandbls
ENCODING 7838
SWIDTH 859 0
DWIDTH 9 0
BBX 9 10 0 -1
BITMAP
7F00
5C80
D680
DB00
DA80
D780
D980
DA80
C980
7E00
ENDCHAR
STARTCHAR Adotbelow
ENCODING 7840
SWIDTH 830 0
DWIDTH 9 0
BBX 9 13 0 -4
BITMAP
1F00
2D00
3680
5D80
5180
DF80
D180
DD80
CE80
F100
1600
3200
3C00
ENDCHAR
STARTCHAR adotbelow
ENCODING 7841
SWIDTH 830 0
DWIDTH 9 0
BBX 9 13 0 -4
BITMAP
1F00
2D00
3680
5D80
5180
DF80
D180
DD80
CE80
F100
1600
3200
3C00
ENDCHAR
STARTCHAR Ahookabove
ENCODING 7842
SWIDTH 830 0
DWIDTH 9 0
BBX 9 14 0 -1
BITMAP
0E00
1D00
3200
1E00
2100
2D00
3680
5D80
5180
DF80
D180
DD80
DC80
E700
ENDCHAR
STARTCHAR ahookabove
ENCODING 7843
SWIDTH 830 0
DWIDTH 9 0
BBX 9 14 0 -1
BITMAP
0E00
1D00
3200
1E00
2100
2D00
3680
5D80
5180
DF80
D180
DD80
DC80
E700
ENDCHAR
STARTCHAR Acircumflexacute
ENCODING 7844
SWIDTH 830 0
DWIDTH 9 0
BBX 9 16 0 -1
BITMAP
0100
0700
0D00
1F00
2100
7F00
6100
2D00
5680
5D80
5180
DF80
D180
DD80
DC80
E700
ENDCHAR
STARTCHAR acircumflexacute
ENCODING 7845
SWIDTH 830 0
DWIDTH 9 0
BBX 9 16 0 -1
BITMAP
0100
0700
0D00
1F00
2100
7F00
6100
2D00
5680
5D80
5180
DF80
D180
DD80
DC80
E700
ENDCHAR
STARTCHAR Acircumflexgrave
ENCODING 7846
SWIDTH 830 0
DWIDTH 9 0
BBX 9 15 0 -1
BITMAP
0F00
0D00
1F00
2100
7F00
6100
2D00
5680
5D80
5180
DF80
D180
DD80
DC80
E700
ENDCHAR
STARTCHAR acircumflexgrave
ENCODING 7847
SWIDTH 830 0
DWIDTH 9 0
BBX 9 15 0 -1
BITMAP
0F00
0D00
1F00
2100
7F00
6100
2D00
5680
5D80
5180
DF80
D180
DD80
DC80
E700
ENDCHAR
STARTCHAR Acircumflexhookabove
ENCODING 7848
SWIDTH 830 0
DWIDTH 9 0
BBX 9 17 0 -1
BITMAP
0300
0780
0F80
0680
1D00
2300
7F00
6100
2D00
5680
5D80
5180
DF80
D180
DD80
DC80
E700
ENDCHAR
STARTCHAR acircumflexhookabove
ENCODING 7849
SWIDTH 830 0
DWIDTH 9 0
BBX 9 17 0 -1
BITMAP
0300
0780
0F80
0680
1D00
2300
7F00
6100
2D00
5680
5D80
5180
DF80
D180
DD80
DC80
E700
ENDCHAR
STARTCHAR Acircumflextilde
ENCODING 7850
SWIDTH 830 0
DWIDTH 9 0
BBX 9 16 0 -1
BITMAP
1F00
2100
7E00
6D00
2300
7F00
6100
2D00
5680
5D80
5180
DF80
D180
DD80
DC80
E700
ENDCHAR
STARTCHAR acircumflextilde
ENCODING 7851
SWIDTH 830 0
DWIDTH 9 0
BBX 9 16 0 -1
BITMAP
1F00
2100
7E00
6D00
2300
7F00
6100
2D00
5680
5D80
5180
DF80
D180
DD80
DC80
E700
ENDCHAR
STARTCHAR Acircumflexdotbelow
ENCODING 7852
SWIDTH 830 0
DWIDTH 9 0
BBX 9 17 0 -4
BITMAP
0600
1D00
2300
7F00
6100
2D00
5680
5D80
5180
DF80
D180
DD80
CE80
F100
1600
3200
3C00
ENDCHAR
STARTCHAR acircumflexdotbelow
ENCODING 7853
SWIDTH 830 0
DWIDTH 9 0
BBX 9 17 0 -4
BITMAP
0600
1D00
2300
7F00
6100
2D00
5680
5D80
5180
DF80
D180
DD80
CE80
F100
1600
3200
3C00
ENDCHAR
STARTCHAR Abreveacute
ENCODING 7854
SWIDTH 830 0
DWIDTH 9 0
BBX 9 16 0 -1
BITMAP
0600
0E00
1900
3B00
6500
7100
2F00
2D00
3680
5D80
5180
DF80
D180
DD80
DC80
E700
ENDCHAR
STARTCHAR abreveacute
ENCODING 7855
SWIDTH 830 0
DWIDTH 9 0
BBX 9 16 0 -1
BITMAP
0600
0E00
1900
3B00
6500
7100
2F00
2D00
3680
5D80
5180
DF80
D180
DD80
DC80
E700
ENDCHAR
STARTCHAR Abrevegrave
ENCODING 7856
SWIDTH 830 0
DWIDTH 9 0
BBX 9 16 0 -1
BITMAP
1C00
3C00
3300
2F00
6500
7100
2F00
2D00
3680
5D80
5180
DF80
D180
DD80
DC80
E700
ENDCHAR
STARTCHAR abrevegrave
ENCODING 7857
SWIDTH 830 0
DWIDTH 9 0
BBX 9 16 0 -1
BITMAP
1C00
3C00
3300
2F00
6500
7100
2F00
2D00
3680
5D80
5180
DF80
D180
DD80
DC80
E700
ENDCHAR
STARTCHAR Abrevehookabove
ENCODING 7858
SWIDTH 830 0
DWIDTH 9 0
BBX 9 17 0 -1
BITMAP
0E00
1E00
1D00
1F00
3700
6D00
7100
2F00
2D00
3680
5D80
5180
DF80
D180
DD80
DC80
E700
ENDCHAR
STARTCHAR abrevehookabove
ENCODING 7859
SWIDTH 830 0
DWIDTH 9 0
BBX 9 17 0 -1
BITMAP
0E00
1E00
1D00
1F00
3700
6D00
7100
2F00
2D00
3680
5D80
5180
DF80
D180
DD80
DC80
E700
ENDCHAR
STARTCHAR Abrevetilde
ENCODING 7860
SWIDTH 830 0
DWIDTH 9 0
BBX 9 16 0 -1
BITMAP
1F00
2900
7F00
3700
6D00
7100
2F00
2D00
3680
5D80
5180
DF80
D180
DD80
DC80
E700
ENDCHAR
STARTCHAR abrevetilde
ENCODING 7861
SWIDTH 830 0
DWIDTH 9 0
BBX 9 16 0 -1
BITMAP
1F00
2900
7F00
3700
6D00
7100
2F00
2D00
3680
5D80
5180
DF80
D180
DD80
DC80
E700
ENDCHAR
STARTCHAR Abrevedotbelow
ENCODING 7862
SWIDTH 830 0
DWIDTH 9 0
BBX 9 17 0 -4
BITMAP
1B00
3700
6D00
7100
2F00
2D00
3680
5D80
5180
DF80
D180
DD80
CE80
F100
1600
3200
3C00
ENDCHAR
STARTCHAR abrevedotbelow
ENCODING 7863
SWIDTH 830 0
DWIDTH 9 0
BBX 9 17 0 -4
BITMAP
1B00
3700
6D00
7100
2F00
2D00
3680
5D80
5180
DF80
D180
DD80
CE80
F100
1600
3200
3C00
ENDCHAR
STARTCHAR Edotbelow
ENCODING 7864
SWIDTH 754 0
DWIDTH 8 0
BBX 8 13 0 -4
BITMAP
7F
5F
DE
D1
DD
DE
DF
DF
FF
72
34
32
3C
ENDCHAR
STARTCHAR edotbelow
ENCODING 7865
SWIDTH 754 0
DWIDTH 8 0
BBX 8 13 0 -4
BITMAP
7F
5F
DE
D1
DD
DE
DF
DF
FF
72
34
32
3C
ENDCHAR
STARTCHAR Ehookabove
ENCODING 7866
SWIDTH 754 0
DWIDTH 8 0
BBX 8 14 0 -1
BITMAP
1C
3E
36
3C
43
5F
DE
D1
DD
DE
DF
DF
C1
7E
ENDCHAR
STARTCHAR ehookabove
ENCODING 7867
SWIDTH 754 0
DWIDTH 8 0
BBX 8 14 0 -1
BITMAP
1C
3E
36
3C
43
5F
DE
D1
DD
DE
DF
DF
C1
7E
ENDCHAR
STARTCHAR Etilde
ENCODING 7868
SWIDTH 754 0
DWIDTH 8 0
BBX 8 13 0 -1
BITMAP
1A
25
79
47
5F
DE
D1
DD
DE
DF
DF
C1
7E
ENDCHAR
STARTCHAR etilde
ENCODING 7869
SWIDTH 754 0
DWIDTH 8 0
BBX 8 13 0 -1
BITMAP
1A
25
79
47
5F
DE
D1
DD
DE
DF
DF
C1
7E
ENDCHAR
STARTCHAR Ecircumflexacute
ENCODING 7870
SWIDTH 754 0
DWIDTH 8 0
BBX 8 16 0 -1
BITMAP
01
07
09
1F
21
7F
41
5F
DE
D1
DD
DE
DF
DF
C1
7E
ENDCHAR
STARTCHAR ecircumflexacute
ENCODING 7871
SWIDTH 754 0
DWIDTH 8 0
BBX 8 16 0 -1
BITMAP
01
07
09
1F
21
7F
41
5F
DE
D1
DD
DE
DF
DF
C1
7E
ENDCHAR
STARTCHAR Ecircumflexgrave
ENCODING 7872
SWIDTH 754 0
DWIDTH 8 0
BBX 8 15 0 -1
BITMAP
0F
09
1F
21
7F
41
5F
DE
D1
DD
DE
DF
DF
C1
7E
ENDCHAR
STARTCHAR ecircumflexgrave
ENCODING 7873
SWIDTH 754 0
DWIDTH 8 0
BBX 8 15 0 -1
BITMAP
0F
09
1F
21
7F
41
5F
DE
D1
DD
DE
DF
DF
C1
7E
ENDCHAR
STARTCHAR Ecircumflexhookabove
ENCODING 7874
SWIDTH 754 0
DWIDTH 8 0
BBX 9 17 0 -1
BITMAP
0700
0B80
0D80
0680
3F00
2100
7F00
4100
5F00
DE00
D100
DD00
DE00
DF00
DF00
C100
7E00
ENDCHAR
STARTCHAR ecircumflexhookabove
ENCODING 7875
SWIDTH 754 0
DWIDTH 8 0
BBX 9 17 0 -1
BITMAP
0700
0B80
0D80
0680
3F00
2100
7F00
4100
5F00
DE00
D100
DD00
DE00
DF00
DF00
C100
7E00
ENDCHAR
STARTCHAR Ecircumflextilde
ENCODING 7876
SWIDTH 754 0
DWIDTH 8 0
BBX 8 16 0 -1
BITMAP
1F
21
7E
6D
61
7F
41
DF
DE
D1
DD
DE
DF
DF
C1
7E
ENDCHAR
STARTCHAR ecircumflextilde
ENCODING 7877
SWIDTH 754 0
DWIDTH 8 0
BBX 8 16 0 -1
BITMAP
1F
21
7E
6D
61
7F
41
DF
DE
D1
DD
DE
DF
DF
C1
7E
ENDCHAR
STARTCHAR Ecircumflexdotbelow
ENCODING 7878
SWIDTH 754 0
DWIDTH 8 0
BBX 8 17 0 -4
BITMAP
08
3F
61
7F
41
DF
DE
D1
DD
DE
DF
DF
FF
72
3A
32
3C
ENDCHAR
STARTCHAR ecircumflexdotbelow
ENCODING 7879
SWIDTH 754 0
DWIDTH 8 0
BBX 8 17 0 -4
BITMAP
08
3F
61
7F
41
DF
DE
D1
DD
DE
DF
DF
FF
72
3A
32
3C
ENDCHAR
STARTCHAR Ihookabove
ENCODING 7880
SWIDTH 705 0
DWIDTH 8 0
BBX 7 14 0 -1
BITMAP
3C
3C
64
3C
42
DE
EA
EA
2C
2C
2A
5E
C2
FC
ENDCHAR
STARTCHAR ihookabove
ENCODING 7881
SWIDTH 705 0
DWIDTH 8 0
BBX 7 14 0 -1
BITMAP
3C
3C
64
3C
42
DE
EA
EA
2C
2C
2A
5E
C2
FC
ENDCHAR
STARTCHAR Idotbelow
ENCODING 7882
SWIDTH 705 0
DWIDTH 8 0
BBX 7 13 0 -4
BITMAP
7E
DE
EA
EA
2C
2C
2A
5E
FE
E2
2C
24
38
ENDCHAR
STARTCHAR idotbelow
ENCODING 7883
SWIDTH 705 0
DWIDTH 8 0
BBX 7 13 0 -4
BITMAP
7E
DE
EA
EA
2C
2C
2A
5E
FE
E2
2C
24
38
ENDCHAR
STARTCHAR Odotbelow
ENCODING 7884
SWIDTH 837 0
DWIDTH 9 0
BBX 9 13 0 -4
BITMAP
3F00
4E80
5180
DD80
DD80
DD80
DD80
CE80
C080
7F00
1600
1200
1C00
ENDCHAR
STARTCHAR odotbelow
ENCODING 7885
SWIDTH 837 0
DWIDTH 9 0
BBX 9 13 0 -4
BITMAP
3F00
4E80
5180
DD80
DD80
DD80
DD80
CE80
C080
7F00
1600
1200
1C00
ENDCHAR
STARTCHAR Ohookabove
ENCODING 7886
SWIDTH 837 0
DWIDTH 9 0
BBX 9 14 0 -1
BITMAP
0C00
3200
1E00
2100
4E80
5180
DD80
DD80
DD80
DD80
D180
CE80
7300
3C00
ENDCHAR
STARTCHAR ohookabove
ENCODING 7887
SWIDTH 837 0
DWIDTH 9 0
BBX 9 14 0 -1
BITMAP
0C00
3200
1E00
2100
4E80
5180
DD80
DD80
DD80
DD80
D180
CE80
7300
3C00
ENDCHAR
STARTCHAR Ocircumflexacute
ENCODING 7888
SWIDTH 837 0
DWIDTH 9 0
BBX 9 16 0 -1
BITMAP
0300
0700
0D00
3F00
2100
7F00
2E80
5180
DD80
DD80
DD80
DD80
D180
CE80
7300
3C00
ENDCHAR
STARTCHAR ocircumflexacute
ENCODING 7889
SWIDTH 837 0
DWIDTH 9 0
BBX 9 16 0 -1
BITMAP
0300
0700
0D00
3F00
2100
7F00
2E80
5180
DD80
DD80
DD80
DD80
D180
CE80
7300
3C00
ENDCHAR
STARTCHAR Ocircumflexgrave
ENCODING 7890
SWIDTH 837 0
DWIDTH 9 0
BBX 9 16 0 -1
BITMAP
0600
0F00
0D00
3F00
2100
7F00
2E80
5180
DD80
DD80
DD80
DD80
D180
CE80
7300
3C00
ENDCHAR
STARTCHAR ocircumflexgrave
ENCODING 7891
SWIDTH 837 0
DWIDTH 9 0
BBX 9 16 0 -1
BITMAP
0600
0F00
0D00
3F00
2100
7F00
2E80
5180
DD80
DD80
DD80
DD80
D180
CE80
7300
3C00
ENDCHAR
STARTCHAR Ocircumflexhookabove
ENCODING 7892
SWIDTH 837 0
DWIDTH 9 0
BBX 9 17 0 -1
BITMAP
0300
0780
0F80
0680
1D00
2300
7F00
2E80
5180
DD80
DD80
DD80
DD80
D180
CE80
7300
3C00
ENDCHAR
STARTCHAR ocircumflexhookabove
ENCODING 7893
SWIDTH 837 0
DWIDTH 9 0
BBX 9 17 0 -1
BITMAP
0300
0780
0F80
0680
1D00
2300
7F00
2E80
5180
DD80
DD80
DD80
DD80
D180
CE80
7300
3C00
ENDCHAR
STARTCHAR Ocircumflextilde
ENCODING 7894
SWIDTH 837 0
DWIDTH 9 0
BBX 9 17 0 -1
BITMAP
1900
2F00
6100
7E00
6D00
2300
7F00
2E80
5180
DD80
DD80
DD80
DD80
D180
CE80
7300
3C00
ENDCHAR
STARTCHAR ocircumflextilde
ENCODING 7895
SWIDTH 837 0
DWIDTH 9 0
BBX 9 17 0 -1
BITMAP
1900
2F00
6100
7E00
6D00
2300
7F00
2E80
5180
DD80
DD80
DD80
DD80
D180
CE80
7300
3C00
ENDCHAR
STARTCHAR Ocircumflexdotbelow
ENCODING 7896
SWIDTH 837 0
DWIDTH 9 0
BBX 9 16 0 -4
BITMAP
0E00
3500
3F00
6080
4E80
5180
DD80
DD80
DD80
DD80
D180
CE80
7F00
1600
1200
1C00
ENDCHAR
STARTCHAR ocircumflexdotbelow
ENCODING 7897
SWIDTH 837 0
DWIDTH 9 0
BBX 9 16 0 -4
BITMAP
0E00
3500
3F00
6080
4E80
5180
DD80
DD80
DD80
DD80
D180
CE80
7F00
1600
1200
1C00
ENDCHAR
STARTCHAR Ohornacute
ENCODING 7898
SWIDTH 847 0
DWIDTH 9 0
BBX 9 13 0 -1
BITMAP
0200
3D80
6280
3F80
5180
DD80
DD80
DD80
DD80
D180
CE80
7300
7C00
ENDCHAR
STARTCHAR ohornacute
ENCODING 7899
SWIDTH 847 0
DWIDTH 9 0
BBX 9 13 0 -1
BITMAP
0200
3D80
6280
3F80
5180
DD80
DD80
DD80
DD80
D180
CE80
7300
7C00
ENDCHAR
STARTCHAR Ohorngrave
ENCODING 7900
SWIDTH 847 0
DWIDTH 9 0
BBX 9 13 0 -1
BITMAP
3E00
6E80
4180
3F80
5180
DD80
DD80
DD80
DD80
D180
CE80
7300
7C00
ENDCHAR
STARTCHAR ohorngrave
ENCODING 7901
SWIDTH 847 0
DWIDTH 9 0
BBX 9 13 0 -1
BITMAP
3E00
6E80
4180
3F80
5180
DD80
DD80
DD80
DD80
D180
CE80
7300
7C00
ENDCHAR
STARTCHAR Ohornhookabove
ENCODING 7902
SWIDTH 847 0
DWIDTH 9 0
BBX 9 14 0 -1
BITMAP
0C00
3200
3F80
2280
2F80
5180
DD80
DD80
DD80
DD80
D180
CE80
7300
7C00
ENDCHAR
STARTCHAR ohornhookabove
ENCODING 7903
SWIDTH 847 0
DWIDTH 9 0
BBX 9 14 0 -1
BITMAP
0C00
3200
3F80
2280
2F80
5180
DD80
DD80
DD80
DD80
D180
CE80
7300
7C00
ENDCHAR
STARTCHAR Ohorntilde
ENCODING 7904
SWIDTH 847 0
DWIDTH 9 0
BBX 9 14 0 -1
BITMAP
1200
2D00
6180
7180
6F80
5180
DD80
DD80
DD80
DD80
D180
CE80
7300
7C00
ENDCHAR
STARTCHAR ohorntilde
ENCODING 7905
SWIDTH 847 0
DWIDTH 9 0
BBX 9 14 0 -1
BITMAP
1200
2D00
6180
7180
6F80
5180
DD80
DD80
DD80
DD80
D180
CE80
7300
7C00
ENDCHAR
STARTCHAR Ohorndotbelow
ENCODING 7906
SWIDTH 847 0
DWIDTH 9 0
BBX 9 14 0 -4
BITMAP
0180
3E80
4F80
5180
DD80
DD80
DD80
DD80
CE80
C080
7F00
1600
1200
1C00
ENDCHAR
STARTCHAR ohorndotbelow
ENCODING 7907
SWIDTH 847 0
DWIDTH 9 0
BBX 9 14 0 -4
BITMAP
0180
3E80
4F80
5180
DD80
DD80
DD80
DD80
CE80
C080
7F00
1600
1200
1C00
ENDCHAR
STARTCHAR Udotbelow
ENCODING 7908
SWIDTH 846 0
DWIDTH 9 0
BBX 9 13 0 -4
BITMAP
7B80
5D80
DD80
DD80
DD80
DD80
D180
CE80
6080
7F00
1600
1200
1C00
ENDCHAR
STARTCHAR udotbelow
ENCODING 7909
SWIDTH 846 0
DWIDTH 9 0
BBX 9 13 0 -4
BITMAP
7B80
5D80
DD80
DD80
DD80
DD80
D180
CE80
6080
7F00
1600
1200
1C00
ENDCHAR
STARTCHAR Uhookabove
ENCODING 7910
SWIDTH 846 0
DWIDTH 9 0
BBX 9 14 0 -1
BITMAP
0E00
1E00
1A00
1E00
6D80
DD80
DD80
DD80
DD80
DD80
D180
CE80
7300
3C00
ENDCHAR
STARTCHAR uhookabove
ENCODING 7911
SWIDTH 846 0
DWIDTH 9 0
BBX 9 14 0 -1
BITMAP
0E00
1E00
1A00
1E00
6D80
DD80
DD80
DD80
DD80
DD80
D180
CE80
7300
3C00
ENDCHAR
STARTCHAR Uhornacute
ENCODING 7912
SWIDTH 856 0
DWIDTH 9 0
BBX 10 13 0 -1
BITMAP
0200
3D80
6140
56C0
5D80
DD80
DD80
DD80
DD80
D180
CE80
7300
7C00
ENDCHAR
STARTCHAR uhornacute
ENCODING 7913
SWIDTH 856 0
DWIDTH 9 0
BBX 10 13 0 -1
BITMAP
0200
3D80
6140
56C0
5D80
DD80
DD80
DD80
DD80
D180
CE80
7300
7C00
ENDCHAR
STARTCHAR Uhorngrave
ENCODING 7914
SWIDTH 856 0
DWIDTH 9 0
BBX 10 13 0 -1
BITMAP
3E00
7E80
4140
7AC0
5D80
DD80
DD80
DD80
DD80
D180
CE80
7300
7C00
ENDCHAR
STARTCHAR uhorngrave
ENCODING 7915
SWIDTH 856 0
DWIDTH 9 0
BBX 10 13 0 -1
BITMAP
3E00
7E80
4140
7AC0
5D80
DD80
DD80
DD80
DD80
D180
CE80
7300
7C00
ENDCHAR
STARTCHAR Uhornhookabove
ENCODING 7916
SWIDTH 856 0
DWIDTH 9 0
BBX 10 14 0 -1
BITMAP
1E00
1E00
3980
1F40
6CC0
DD80
DD80
DD80
DD80
DD80
D180
CE80
7300
7C00
ENDCHAR
STARTCHAR uhornhookabove
ENCODING 7917
SWIDTH 856 0
DWIDTH 9 0
BBX 10 14 0 -1
BITMAP
1E00
1E00
3980
1F40
6CC0
DD80
DD80
DD80
DD80
DD80
D180
CE80
7300
7C00
ENDCHAR
STARTCHAR Uhorntilde
ENCODING 7918
SWIDTH 856 0
DWIDTH 9 0
BBX 10 14 0 -1
BITMAP
1200
2D00
6180
7140
4EC0
DD80
DD80
DD80
DD80
DD80
D180
CE80
7300
3C00
ENDCHAR
STARTCHAR uhorntilde
ENCODING 7919
SWIDTH 856 0
DWIDTH 9 0
BBX 10 14 0 -1
BITMAP
1200
2D00
6180
7140
4EC0
DD80
DD80
DD80
DD80
DD80
D180
CE80
7300
3C00
ENDCHAR
STARTCHAR Uhorndotbelow
ENCODING 7920
SWIDTH 856 0
DWIDTH 9 0
BBX 10 14 0 -4
BITMAP
0180
7AC0
5D80
DD80
DD80
DD80
DD80
D180
CE80
6080
7F00
1600
1200
1C00
ENDCHAR
STARTCHAR uhorndotbelow
ENCODING 7921
SWIDTH 856 0
DWIDTH 9 0
BBX 10 14 0 -4
BITMAP
0180
7AC0
5D80
DD80
DD80
DD80
DD80
D180
CE80
6080
7F00
1600
1200
1C00
ENDCHAR
STARTCHAR Ygrave
ENCODING 7922
SWIDTH 805 0
DWIDTH 9 0
BBX 9 13 0 -1
BITMAP
1000
6E00
6100
5A80
D580
D580
DD80
D280
6D00
7600
3600
3600
3800
ENDCHAR
STARTCHAR ygrave
ENCODING 7923
SWIDTH 805 0
DWIDTH 9 0
BBX 9 13 0 -1
BITMAP
1000
6E00
6100
5A80
D580
D580
DD80
D280
6D00
7600
3600
3600
3800
ENDCHAR
STARTCHAR Ydotbelow
ENCODING 7924
SWIDTH 805 0
DWIDTH 9 0
BBX 9 13 0 -4
BITMAP
7F80
D580
D580
DD80
D300
6D00
7600
3200
3C00
3200
3600
3200
3C00
ENDCHAR
STARTCHAR ydotbelow
ENCODING 7925
SWIDTH 805 0
DWIDTH 9 0
BBX 9 13 0 -4
BITMAP
7F80
D580
D580
DD80
D300
6D00
7600
3200
3C00
3200
3600
3200
3C00
ENDCHAR
STARTCHAR Yhookabove
ENCODING 7926
SWIDTH 805 0
DWIDTH 9 0
BBX 9 14 0 -1
BITMAP
0C00
3A00
3600
1E00
6D80
D580
D580
DD80
D280
6D00
7600
3600
3600
3800
ENDCHAR
STARTCHAR yhookabove
ENCODING 7927
SWIDTH 805 0
DWIDTH 9 0
BBX 9 14 0 -1
BITMAP
0C00
3A00
3600
1E00
6D80
D580
D580
DD80
D280
6D00
7600
3600
3600
3800
ENDCHAR
STARTCHAR Ytilde
ENCODING 7928
SWIDTH 805 0
DWIDTH 9 0
BBX 9 13 0 -1
BITMAP
1B00
2D00
7100
4E80
D580
D580
DD80
D280
6D00
7600
3600
3600
3800
ENDCHAR
STARTCHAR ytilde
ENCODING 7929
SWIDTH 805 0
DWIDTH 9 0
BBX 9 13 0 -1
BITMAP
1B00
2D00
7100
4E80
D580
D580
DD80
D280
6D00
7600
3600
3600
3800
ENDCHAR
STARTCHAR enspace
ENCODING 8192
SWIDTH 500 0
DWIDTH 6 0
BBX 1 1 0 0
BITMAP
00
ENDCHAR
STARTCHAR emspace
ENCODING 8193
SWIDTH 1000 0
DWIDTH 11 0
BBX 1 1 0 0
BITMAP
00
ENDCHAR
STARTCHAR uni2002
ENCODING 8194
SWIDTH 500 0
DWIDTH 6 0
BBX 1 1 0 0
BITMAP
00
ENDCHAR
STARTCHAR uni2003
ENCODING 8195
SWIDTH 1000 0
DWIDTH 11 0
BBX 1 1 0 0
BITMAP
00
ENDCHAR
STARTCHAR space.tab_en
ENCODING 8199
SWIDTH 1100 0
DWIDTH 12 0
BBX 1 1 0 0
BITMAP
00
ENDCHAR
STARTCHAR uni2010
ENCODING 8208
SWIDTH 520 0
DWIDTH 6 0
BBX 6 4 0 2
BITMAP
38
54
C4
F8
ENDCHAR
STARTCHAR figuredash
ENCODING 8210
SWIDTH 834 0
DWIDTH 9 0
BBX 9 4 0 2
BITMAP
3F00
5F80
C080
FF00
ENDCHAR
STARTCHAR endash
ENCODING 8211
SWIDTH 834 0
DWIDTH 9 0
BBX 9 4 0 2
BITMAP
3F00
5F80
C080
FF00
ENDCHAR
STARTCHAR emdash
ENCODING 8212
SWIDTH 1234 0
DWIDTH 14 0
BBX 13 4 0 2
BITMAP
3FF8
5FF8
C008
FFF0
ENDCHAR
STARTCHAR horizontalbar
ENCODING 8213
SWIDTH 1234 0
DWIDTH 14 0
BBX 13 4 0 2
BITMAP
3FF8
5FF8
C008
FFF0
ENDCHAR
STARTCHAR quoteleft
ENCODING 8216
SWIDTH 484 0
DWIDTH 5 0
BBX 5 6 0 3
BITMAP
38
50
E8
D8
C8
F0
ENDCHAR
STARTCHAR quoteright
ENCODING 8217
SWIDTH 484 0
DWIDTH 5 0
BBX 5 6 0 3
BITMAP
78
D8
C8
F8
70
E0
ENDCHAR
STARTCHAR quotesinglbase
ENCODING 8218
SWIDTH 484 0
DWIDTH 5 0
BBX 5 7 0 -3
BITMAP
38
48
D8
E8
D8
F0
40
ENDCHAR
STARTCHAR quotedblleft
ENCODING 8220
SWIDTH 784 0
DWIDTH 9 0
BBX 8 6 0 3
BITMAP
3F
5B
E5
D7
C5
FE
ENDCHAR
STARTCHAR quotedblright
ENCODING 8221
SWIDTH 784 0
DWIDTH 9 0
BBX 8 6 0 3
BITMAP
7F
D7
D5
E7
FF
EE
ENDCHAR
STARTCHAR quotedblbase
ENCODING 8222
SWIDTH 784 0
DWIDTH 9 0
BBX 8 7 0 -3
BITMAP
3F
45
D7
F7
EB
FE
4C
ENDCHAR
STARTCHAR dagger
ENCODING 8224
SWIDTH 818 0
DWIDTH 9 0
BBX 9 10 0 -1
BITMAP
1E00
3400
4780
DF80
C480
F700
1400
1200
1200
3C00
ENDCHAR
STARTCHAR daggerdbl
ENCODING 8225
SWIDTH 818 0
DWIDTH 9 0
BBX 9 10 0 -1
BITMAP
3E00
5F80
C480
F700
4480
5F80
C480
F380
D200
3C00
ENDCHAR
STARTCHAR bullet
ENCODING 8226
SWIDTH 543 0
DWIDTH 6 0
BBX 6 6 0 1
BITMAP
3C
5C
EC
DC
C4
F8
ENDCHAR
STARTCHAR ellipsis
ENCODING 8230
SWIDTH 1210 0
DWIDTH 13 0
BBX 13 5 0 -1
BITMAP
3BB8
5558
C448
C448
FFF0
ENDCHAR
STARTCHAR perthousand
ENCODING 8240
SWIDTH 1517 0
DWIDTH 17 0
BBX 17 10 0 -1
BITMAP
3F8000
7B8000
FA8000
ED7700
D7AA80
FF6F80
0D6F80
092A80
0F9D00
0DFE00
ENDCHAR
STARTCHAR minute
ENCODING 8242
SWIDTH 456 0
DWIDTH 5 0
BBX 5 6 0 3
BITMAP
78
58
D8
D8
C8
F0
ENDCHAR
STARTCHAR second
ENCODING 8243
SWIDTH 766 0
DWIDTH 8 0
BBX 8 6 0 3
BITMAP
7F
5B
DB
DB
C9
FE
ENDCHAR
STARTCHAR guilsinglleft
ENCODING 8249
SWIDTH 663 0
DWIDTH 7 0
BBX 7 7 0 0
BITMAP
3E
4E
5C
D2
CE
7A
3C
ENDCHAR
STARTCHAR guilsinglright
ENCODING 8250
SWIDTH 663 0
DWIDTH 7 0
BBX 6 7 1 0
BITMAP
F8
B4
FC
8C
B4
98
E0
ENDCHAR
STARTCHAR fraction
ENCODING 8260
SWIDTH 417 0
DWIDTH 5 0
BBX 5 10 0 -1
BITMAP
38
78
58
50
50
70
F0
B0
B0
C0
ENDCHAR
STARTCHAR zero.sups
ENCODING 8304
SWIDTH 656 0
DWIDTH 7 0
BBX 6 8 0 1
BITMAP
3C
44
DC
DC
FC
DC
44
78
ENDCHAR
STARTCHAR foursuperior
ENCODING 8308
SWIDTH 608 0
DWIDTH 7 0
BBX 6 8 0 1
BITMAP
7C
EC
EC
EC
DC
FC
1C
18
ENDCHAR
STARTCHAR five.sups
ENCODING 8309
SWIDTH 593 0
DWIDTH 7 0
BBX 6 8 0 1
BITMAP
7C
E4
EC
DC
F4
5C
C4
F8
ENDCHAR
STARTCHAR six.sups
ENCODING 8310
SWIDTH 628 0
DWIDTH 7 0
BBX 7 8 0 1
BITMAP
3C
62
EC
FA
EE
DA
FC
78
ENDCHAR
STARTCHAR seven.sups
ENCODING 8311
SWIDTH 577 0
DWIDTH 6 0
BBX 6 8 0 1
BITMAP
7C
C4
F4
2C
54
58
48
70
ENDCHAR
STARTCHAR eight.sups
ENCODING 8312
SWIDTH 638 0
DWIDTH 7 0
BBX 7 8 0 1
BITMAP
3C
64
6C
5A
6E
CA
FC
78
ENDCHAR
STARTCHAR nine.sups
ENCODING 8313
SWIDTH 628 0
DWIDTH 7 0
BBX 7 8 0 1
BITMAP
3C
66
EE
DE
FE
5A
44
78
ENDCHAR
STARTCHAR parenleft.sups
ENCODING 8317
SWIDTH 434 0
DWIDTH 5 0
BBX 4 9 0 1
BITMAP
10
70
B0
A0
A0
A0
B0
D0
70
ENDCHAR
STARTCHAR parenright.sups
ENCODING 8318
SWIDTH 435 0
DWIDTH 5 0
BBX 4 9 0 1
BITMAP
20
90
D0
50
50
50
50
B0
E0
ENDCHAR
STARTCHAR n.sups
ENCODING 8319
SWIDTH 673 0
DWIDTH 7 0
BBX 6 7 1 2
BITMAP
7C
FC
FC
DC
DC
B4
D8
ENDCHAR
STARTCHAR zero.sinf
ENCODING 8320
SWIDTH 656 0
DWIDTH 7 0
BBX 6 8 0 -1
BITMAP
3C
44
DC
DC
FC
DC
44
78
ENDCHAR
STARTCHAR one.sinf
ENCODING 8321
SWIDTH 557 0
DWIDTH 6 0
BBX 6 8 0 -1
BITMAP
78
D8
F8
78
74
5C
C4
F8
ENDCHAR
STARTCHAR two.sinf
ENCODING 8322
SWIDTH 585 0
DWIDTH 6 0
BBX 6 8 0 -1
BITMAP
7C
F4
EC
74
DC
DC
C4
F8
ENDCHAR
STARTCHAR three.sinf
ENCODING 8323
SWIDTH 584 0
DWIDTH 6 0
BBX 6 8 0 -1
BITMAP
7C
CC
FC
5C
74
5C
C4
F8
ENDCHAR
STARTCHAR four.sinf
ENCODING 8324
SWIDTH 620 0
DWIDTH 7 0
BBX 6 8 0 -1
BITMAP
7C
F4
F4
EC
DC
F4
1C
18
ENDCHAR
STARTCHAR five.sinf
ENCODING 8325
SWIDTH 593 0
DWIDTH 7 0
BBX 6 8 0 -1
BITMAP
7C
E4
EC
DC
F4
5C
C4
F8
ENDCHAR
STARTCHAR six.sinf
ENCODING 8326
SWIDTH 628 0
DWIDTH 7 0
BBX 7 8 0 -1
BITMAP
3C
62
EC
FA
EE
DA
FC
78
ENDCHAR
STARTCHAR seven.sinf
ENCODING 8327
SWIDTH 577 0
DWIDTH 6 0
BBX 6 8 0 -1
BITMAP
7C
C4
F4
2C
54
58
48
70
ENDCHAR
STARTCHAR eight.sinf
ENCODING 8328
SWIDTH 638 0
DWIDTH 7 0
BBX 7 8 0 -1
BITMAP
3C
64
6C
5A
6E
CA
FC
78
ENDCHAR
STARTCHAR nine.sinf
ENCODING 8329
SWIDTH 628 0
DWIDTH 7 0
BBX 7 8 0 -1
BITMAP
3C
66
EE
DE
FE
5A
44
78
ENDCHAR
STARTCHAR parenleft.sinf
ENCODING 8333
SWIDTH 434 0
DWIDTH 5 0
BBX 4 9 0 -1
BITMAP
10
70
B0
A0
A0
A0
B0
D0
70
ENDCHAR
STARTCHAR parenright.sinf
ENCODING 8334
SWIDTH 435 0
DWIDTH 5 0
BBX 4 9 0 -1
BITMAP
20
90
D0
50
50
50
50
B0
E0
ENDCHAR
STARTCHAR colonsign
ENCODING 8353
SWIDTH 728 0
DWIDTH 8 0
BBX 8 12 0 -2
BITMAP
0A
16
21
4F
51
DE
D8
D7
CF
61
76
1C
ENDCHAR
STARTCHAR lira
ENCODING 8356
SWIDTH 795 0
DWIDTH 9 0
BBX 9 10 0 -1
BITMAP
3F00
4D00
5600
B400
DB00
B480
D580
DE80
C180
7E00
ENDCHAR
STARTCHAR naira
ENCODING 8358
SWIDTH 853 0
DWIDTH 9 0
BBX 9 10 0 -1
BITMAP
7B80
5580
DB80
A580
DB80
AB80
DD80
DD80
CC80
7700
ENDCHAR
STARTCHAR peseta
ENCODING 8359
SWIDTH 812 0
DWIDTH 9 0
BBX 9 10 0 -1
BITMAP
7F00
5E80
DD80
AD80
D100
DF00
D600
C800
D800
6000
ENDCHAR
STARTCHAR dong
ENCODING 8363
SWIDTH 782 0
DWIDTH 9 0
BBX 9 12 0 -3
BITMAP
0F00
1780
1B00
3F00
6300
EB00
EB00
DD00
C200
7E00
4100
7E00
ENDCHAR
STARTCHAR Euro
ENCODING 8364
SWIDTH 748 0
DWIDTH 8 0
BBX 8 10 0 -1
BITMAP
3F
2F
57
7E
D6
FE
D7
4F
71
7E
ENDCHAR
STARTCHAR peso
ENCODING 8369
SWIDTH 812 0
DWIDTH 9 0
BBX 9 10 0 -1
BITMAP
7F00
5E80
AD80
DD80
A180
DF00
D600
C800
D800
6000
ENDCHAR
STARTCHAR guarani
ENCODING 8370
SWIDTH 788 0
DWIDTH 9 0
BBX 8 12 0 -2
BITMAP
0C
13
2F
51
DE
D5
D5
D9
CF
73
3E
18
ENDCHAR
STARTCHAR cedi
ENCODING 8373
SWIDTH 728 0
DWIDTH 8 0
BBX 8 12 0 -2
BITMAP
0C
12
25
4F
51
DE
D8
D7
CF
65
72
1C
ENDCHAR
STARTCHAR indianrupee
ENCODING 8377
SWIDTH 713 0
DWIDTH 8 0
BBX 8 10 0 -1
BITMAP
7F
C5
7E
C5
F6
5D
FB
19
09
0E
ENDCHAR
STARTCHAR turkishlira
ENCODING 8378
SWIDTH 795 0
DWIDTH 9 0
BBX 9 10 0 -1
BITMAP
7800
D800
AC00
D700
BC80
DD80
DD00
DF00
C200
FC00
ENDCHAR
STARTCHAR ruble
ENCODING 8381
SWIDTH 782 0
DWIDTH 9 0
BBX 8 10 0 -1
BITMAP
7F
5F
DD
D1
DF
D6
B4
C4
C8
70
ENDCHAR
STARTCHAR liter
ENCODING 8467
SWIDTH 749 0
DWIDTH 8 0
BBX 8 10 0 -1
BITMAP
3E
5D
5B
DB
D3
DF
DC
DE
E2
7C
ENDCHAR
STARTCHAR uni2117
ENCODING 8471
SWIDTH 967 0
DWIDTH 11 0
BBX 10 13 0 -3
BITMAP
1F80
2E40
71C0
7FC0
FAC0
F9C0
FFC0
FAC0
F4C0
E940
76C0
7F00
0800
ENDCHAR
STARTCHAR uni2120
ENCODING 8480
SWIDTH 1003 0
DWIDTH 11 0
BBX 11 7 0 2
BITMAP
3FE0
7EE0
FFE0
CDE0
FDE0
CDA0
FEC0
ENDCHAR
STARTCHAR trademark
ENCODING 8482
SWIDTH 1003 0
DWIDTH 11 0
BBX 11 7 0 2
BITMAP
7FE0
BEE0
FFE0
7DE0
7DE0
7DA0
6EC0
ENDCHAR
STARTCHAR Omega
ENCODING 8486
SWIDTH 877 0
DWIDTH 10 0
BBX 10 10 0 -1
BITMAP
1F00
2E80
5540
5540
5540
5540
5580
5F40
C440
FF80
ENDCHAR
STARTCHAR estimated
ENCODING 8494
SWIDTH 815 0
DWIDTH 9 0
BBX 9 10 0 -1
BITMAP
3F00
4E80
5580
DD80
DF80
D080
DF00
DF00
E100
7E00
ENDCHAR
STARTCHAR onethird
ENCODING 8531
SWIDTH 1269 0
DWIDTH 14 0
BBX 14 10 0 -1
BITMAP
79C0
DA80
FB78
7774
7768
5AD4
FDFC
04B4
0588
0EF0
ENDCHAR
STARTCHAR twothirds
ENCODING 8532
SWIDTH 1269 0
DWIDTH 14 0
BBX 14 10 0 -1
BITMAP
7FC0
5680
EB78
7774
DF68
C2D4
FDFC
04B4
0588
0EF0
ENDCHAR
STARTCHAR oneeighth
ENCODING 8539
SWIDTH 1283 0
DWIDTH 14 0
BBX 14 10 0 -1
BITMAP
7BC0
FA98
7BF4
775C
5348
DAB4
FDDC
04B4
05C8
0EF0
ENDCHAR
STARTCHAR threeeighths
ENCODING 8540
SWIDTH 1293 0
DWIDTH 14 0
BBX 14 10 0 -1
BITMAP
7FC0
FA90
5F7C
7754
4748
5BB4
FDDC
04B4
05CC
06F0
ENDCHAR
STARTCHAR fiveeighths
ENCODING 8541
SWIDTH 1303 0
DWIDTH 14 0
BBX 14 10 0 -1
BITMAP
7DC0
EE98
DAF4
F75C
C744
5BBC
FDD4
04BC
05CC
06F0
ENDCHAR
STARTCHAR seveneighths
ENCODING 8542
SWIDTH 1241 0
DWIDTH 14 0
BBX 13 10 0 -1
BITMAP
7F80
D7F0
E5B8
5DA8
55C8
56F8
6EB8
0CE8
0D88
0FF0
ENDCHAR
STARTCHAR arrowleft
ENCODING 8592
SWIDTH 1100 0
DWIDTH 12 0
BBX 8 9 2 -1
BITMAP
0C
14
2B
7F
D9
E3
7C
18
08
ENDCHAR
STARTCHAR arrowup
ENCODING 8593
SWIDTH 1100 0
DWIDTH 12 0
BBX 8 9 2 -1
BITMAP
1C
1A
2E
57
49
FA
34
34
38
ENDCHAR
STARTCHAR arrowright
ENCODING 8594
SWIDTH 1100 0
DWIDTH 12 0
BBX 8 9 2 -1
BITMAP
18
36
7D
BB
8D
F2
34
38
20
ENDCHAR
STARTCHAR arrowdown
ENCODING 8595
SWIDTH 1100 0
DWIDTH 12 0
BBX 8 9 2 -1
BITMAP
1C
3C
4B
DD
F5
6A
34
38
10
ENDCHAR
STARTCHAR arrowupleft
ENCODING 8598
SWIDTH 1100 0
DWIDTH 12 0
BBX 8 8 2 0
BITMAP
38
47
DD
5A
55
69
7E
4C
ENDCHAR
STARTCHAR arrowupright
ENCODING 8599
SWIDTH 1100 0
DWIDTH 12 0
BBX 8 8 2 0
BITMAP
0F
31
6F
6A
35
4A
FE
6C
ENDCHAR
STARTCHAR arrowdownright
ENCODING 8600
SWIDTH 1100 0
DWIDTH 12 0
BBX 8 8 2 0
BITMAP
10
2E
51
EE
6A
47
79
3E
ENDCHAR
STARTCHAR arrowdownleft
ENCODING 8601
SWIDTH 1100 0
DWIDTH 12 0
BBX 8 8 2 0
BITMAP
12
2D
65
5A
56
59
4E
F8
ENDCHAR
STARTCHAR uni21AA
ENCODING 8618
SWIDTH 1100 0
DWIDTH 12 0
BBX 9 11 2 -2
BITMAP
7F00
A100
BE00
AC00
BB00
A480
DE80
F900
7200
1C00
1000
ENDCHAR
STARTCHAR uni21AB
ENCODING 8619
SWIDTH 1100 0
DWIDTH 12 0
BBX 10 11 1 -2
BITMAP
3FC0
20C0
3FC0
07C0
1BC0
28C0
5F40
E380
7A00
1C00
0800
ENDCHAR
STARTCHAR uni21B0
ENCODING 8624
SWIDTH 1100 0
DWIDTH 12 0
BBX 9 10 1 -1
BITMAP
0600
0A00
3200
4F80
6880
F280
3A80
1E80
0280
0380
ENDCHAR
STARTCHAR uni21B1
ENCODING 8625
SWIDTH 1100 0
DWIDTH 12 0
BBX 9 10 2 -1
BITMAP
0800
1600
3900
5A80
A480
BB00
B400
B800
9000
E000
ENDCHAR
STARTCHAR uni21B2
ENCODING 8626
SWIDTH 1100 0
DWIDTH 12 0
BBX 9 10 1 -1
BITMAP
0180
0280
0680
0A80
3280
5F80
4880
F300
3A00
1C00
ENDCHAR
STARTCHAR uni21B3
ENCODING 8627
SWIDTH 1100 0
DWIDTH 12 0
BBX 9 10 2 -1
BITMAP
6000
9000
A800
B400
B300
BE80
C500
F200
1400
3800
ENDCHAR
STARTCHAR partialdiff
ENCODING 8706
SWIDTH 792 0
DWIDTH 9 0
BBX 8 11 0 -2
BITMAP
3F
6D
63
7D
5D
5F
DD
D3
CD
7E
38
ENDCHAR
STARTCHAR Delta
ENCODING 8710
SWIDTH 830 0
DWIDTH 9 0
BBX 9 10 0 -1
BITMAP
1F00
2D00
3300
7680
5500
5D80
5D80
DF80
C080
FF00
ENDCHAR
STARTCHAR product
ENCODING 8719
SWIDTH 859 0
DWIDTH 9 0
BBX 9 10 0 -1
BITMAP
7F80
5F80
D180
D580
D580
D580
D580
D580
CC80
F700
ENDCHAR
STARTCHAR summation
ENCODING 8721
SWIDTH 750 0
DWIDTH 8 0
BBX 8 12 0 -3
BITMAP
7F
5F
D5
CA
66
76
2A
54
7F
C1
FE
7C
ENDCHAR
STARTCHAR minus
ENCODING 8722
SWIDTH 834 0
DWIDTH 9 0
BBX 9 4 0 2
BITMAP
3F80
5F80
C080
FF00
ENDCHAR
STARTCHAR uni2215
ENCODING 8725
SWIDTH 417 0
DWIDTH 5 0
BBX 5 10 0 -1
BITMAP
38
78
58
50
50
70
F0
B0
B0
C0
ENDCHAR
STARTCHAR uni2219
ENCODING 8729
SWIDTH 464 0
DWIDTH 5 0
BBX 5 5 0 1
BITMAP
38
58
C8
C8
F0
ENDCHAR
STARTCHAR radical
ENCODING 8730
SWIDTH 841 0
DWIDTH 9 0
BBX 9 11 0 -1
BITMAP
0380
0380
0780
3580
4D80
D500
F680
EB00
6F00
3100
3E00
ENDCHAR
STARTCHAR infinity
ENCODING 8734
SWIDTH 978 0
DWIDTH 11 0
BBX 11 8 0 0
BITMAP
3FC0
5FA0
ED60
EB60
EB60
DFA0
E640
7F80
ENDCHAR
STARTCHAR integral
ENCODING 8747
SWIDTH 574 0
DWIDTH 6 0
BBX 6 13 0 -3
BITMAP
1C
2C
74
74
74
74
74
74
74
74
88
F0
80
ENDCHAR
STARTCHAR approxequal
ENCODING 8776
SWIDTH 834 0
DWIDTH 9 0
BBX 9 8 0 0
BITMAP
3880
5F80
4080
FF00
2080
5F80
DD00
FE00
ENDCHAR
STARTCHAR notequal
ENCODING 8800
SWIDTH 834 0
DWIDTH 9 0
BBX 9 9 0 -1
BITMAP
2E00
5F80
C480
F700
4480
5F80
C880
7700
3800
ENDCHAR
STARTCHAR lessequal
ENCODING 8804
SWIDTH 814 0
DWIDTH 9 0
BBX 7 10 1 -1
BITMAP
0E
36
5A
BC
A4
9E
F2
BE
82
FE
ENDCHAR
STARTCHAR greaterequal
ENCODING 8805
SWIDTH 814 0
DWIDTH 9 0
BBX 7 10 1 -1
BITMAP
60
BC
8E
FA
22
5E
A4
BE
82
FE
ENDCHAR
STARTCHAR block
ENCODING 9608
SWIDTH 1000 0
DWIDTH 11 0
BBX 11 13 0 -2
BITMAP
FFE0
FFE0
FFE0
FFE0
FFE0
FFE0
FFE0
FFE0
FFE0
FFE0
FFE0
FFE0
FFE0
ENDCHAR
STARTCHAR blacksquare
ENCODING 9632
SWIDTH 1100 0
DWIDTH 12 0
BBX 6 7 3 0
BITMAP
7C
94
AC
BC
84
FC
F8
ENDCHAR
STARTCHAR blackuppointingtriangle
ENCODING 9650
SWIDTH 1100 0
DWIDTH 12 0
BBX 8 7 2 0
BITMAP
1C
12
2A
2D
41
7F
FE
ENDCHAR
STARTCHAR whiteuppointingtriangle
ENCODING 9651
SWIDTH 1100 0
DWIDTH 12 0
BBX 6 5 4 2
BITMAP
30
50
88
84
FC
ENDCHAR
STARTCHAR blackrightpointingtriangle
ENCODING 9654
SWIDTH 1100 0
DWIDTH 12 0
BBX 6 8 3 0
BITMAP
60
90
8C
B4
A4
88
B0
C0
ENDCHAR
STARTCHAR whiterightpointingtriangle
ENCODING 9655
SWIDTH 1100 0
DWIDTH 12 0
BBX 5 7 4 1
BITMAP
C0
A0
98
88
88
B0
C0
ENDCHAR
STARTCHAR blackdownpointingtriangle
ENCODING 9660
SWIDTH 1100 0
DWIDTH 12 0
BBX 8 7 2 0
BITMAP
7F
CD
6A
62
34
38
10
ENDCHAR
STARTCHAR whitedownpointingtriangle
ENCODING 9661
SWIDTH 1100 0
DWIDTH 12 0
BBX 6 5 4 2
BITMAP
FC
84
88
48
70
ENDCHAR
STARTCHAR blackleftpointingtriangle
ENCODING 9664
SWIDTH 1100 0
DWIDTH 12 0
BBX 6 8 3 0
BITMAP
04
1C
24
5C
CC
F4
3C
1C
ENDCHAR
STARTCHAR whiteleftpointingtriangle
ENCODING 9665
SWIDTH 1100 0
DWIDTH 12 0
BBX 5 7 4 1
BITMAP
08
38
48
88
48
28
18
ENDCHAR
STARTCHAR blackdiamond
ENCODING 9670
SWIDTH 1100 0
DWIDTH 12 0
BBX 8 9 2 -1
BITMAP
0C
12
29
55
C9
E2
74
38
10
ENDCHAR
STARTCHAR lozenge
ENCODING 9674
SWIDTH 831 0
DWIDTH 9 0
BBX 9 10 0 -1
BITMAP
1F00
2D00
3300
5680
5D80
D580
7680
6F00
6100
3E00
ENDCHAR
STARTCHAR uni25D6
ENCODING 9686
SWIDTH 546 0
DWIDTH 6 0
BBX 6 13 0 -2
BITMAP
0C
3C
7C
7C
FC
FC
FC
FC
FC
7C
7C
3C
1C
ENDCHAR
STARTCHAR uni25D7
ENCODING 9687
SWIDTH 546 0
DWIDTH 6 0
BBX 6 13 0 -2
BITMAP
C0
F0
F8
F8
FC
FC
FC
FC
FC
F8
F8
F0
E0
ENDCHAR
STARTCHAR uni25DC
ENCODING 9692
SWIDTH 1280 0
DWIDTH 14 0
BBX 12 13 1 -2
BITMAP
01F0
0FF0
1FF0
3FF0
7FF0
7FF0
7FF0
FFF0
FFF0
FFF0
FFF0
FFF0
FFF0
ENDCHAR
STARTCHAR uni25DD
ENCODING 9693
SWIDTH 1280 0
DWIDTH 14 0
BBX 12 13 1 -2
BITMAP
F800
FF00
FF80
FFC0
FFE0
FFE0
FFE0
FFF0
FFF0
FFF0
FFF0
FFF0
FFF0
ENDCHAR
STARTCHAR uni25DE
ENCODING 9694
SWIDTH 1280 0
DWIDTH 14 0
BBX 12 13 1 -2
BITMAP
FFF0
FFF0
FFF0
FFF0
FFF0
FFF0
FFE0
FFE0
FFE0
FFC0
FF80
FF00
FC00
ENDCHAR
STARTCHAR uni25DF
ENCODING 9695
SWIDTH 1280 0
DWIDTH 14 0
BBX 12 13 1 -2
BITMAP
FFF0
FFF0
FFF0
FFF0
FFF0
FFF0
7FF0
7FF0
7FF0
3FF0
1FF0
0FF0
03F0
ENDCHAR
STARTCHAR uni261A
ENCODING 9754
SWIDTH 1100 0
DWIDTH 12 0
BBX 10 8 1 0
BITMAP
04C0
7BC0
F8C0
F0C0
38C0
10C0
1F40
0180
ENDCHAR
STARTCHAR uni261B
ENCODING 9755
SWIDTH 1100 0
DWIDTH 12 0
BBX 10 8 1 0
BITMAP
2000
5FC0
D1C0
D080
D300
D100
DE00
E000
ENDCHAR
STARTCHAR uni261C
ENCODING 9756
SWIDTH 1100 0
DWIDTH 12 0
BBX 8 7 3 1
BITMAP
03
FD
E3
23
23
3F
03
ENDCHAR
STARTCHAR uni261D
ENCODING 9757
SWIDTH 1100 0
DWIDTH 12 0
BBX 6 9 4 0
BITMAP
40
C0
A0
F8
88
88
88
FC
FC
ENDCHAR
STARTCHAR uni261E
ENCODING 9758
SWIDTH 1100 0
DWIDTH 12 0
BBX 8 7 3 1
BITMAP
80
FF
C7
CC
C4
DC
E0
ENDCHAR
STARTCHAR uni261F
ENCODING 9759
SWIDTH 1100 0
DWIDTH 12 0
BBX 6 9 4 0
BITMAP
FC
F4
88
88
84
F4
34
18
18
ENDCHAR
STARTCHAR uni27A1
ENCODING 10145
SWIDTH 650 0
DWIDTH 7 0
BBX 7 18 0 -5
BITMAP
C0
E0
E0
F0
F8
F8
FC
FE
FE
FE
FC
FC
F8
F0
F0
E0
C0
80
ENDCHAR
STARTCHAR uni2B1B
ENCODING 11035
SWIDTH 1280 0
DWIDTH 14 0
BBX 12 13 1 -2
BITMAP
FFF0
FFF0
FFF0
FFF0
FFF0
FFF0
FFF0
FFF0
FFF0
FFF0
FFF0
FFF0
FFF0
ENDCHAR
STARTCHAR uni2B24
ENCODING 11044
SWIDTH 1280 0
DWIDTH 14 0
BBX 12 14 1 -3
BITMAP
1F80
3FC0
7FE0
FFF0
FFF0
FFF0
FFF0
FFF0
FFF0
FFF0
7FE0
7FE0
3FC0
0700
ENDCHAR
STARTCHAR A.salt
ENCODING 57600
SWIDTH 836 0
DWIDTH 9 0
BBX 9 10 0 -1
BITMAP
3F00
4E80
5580
DD80
DD80
DF80
D180
DD80
CC80
F700
ENDCHAR
STARTCHAR Agrave.salt
ENCODING 57601
SWIDTH 836 0
DWIDTH 9 0
BBX 9 13 0 -1
BITMAP
3C00
2B00
7D00
6300
4E80
5580
DD80
DD80
DF80
D180
DD80
CC80
F700
ENDCHAR
STARTCHAR Aacute.salt
ENCODING 57602
SWIDTH 836 0
DWIDTH 9 0
BBX 9 13 0 -1
BITMAP
1F00
2300
2F00
3100
4E80
5580
DD80
DD80
DF80
D180
DD80
CC80
F700
ENDCHAR
STARTCHAR Acircumflex.salt
ENCODING 57603
SWIDTH 836 0
DWIDTH 9 0
BBX 9 13 0 -1
BITMAP
1E00
2F00
6F00
7100
4E80
5580
DD80
DD80
DF80
D180
DD80
CC80
F700
ENDCHAR
STARTCHAR Atilde.salt
ENCODING 57604
SWIDTH 836 0
DWIDTH 9 0
BBX 9 13 0 -1
BITMAP
1C00
2300
6D00
7300
4E80
5580
DD80
DD80
DF80
D180
DD80
CC80
F700
ENDCHAR
STARTCHAR Adieresis.salt
ENCODING 57605
SWIDTH 836 0
DWIDTH 9 0
BBX 9 13 0 -1
BITMAP
1B00
3700
6D00
7300
4E80
5580
DD80
DD80
DF80
D180
DD80
CC80
F700
ENDCHAR
STARTCHAR Aring.salt
ENCODING 57606
SWIDTH 836 0
DWIDTH 9 0
BBX 9 13 0 -1
BITMAP
1E00
2F00
7700
7300
4E80
5580
DD80
DD80
DF80
D180
DD80
CC80
F700
ENDCHAR
STARTCHAR Amacron.salt
ENCODING 57607
SWIDTH 836 0
DWIDTH 9 0
BBX 9 12 0 -1
BITMAP
3F00
6D00
7300
4E80
5580
DD80
DD80
DF80
D180
DD80
CC80
F700
ENDCHAR
STARTCHAR Abreve.salt
ENCODING 57608
SWIDTH 836 0
DWIDTH 9 0
BBX 9 13 0 -1
BITMAP
3F00
3B00
7700
2D00
4E80
5580
DD80
DD80
DF80
D180
DD80
CC80
F700
ENDCHAR
STARTCHAR Aogonek.salt
ENCODING 57609
SWIDTH 836 0
DWIDTH 9 0
BBX 9 13 0 -4
BITMAP
3F00
4E80
5580
DD80
DD80
DF80
D180
DD80
CD80
F680
0580
0F00
0600
ENDCHAR
STARTCHAR E.salt
ENCODING 57610
SWIDTH 743 0
DWIDTH 8 0
BBX 8 10 0 -1
BITMAP
3F
4F
51
DE
DE
D2
DC
DF
E1
7E
ENDCHAR
STARTCHAR Egrave.salt
ENCODING 57611
SWIDTH 743 0
DWIDTH 8 0
BBX 8 13 0 -1
BITMAP
3A
75
79
67
4F
51
DE
DE
D2
DC
DF
E1
7E
ENDCHAR
STARTCHAR Eacute.salt
ENCODING 57612
SWIDTH 743 0
DWIDTH 8 0
BBX 8 13 0 -1
BITMAP
17
2B
66
79
4F
51
DE
DE
D2
DC
DF
E1
7E
ENDCHAR
STARTCHAR Ecircumflex.salt
ENCODING 57613
SWIDTH 743 0
DWIDTH 8 0
BBX 8 13 0 -1
BITMAP
1E
2D
6D
73
4F
51
DE
DE
D2
DC
DF
E1
7E
ENDCHAR
STARTCHAR Edieresis.salt
ENCODING 57614
SWIDTH 743 0
DWIDTH 8 0
BBX 8 13 0 -1
BITMAP
1B
37
65
7B
4F
51
DE
DE
D2
DC
DF
E1
7E
ENDCHAR
STARTCHAR Emacron.salt
ENCODING 57615
SWIDTH 743 0
DWIDTH 8 0
BBX 8 12 0 -1
BITMAP
3F
61
7F
4F
51
DE
DE
D2
DC
DF
E1
7E
ENDCHAR
STARTCHAR Ebreve.salt
ENCODING 57616
SWIDTH 743 0
DWIDTH 8 0
BBX 8 13 0 -1
BITMAP
3F
73
7D
2F
4F
51
DE
DE
D2
DC
DF
E1
7E
ENDCHAR
STARTCHAR Edotaccent.salt
ENCODING 57617
SWIDTH 743 0
DWIDTH 8 0
BBX 8 13 0 -1
BITMAP
1E
16
32
2D
4F
51
DE
DE
D2
DC
DF
E1
7E
ENDCHAR
STARTCHAR Eogonek.salt
ENCODING 57618
SWIDTH 743 0
DWIDTH 8 0
BBX 8 13 0 -4
BITMAP
3F
4F
51
DE
DE
D2
DE
DD
E3
7B
09
0F
0C
ENDCHAR
STARTCHAR Ecaron.salt
ENCODING 57619
SWIDTH 743 0
DWIDTH 8 0
BBX 8 13 0 -1
BITMAP
3B
6F
72
2D
4F
51
DE
DE
D2
DC
DF
E1
7E
ENDCHAR
STARTCHAR I.salt
ENCODING 57620
SWIDTH 471 0
DWIDTH 5 0
BBX 5 10 0 -1
BITMAP
78
58
D8
D8
D8
D8
D8
D8
C8
F0
ENDCHAR
STARTCHAR Igrave.salt
ENCODING 57621
SWIDTH 471 0
DWIDTH 5 0
BBX 6 13 0 -1
BITMAP
38
64
F4
C8
58
D8
D8
D8
D8
D8
D8
C8
F0
ENDCHAR
STARTCHAR Iacute.salt
ENCODING 57622
SWIDTH 471 0
DWIDTH 5 0
BBX 6 13 0 -1
BITMAP
3C
4C
D8
E8
58
D8
D8
D8
D8
D8
D8
C8
F0
ENDCHAR
STARTCHAR Icircumflex.salt
ENCODING 57623
SWIDTH 471 0
DWIDTH 5 0
BBX 5 13 0 -1
BITMAP
78
B8
B8
C8
58
D8
D8
D8
D8
D8
D8
C8
F0
ENDCHAR
STARTCHAR Idieresis.salt
ENCODING 57624
SWIDTH 471 0
DWIDTH 5 0
BBX 6 13 0 -1
BITMAP
6C
BC
94
E8
58
D8
D8
D8
D8
D8
D8
C8
F0
ENDCHAR
STARTCHAR Itilde.salt
ENCODING 57625
SWIDTH 471 0
DWIDTH 5 0
BBX 5 13 0 -1
BITMAP
60
98
A8
D8
58
D8
D8
D8
D8
D8
D8
C8
F0
ENDCHAR
STARTCHAR Imacron.salt
ENCODING 57626
SWIDTH 471 0
DWIDTH 5 0
BBX 5 12 0 -1
BITMAP
78
C8
F8
58
D8
D8
D8
D8
D8
D8
C8
F0
ENDCHAR
STARTCHAR Ibreve.salt
ENCODING 57627
SWIDTH 471 0
DWIDTH 5 0
BBX 5 13 0 -1
BITMAP
78
A8
D8
F8
58
D8
D8
D8
D8
D8
D8
C8
F0
ENDCHAR
STARTCHAR Iogonek.salt
ENCODING 57628
SWIDTH 471 0
DWIDTH 5 0
BBX 5 13 0 -4
BITMAP
38
58
58
58
58
58
58
58
68
68
D8
F0
60
ENDCHAR
STARTCHAR Idotaccent.salt
ENCODING 57629
SWIDTH 471 0
DWIDTH 5 0
BBX 5 13 0 -1
BITMAP
38
58
C8
F8
58
D8
D8
D8
D8
D8
D8
C8
F0
ENDCHAR
STARTCHAR L.salt
ENCODING 57630
SWIDTH 715 0
DWIDTH 8 0
BBX 8 10 0 -1
BITMAP
78
58
D8
D8
D8
D8
D8
DF
C1
FE
ENDCHAR
STARTCHAR Lacute.salt
ENCODING 57631
SWIDTH 715 0
DWIDTH 8 0
BBX 8 13 0 -1
BITMAP
2E
5E
44
F8
58
D8
D8
D8
D8
D8
DF
C1
FE
ENDCHAR
STARTCHAR Lcommaaccent.salt
ENCODING 57632
SWIDTH 715 0
DWIDTH 8 0
BBX 8 15 0 -6
BITMAP
78
58
D8
D8
D8
D8
D8
DF
C1
FE
12
3C
34
38
30
ENDCHAR
STARTCHAR Lcaron.salt
ENCODING 57633
SWIDTH 715 0
DWIDTH 8 0
BBX 8 10 0 -1
BITMAP
7F
57
DB
DB
D4
D8
D8
DF
C1
FE
ENDCHAR
STARTCHAR Ldot.salt
ENCODING 57634
SWIDTH 715 0
DWIDTH 8 0
BBX 8 10 0 -1
BITMAP
78
58
DF
DB
D9
D6
D8
DF
C1
FE
ENDCHAR
STARTCHAR Lslash.salt
ENCODING 57635
SWIDTH 725 0
DWIDTH 8 0
BBX 8 10 0 -1
BITMAP
38
58
58
54
BC
D8
D8
5F
41
7E
ENDCHAR
STARTCHAR M.salt
ENCODING 57636
SWIDTH 1170 0
DWIDTH 13 0
BBX 12 10 0 -1
BITMAP
3FF0
4FF0
5550
DDD0
DDD0
DDD0
DDD0
DDD0
CCD0
FFF0
ENDCHAR
STARTCHAR N.salt
ENCODING 57637
SWIDTH 846 0
DWIDTH 9 0
BBX 9 10 0 -1
BITMAP
3F00
4E80
5580
DD80
DD80
DD80
DD80
DD80
CC80
F700
ENDCHAR
STARTCHAR Ntilde.salt
ENCODING 57638
SWIDTH 846 0
DWIDTH 9 0
BBX 9 13 0 -1
BITMAP
1C00
2300
2D00
3300
4E80
5580
DD80
DD80
DD80
DD80
DD80
CC80
F700
ENDCHAR
STARTCHAR Nacute.salt
ENCODING 57639
SWIDTH 846 0
DWIDTH 9 0
BBX 9 13 0 -1
BITMAP
1F00
2300
2F00
3100
4E80
5580
DD80
DD80
DD80
DD80
DD80
CC80
F700
ENDCHAR
STARTCHAR Ncommaaccent.salt
ENCODING 57640
SWIDTH 846 0
DWIDTH 9 0
BBX 9 15 0 -6
BITMAP
3F00
4E80
5580
DD80
DD80
DD80
DD80
DD80
CC80
FF00
1200
1600
1E00
1C00
1800
ENDCHAR
STARTCHAR Ncaron.salt
ENCODING 57641
SWIDTH 846 0
DWIDTH 9 0
BBX 9 13 0 -1
BITMAP
3B00
2F00
3A00
2500
4E80
5580
DD80
DD80
DD80
DD80
DD80
CC80
F700
ENDCHAR
STARTCHAR W.salt
ENCODING 57642
SWIDTH 1170 0
DWIDTH 13 0
BBX 12 11 0 -2
BITMAP
7FF0
5D50
DDD0
DDD0
DDD0
DDD0
DDD0
DFF0
6010
7FE0
3980
ENDCHAR
STARTCHAR Wcircumflex.salt
ENCODING 57643
SWIDTH 1170 0
DWIDTH 13 0
BBX 12 14 0 -2
BITMAP
0780
0B40
1B40
6CF0
5D50
DDD0
DDD0
DDD0
DDD0
DDD0
DFF0
6010
7FE0
3980
ENDCHAR
STARTCHAR Wgrave.salt
ENCODING 57644
SWIDTH 1170 0
DWIDTH 13 0
BBX 12 14 0 -2
BITMAP
0E80
0B40
1E40
6DF0
5D50
DDD0
DDD0
DDD0
DDD0
DDD0
DFF0
6010
7FE0
3980
ENDCHAR
STARTCHAR Wacute.salt
ENCODING 57645
SWIDTH 1170 0
DWIDTH 13 0
BBX 12 14 0 -2
BITMAP
05C0
0AC0
1980
6EF0
5D50
DDD0
DDD0
DDD0
DDD0
DDD0
DFF0
6010
7FE0
3980
ENDCHAR
STARTCHAR Wdieresis.salt
ENCODING 57646
SWIDTH 1170 0
DWIDTH 13 0
BBX 12 14 0 -2
BITMAP
06C0
0DC0
1940
6EF0
5D50
DDD0
DDD0
DDD0
DDD0
DDD0
DFF0
6010
7FE0
3980
ENDCHAR
STARTCHAR X.salt
ENCODING 57647
SWIDTH 837 0
DWIDTH 9 0
BBX 9 10 0 -1
BITMAP
3F80
5500
7680
6F00
4E80
5180
DD80
DD80
CC80
F700
ENDCHAR
STARTCHAR Y.salt
ENCODING 57648
SWIDTH 806 0
DWIDTH 9 0
BBX 9 10 0 -1
BITMAP
7F80
5580
DD80
DD80
D180
CE80
F700
7600
3200
3C00
ENDCHAR
STARTCHAR Yacute.salt
ENCODING 57649
SWIDTH 806 0
DWIDTH 9 0
BBX 9 13 0 -1
BITMAP
1700
2F00
6200
5D80
5580
DD80
DD80
D180
CE80
F700
7600
3200
3C00
ENDCHAR
STARTCHAR Ycircumflex.salt
ENCODING 57650
SWIDTH 806 0
DWIDTH 9 0
BBX 9 13 0 -1
BITMAP
1E00
2D00
6D00
5E80
5580
DD80
DD80
D180
CE80
F700
7600
3200
3C00
ENDCHAR
STARTCHAR Ydieresis.salt
ENCODING 57651
SWIDTH 806 0
DWIDTH 9 0
BBX 9 13 0 -1
BITMAP
1B00
3700
6500
5E80
5580
DD80
DD80
D180
CE80
F700
7600
3200
3C00
ENDCHAR
STARTCHAR Ygrave.salt
ENCODING 57652
SWIDTH 806 0
DWIDTH 9 0
BBX 9 13 0 -1
BITMAP
3A00
2D00
7100
4E80
5580
DD80
DD80
D180
CE80
F700
7600
3200
3C00
ENDCHAR
STARTCHAR AE.salt
ENCODING 57653
SWIDTH 1113 0
DWIDTH 12 0
BBX 12 10 0 -1
BITMAP
1FF0
2FF0
5110
DD60
DDD0
DF20
D140
DDF0
CC10
F7E0
ENDCHAR
STARTCHAR IJ.salt
ENCODING 57654
SWIDTH 1133 0
DWIDTH 12 0
BBX 12 11 0 -2
BITMAP
7870
58B0
D8B0
D8B0
D7B0
D6B0
D6B0
D570
C490
FFE0
0380
ENDCHAR
STARTCHAR IJ.stack
ENCODING 57655
SWIDTH 1363 0
DWIDTH 15 0
BBX 15 11 0 -2
BITMAP
7F1E
5D16
C936
EA36
2DF6
2D76
2F76
5D6A
C194
FFF8
00E0
ENDCHAR
STARTCHAR quoteleft.salt
ENCODING 57656
SWIDTH 407 0
DWIDTH 4 0
BBX 4 5 0 4
BITMAP
30
70
F0
D0
E0
ENDCHAR
STARTCHAR quoteright.salt
ENCODING 57657
SWIDTH 407 0
DWIDTH 4 0
BBX 4 5 0 4
BITMAP
70
70
F0
D0
E0
ENDCHAR
STARTCHAR ampersand.salt
ENCODING 57658
SWIDTH 732 0
DWIDTH 8 0
BBX 8 13 0 -3
BITMAP
1E
15
2F
51
76
5E
62
EC
DB
C5
72
1C
18
ENDCHAR
STARTCHAR caron.2
ENCODING 57659
SWIDTH 600 0
DWIDTH 7 0
BBX 4 5 1 4
BITMAP
70
70
F0
D0
E0
ENDCHAR
STARTCHAR indexup
ENCODING 57660
SWIDTH 1100 0
DWIDTH 12 0
BBX 8 10 2 -1
BITMAP
30
70
68
5E
42
62
62
5D
41
FE
ENDCHAR
STARTCHAR indexdown
ENCODING 57661
SWIDTH 1100 0
DWIDTH 12 0
BBX 8 10 2 -1
BITMAP
7F
5D
E2
62
42
5E
54
68
70
60
ENDCHAR
STARTCHAR indexupleft
ENCODING 57662
SWIDTH 1100 0
DWIDTH 12 0
BBX 8 11 2 -2
BITMAP
70
E8
74
64
63
C3
E5
7A
24
38
30
ENDCHAR
STARTCHAR indexupright
ENCODING 57663
SWIDTH 1100 0
DWIDTH 12 0
BBX 8 11 2 -2
BITMAP
03
05
0A
13
61
91
C9
E6
72
3C
10
ENDCHAR
STARTCHAR indexdownleft
ENCODING 57664
SWIDTH 1100 0
DWIDTH 12 0
BBX 10 9 1 -1
BITMAP
0700
0C80
0A80
1140
20C0
5480
9D00
FE00
0800
ENDCHAR
STARTCHAR indexdownright
ENCODING 57665
SWIDTH 1100 0
DWIDTH 12 0
BBX 10 9 1 -1
BITMAP
0C00
1400
2B00
5080
E080
E340
B5C0
1F80
0800
ENDCHAR
STARTCHAR indexdownleft.outline
ENCODING 57666
SWIDTH 1100 0
DWIDTH 12 0
BBX 9 8 2 0
BITMAP
0C00
0A00
1500
2280
5180
B100
DA00
0400
ENDCHAR
STARTCHAR indexdownright.outline
ENCODING 57667
SWIDTH 1100 0
DWIDTH 12 0
BBX 9 8 2 0
BITMAP
1800
2800
5400
6200
C300
2580
1F80
0800
ENDCHAR
STARTCHAR indexupleft.outline
ENCODING 57668
SWIDTH 1100 0
DWIDTH 12 0
BBX 7 10 3 -1
BITMAP
E0
50
68
48
C6
86
4C
38
28
10
ENDCHAR
STARTCHAR indexupright.outline
ENCODING 57669
SWIDTH 1100 0
DWIDTH 12 0
BBX 7 10 3 -1
BITMAP
06
0C
14
26
42
A2
52
2C
14
08
ENDCHAR
STARTCHAR uni261A.salt
ENCODING 57670
SWIDTH 1100 0
DWIDTH 12 0
BBX 10 7 1 0
BITMAP
7FC0
F8C0
F4C0
1CC0
1D40
0B80
0C00
ENDCHAR
STARTCHAR uni261B.salt
ENCODING 57671
SWIDTH 1100 0
DWIDTH 12 0
BBX 10 7 1 0
BITMAP
7FC0
D2C0
D580
D600
DC00
FA00
1C00
ENDCHAR
STARTCHAR indexdown.salt
ENCODING 57672
SWIDTH 1100 0
DWIDTH 12 0
BBX 8 10 2 -1
BITMAP
3F
2D
72
21
59
F5
3D
0D
0D
0E
ENDCHAR
STARTCHAR indexdownleft.salt
ENCODING 57673
SWIDTH 1100 0
DWIDTH 12 0
BBX 10 9 1 -1
BITMAP
0300
0480
0A40
1140
2480
4A80
5E80
EF00
8200
ENDCHAR
STARTCHAR indexdownright.salt
ENCODING 57674
SWIDTH 1100 0
DWIDTH 12 0
BBX 10 9 1 -1
BITMAP
0C00
1400
2A00
5100
D280
7540
27C0
3980
2100
ENDCHAR
STARTCHAR indexup.salt
ENCODING 57675
SWIDTH 1100 0
DWIDTH 12 0
BBX 8 10 2 -1
BITMAP
30
50
50
5C
5E
41
62
5E
42
FC
ENDCHAR
STARTCHAR indexupleft.salt
ENCODING 57676
SWIDTH 1100 0
DWIDTH 12 0
BBX 8 11 2 -2
BITMAP
60
D8
E4
74
52
63
45
FA
94
38
10
ENDCHAR
STARTCHAR indexupright.salt
ENCODING 57677
SWIDTH 1100 0
DWIDTH 12 0
BBX 8 11 2 -2
BITMAP
03
05
0A
16
25
52
C9
E7
76
38
10
ENDCHAR
STARTCHAR uni261C.salt
ENCODING 57678
SWIDTH 1100 0
DWIDTH 12 0
BBX 8 6 3 1
BITMAP
FF
E3
33
35
1B
10
ENDCHAR
STARTCHAR uni261D.salt
ENCODING 57679
SWIDTH 1100 0
DWIDTH 12 0
BBX 6 9 4 0
BITMAP
C0
C0
C0
B0
F8
8C
90
F8
F8
ENDCHAR
STARTCHAR uni261E.salt
ENCODING 57680
SWIDTH 1100 0
DWIDTH 12 0
BBX 8 6 3 1
BITMAP
FF
CF
D4
D8
F0
10
ENDCHAR
STARTCHAR uni261F.salt
ENCODING 57681
SWIDTH 1100 0
DWIDTH 12 0
BBX 6 9 4 0
BITMAP
7C
B4
48
84
F4
74
14
14
08
ENDCHAR
STARTCHAR indexdownleft.salt_outline
ENCODING 57682
SWIDTH 1100 0
DWIDTH 12 0
BBX 8 7 3 1
BITMAP
08
0C
36
45
97
EC
94
ENDCHAR
STARTCHAR indexdownright.salt_outline
ENCODING 57683
SWIDTH 1100 0
DWIDTH 12 0
BBX 8 7 3 1
BITMAP
30
50
A8
C4
DA
6D
73
ENDCHAR
STARTCHAR indexupleft.salt_outline
ENCODING 57684
SWIDTH 1100 0
DWIDTH 12 0
BBX 7 9 3 0
BITMAP
C0
70
48
68
64
46
8A
74
18
ENDCHAR
STARTCHAR indexupright.salt_outline
ENCODING 57685
SWIDTH 1100 0
DWIDTH 12 0
BBX 7 9 3 0
BITMAP
06
0A
14
24
6A
A4
52
2C
18
ENDCHAR
STARTCHAR block.v
ENCODING 57687
SWIDTH 1000 0
DWIDTH 11 0
BBX 11 13 0 -2
BITMAP
FFE0
FFE0
FFE0
FFE0
FFE0
FFE0
FFE0
FFE0
FFE0
FFE0
FFE0
FFE0
FFE0
ENDCHAR
STARTCHAR uni25D6.v
ENCODING 57688
SWIDTH 1335 0
DWIDTH 15 0
BBX 12 7 1 1
BITMAP
0F80
1FC0
3FE0
7FF0
7FF0
FFF0
FFF0
ENDCHAR
STARTCHAR uni25D7.v
ENCODING 57689
SWIDTH 1335 0
DWIDTH 15 0
BBX 12 7 1 1
BITMAP
FFF0
FFF0
7FF0
7FF0
7FE0
3FE0
1F80
ENDCHAR
STARTCHAR uni27A1.w
ENCODING 57690
SWIDTH 650 0
DWIDTH 7 0
BBX 8 18 0 -5
BITMAP
06
0E
0F
1F
3F
3F
7F
FF
FF
FF
7F
3F
3F
1F
0F
0E
06
02
ENDCHAR
STARTCHAR uni27A1.n
ENCODING 57691
SWIDTH 1000 0
DWIDTH 11 0
BBX 17 8 -3 0
BITMAP
FFFF80
FFFF80
7FFF00
1FFC00
0FF800
07F000
03E000
01C000
ENDCHAR
STARTCHAR uni27A1.s
ENCODING 57692
SWIDTH 1000 0
DWIDTH 11 0
BBX 17 8 -3 0
BITMAP
01C000
07F000
0FF800
1FFC00
3FFE00
7FFF00
FFFF80
1FFC00
ENDCHAR
STARTCHAR uni2B24.salt
ENCODING 57693
SWIDTH 1280 0
DWIDTH 14 0
BBX 12 14 1 -3
BITMAP
1FC0
7FE0
FFF0
FFF0
FFF0
FFF0
FFF0
FFF0
FFF0
FFF0
FFF0
7FE0
3FC0
0600
ENDCHAR
STARTCHAR uni25DD.curve
ENCODING 57694
SWIDTH 1280 0
DWIDTH 14 0
BBX 12 13 1 -2
BITMAP
FF80
FFC0
FFE0
FFF0
FFF0
FFF0
FFF0
FFF0
FFF0
FFF0
FFF0
FFF0
FFF0
ENDCHAR
STARTCHAR uni2B1B.trapezoid_e
ENCODING 57695
SWIDTH 1280 0
DWIDTH 14 0
BBX 13 13 1 -2
BITMAP
FFF8
FFF8
FFF8
FFF8
FFF0
FFF0
FFF0
FFF0
FFF0
FFE0
FFE0
FFE0
FFE0
ENDCHAR
STARTCHAR uni2B1B.trapezoid_w
ENCODING 57696
SWIDTH 1280 0
DWIDTH 14 0
BBX 13 13 0 -2
BITMAP
FFF8
FFF8
FFF8
7FF8
7FF8
7FF8
7FF8
7FF8
7FF8
3FF8
3FF8
3FF8
3FF8
ENDCHAR
STARTCHAR arrowleft.chevron
ENCODING 57697
SWIDTH 1330 0
DWIDTH 15 0
BBX 15 17 0 -4
BITMAP
0200
0600
0FFE
0FFC
1FFC
3FFC
7FF8
7FF8
FFF0
FFF8
7FF8
3FF8
1FFC
1FFC
0FFE
0600
0200
ENDCHAR
STARTCHAR arrowup.chevron
ENCODING 57698
SWIDTH 1280 0
DWIDTH 14 0
BBX 16 17 -1 -4
BITMAP
0180
03C0
07E0
0FF0
1FF8
3FFC
7FFE
FFFF
3FFC
3FFC
3FFC
3FFC
3FFC
3FFC
3FFC
3E7C
380C
ENDCHAR
STARTCHAR arrowright.chevron
ENCODING 57699
SWIDTH 1330 0
DWIDTH 15 0
BBX 15 17 0 -4
BITMAP
0080
00C0
FFC0
FFE0
7FF0
7FF0
7FF8
3FFC
3FFE
3FFC
3FF8
7FF8
7FF0
7FE0
FFC0
00C0
0080
ENDCHAR
STARTCHAR arrowdown.chevron
ENCODING 57700
SWIDTH 1280 0
DWIDTH 14 0
BBX 16 17 -1 -4
BITMAP
2004
3C1C
3FFC
3FFC
3FFC
3FFC
3FFC
3FFC
3FFC
3FFC
FFFF
7FFE
1FFC
0FF8
07E0
03C0
0180
ENDCHAR
STARTCHAR uni25D6.deco
ENCODING 57701
SWIDTH 560 0
DWIDTH 6 0
BBX 6 15 1 -3
BITMAP
18
3C
7C
FC
FC
FC
FC
FC
FC
FC
FC
FC
7C
3C
18
ENDCHAR
STARTCHAR uni25D7.deco
ENCODING 57702
SWIDTH 560 0
DWIDTH 6 0
BBX 6 15 0 -3
BITMAP
C0
E0
F0
F8
F8
F8
FC
FC
FC
FC
F8
F8
F8
E0
C0
ENDCHAR
STARTCHAR uni25D6.v_deco
ENCODING 57703
SWIDTH 1280 0
DWIDTH 14 0
BBX 14 6 0 1
BITMAP
1FE0
3FF0
7FF8
7FF8
FFFC
FFFC
ENDCHAR
STARTCHAR uni25D7.v_deco
ENCODING 57704
SWIDTH 1280 0
DWIDTH 14 0
BBX 14 7 0 1
BITMAP
7FF8
FFFC
FFFC
7FF8
3FF0
1FE0
0300
ENDCHAR
STARTCHAR uni25D6.bevel
ENCODING 57705
SWIDTH 350 0
DWIDTH 4 0
BBX 3 13 1 -2
BITMAP
20
60
E0
E0
E0
E0
E0
E0
E0
E0
E0
60
20
ENDCHAR
STARTCHAR uni25D7.bevel
ENCODING 57706
SWIDTH 350 0
DWIDTH 4 0
BBX 3 13 0 -2
BITMAP
80
C0
C0
E0
E0
E0
E0
E0
E0
E0
E0
C0
80
ENDCHAR
STARTCHAR uni25D6.v_bevel
ENCODING 57707
SWIDTH 1280 0
DWIDTH 14 0
BBX 12 4 1 2
BITMAP
3FC0
7FE0
FFF0
FFF0
ENDCHAR
STARTCHAR uni25D7.v_bevel
ENCODING 57708
SWIDTH 1280 0
DWIDTH 14 0
BBX 12 4 1 2
BITMAP
FFF0
7FE0
7FE0
3FC0
ENDCHAR
STARTCHAR uni25D6.spike
ENCODING 57709
SWIDTH 350 0
DWIDTH 4 0
BBX 4 13 0 -2
BITMAP
70
70
30
30
30
70
F0
70
30
30
30
30
70
ENDCHAR
STARTCHAR uni25D7.spike
ENCODING 57710
SWIDTH 350 0
DWIDTH 4 0
BBX 3 13 0 -2
BITMAP
E0
C0
C0
C0
C0
E0
E0
E0
C0
C0
C0
C0
E0
ENDCHAR
STARTCHAR uni25D6.v_spike
ENCODING 57711
SWIDTH 1280 0
DWIDTH 14 0
BBX 12 5 1 2
BITMAP
0200
8610
EF70
FFF0
FFF0
ENDCHAR
STARTCHAR uni25D7.v_spike
ENCODING 57712
SWIDTH 1280 0
DWIDTH 14 0
BBX 12 5 1 2
BITMAP
FFF0
FFF0
FFF0
CF30
0200
ENDCHAR
STARTCHAR uni25D6.square
ENCODING 57713
SWIDTH 350 0
DWIDTH 4 0
BBX 3 13 1 -2
BITMAP
E0
E0
E0
E0
E0
E0
E0
E0
E0
E0
E0
E0
E0
ENDCHAR
STARTCHAR uni25D7.square
ENCODING 57714
SWIDTH 350 0
DWIDTH 4 0
BBX 3 13 0 -2
BITMAP
E0
E0
E0
E0
E0
E0
E0
E0
E0
E0
E0
E0
E0
ENDCHAR
STARTCHAR uni25D6.v_square
ENCODING 57715
SWIDTH 1280 0
DWIDTH 14 0
BBX 12 3 1 3
BITMAP
FFF0
FFF0
FFF0
ENDCHAR
STARTCHAR uni25D7.v_square
ENCODING 57716
SWIDTH 1280 0
DWIDTH 14 0
BBX 12 3 1 3
BITMAP
FFF0
FFF0
FFF0
ENDCHAR
STARTCHAR uni25D6.rounded
ENCODING 57717
SWIDTH 350 0
DWIDTH 4 0
BBX 3 13 1 -2
BITMAP
60
60
E0
E0
E0
E0
E0
E0
E0
E0
E0
E0
60
ENDCHAR
STARTCHAR uni25D7.rounded
ENCODING 57718
SWIDTH 350 0
DWIDTH 4 0
BBX 3 13 0 -2
BITMAP
C0
C0
E0
E0
E0
E0
E0
E0
E0
E0
E0
C0
C0
ENDCHAR
STARTCHAR uni25D6.v_rounded
ENCODING 57719
SWIDTH 1280 0
DWIDTH 14 0
BBX 12 4 1 2
BITMAP
7FE0
FFF0
FFF0
FFF0
ENDCHAR
STARTCHAR uni25D7.v_rounded
ENCODING 57720
SWIDTH 1280 0
DWIDTH 14 0
BBX 12 4 1 2
BITMAP
FFF0
FFF0
7FE0
0F00
ENDCHAR
STARTCHAR uni21AB.arrow
ENCODING 57721
SWIDTH 1000 0
DWIDTH 11 0
BBX 14 22 -1 -11
BITMAP
7E00
7F80
7FC0
7FE0
7FE0
7FE0
7FF0
7FF0
7FF0
7FF0
7FF0
7FF0
7FF0
3FF0
FFFC
7FFC
7FF8
3FF0
1FE0
0FC0
0780
0300
ENDCHAR
STARTCHAR uni21AC.arrow
ENCODING 57722
SWIDTH 1000 0
DWIDTH 11 0
BBX 14 22 -1 -2
BITMAP
0100
0380
07C0
0FE0
1FE0
3FF0
7FF8
FFFC
3FF0
7FF0
7FF0
7FF0
7FF0
7FF0
7FF0
7FF0
7FE0
7FE0
7FE0
7FC0
7F80
7F00
ENDCHAR
STARTCHAR uni21AB.v_arrow
ENCODING 57723
SWIDTH 1335 0
DWIDTH 15 0
BBX 20 15 -7 -4
BITMAP
02FFF0
06FFF0
0FFFF0
1FFFF0
3FFFF0
3FFFF0
7FFFF0
FFFFF0
7FFFE0
3FFFE0
1FFFC0
0FFF00
07F800
060000
020000
ENDCHAR
STARTCHAR uni21AC.v_arrow
ENCODING 57724
SWIDTH 1335 0
DWIDTH 15 0
BBX 20 15 1 -4
BITMAP
FFF600
FFF700
FFFF80
FFFF80
FFFFC0
7FFFE0
7FFFF0
7FFFF0
7FFFF0
3FFFE0
1FFFC0
0FFF80
01FF00
000600
000400
ENDCHAR
STARTCHAR uni25D6.wings
ENCODING 57725
SWIDTH 900 0
DWIDTH 10 0
BBX 10 17 0 -4
BITMAP
3F00
3F00
FFC0
FFC0
FFC0
FFC0
FFC0
FFC0
FFC0
FFC0
FFC0
FFC0
FFC0
FFC0
FFC0
3F80
3F00
ENDCHAR
STARTCHAR uni25D7.wings
ENCODING 57726
SWIDTH 900 0
DWIDTH 10 0
BBX 10 17 0 -4
BITMAP
3F00
7F00
FFC0
FFC0
FFC0
FFC0
FFC0
FFC0
FFC0
FFC0
FFC0
FFC0
FFC0
FFC0
FFC0
7F00
3F00
ENDCHAR
STARTCHAR uni25D6.v_wings
ENCODING 57727
SWIDTH 1280 0
DWIDTH 14 0
BBX 16 11 -1 -1
BITMAP
3FFC
3FFC
FFFF
FFFF
FFFF
FFFF
FFFF
FFFF
FFFF
3FFC
3FFC
ENDCHAR
STARTCHAR uni25D7.v_wings
ENCODING 57728
SWIDTH 1280 0
DWIDTH 14 0
BBX 16 11 -1 -1
BITMAP
3FFC
3FFC
FFFF
FFFF
FFFF
FFFF
FFFF
FFFF
FFFF
3FFC
3FFC
ENDCHAR
STARTCHAR uni2B1B.chevron_e
ENCODING 57729
SWIDTH 1280 0
DWIDTH 14 0
BBX 14 13 0 -2
BITMAP
FFF0
FFF0
7FF8
7FF8
7FF8
3FFC
3FFC
3FFC
3FF8
7FF8
7FF8
7FF0
FFF0
ENDCHAR
STARTCHAR uni2B1B.chevron_n
ENCODING 57730
SWIDTH 1280 0
DWIDTH 14 0
BBX 12 15 1 -3
BITMAP
0600
3FC0
FFF0
FFF0
FFF0
FFF0
FFF0
FFF0
FFF0
FFF0
FFF0
FFF0
FFF0
F9F0
E070
ENDCHAR
STARTCHAR uni2B1B.chevron_s
ENCODING 57731
SWIDTH 1280 0
DWIDTH 14 0
BBX 12 15 1 -3
BITMAP
C030
F0F0
FFF0
FFF0
FFF0
FFF0
FFF0
FFF0
FFF0
FFF0
FFF0
FFF0
FFF0
3FC0
0F00
ENDCHAR
STARTCHAR uni2B1B.chevron_w
ENCODING 57732
SWIDTH 1280 0
DWIDTH 14 0
BBX 14 13 0 -2
BITMAP
3FFC
3FFC
7FF8
7FF8
7FF8
FFF0
FFF0
FFF0
7FF8
7FF8
7FF8
3FFC
3FFC
ENDCHAR
STARTCHAR uni2B1B.semichevron_e
ENCODING 57733
SWIDTH 650 0
DWIDTH 7 0
BBX 8 13 0 -2
BITMAP
FF
FF
7F
7F
7F
3F
3F
3F
3F
7F
7F
FF
FF
ENDCHAR
STARTCHAR uni2B1B.semichevron_w
ENCODING 57734
SWIDTH 650 0
DWIDTH 7 0
BBX 7 13 0 -2
BITMAP
FE
FE
FC
FC
FC
F8
F8
F8
FC
FC
FC
FE
FE
ENDCHAR
STARTCHAR uni2B1B.semichevron_n
ENCODING 57735
SWIDTH 1000 0
DWIDTH 11 0
BBX 11 9 0 0
BITMAP
8020
E0E0
FBE0
FFE0
FFE0
FFE0
FFE0
FFE0
FFE0
ENDCHAR
STARTCHAR uni2B1B.semichevron_s
ENCODING 57736
SWIDTH 1000 0
DWIDTH 11 0
BBX 11 9 0 0
BITMAP
FFE0
FFE0
FFE0
FFE0
FFE0
FFE0
FFE0
E0E0
8020
ENDCHAR
STARTCHAR space.v
ENCODING 57737
SWIDTH 1000 0
DWIDTH 11 0
BBX 1 1 0 0
BITMAP
00
ENDCHAR
STARTCHAR Agrave.v
ENCODING 57738
SWIDTH 1000 0
DWIDTH 11 0
BBX 9 12 1 -1
BITMAP
3F00
6F00
7E00
2D00
3300
5680
5D80
5180
DF80
DD80
CC80
F700
ENDCHAR
STARTCHAR Aacute.v
ENCODING 57739
SWIDTH 1000 0
DWIDTH 11 0
BBX 9 12 1 -1
BITMAP
3F00
2D00
7E00
6D00
3300
5680
5D80
5180
DF80
DD80
CC80
F700
ENDCHAR
STARTCHAR Acircumflex.v
ENCODING 57740
SWIDTH 1000 0
DWIDTH 11 0
BBX 9 12 1 -1
BITMAP
3F00
2300
7E00
6D00
3300
5680
5D80
5180
DF80
DD80
CC80
F700
ENDCHAR
STARTCHAR Atilde.v
ENCODING 57741
SWIDTH 1000 0
DWIDTH 11 0
BBX 9 12 1 -1
BITMAP
3F00
2F00
7E00
6D00
3300
5680
5D80
5180
DF80
DD80
CC80
F700
ENDCHAR
STARTCHAR Adieresis.v
ENCODING 57742
SWIDTH 1000 0
DWIDTH 11 0
BBX 9 12 1 -1
BITMAP
3F00
6500
7E00
6D00
3300
5680
5D80
5180
DF80
DD80
CC80
F700
ENDCHAR
STARTCHAR Aring.v
ENCODING 57743
SWIDTH 1000 0
DWIDTH 11 0
BBX 9 12 1 -1
BITMAP
3F00
3700
7700
6D00
3300
5680
5500
5F80
D180
DD80
CC80
F700
ENDCHAR
STARTCHAR Amacron.v
ENCODING 57744
SWIDTH 1000 0
DWIDTH 11 0
BBX 9 12 1 -1
BITMAP
3F00
2F00
7E00
6D00
3300
5680
5D80
5180
DF80
DD80
CC80
F700
ENDCHAR
STARTCHAR Abreve.v
ENCODING 57745
SWIDTH 1000 0
DWIDTH 11 0
BBX 9 12 1 -1
BITMAP
3F00
6F00
7E00
2D00
3300
5680
5D80
5180
DF80
DD80
CC80
F700
ENDCHAR
STARTCHAR Aogonek.v
ENCODING 57746
SWIDTH 1000 0
DWIDTH 11 0
BBX 9 12 1 -3
BITMAP
1F00
2D00
7300
5680
5980
DE80
D180
CD80
DE80
EF80
0C80
0F00
ENDCHAR
STARTCHAR Ccedilla.v
ENCODING 57747
SWIDTH 1000 0
DWIDTH 11 0
BBX 9 11 1 -2
BITMAP
3F80
4E80
5080
DF00
D000
D800
D780
CE80
7580
7200
3C00
ENDCHAR
STARTCHAR Cacute.v
ENCODING 57748
SWIDTH 1000 0
DWIDTH 11 0
BBX 9 12 1 -1
BITMAP
1F00
2D00
7F00
4E80
5080
DF00
DE00
D000
D900
DE80
E080
7F00
ENDCHAR
STARTCHAR Ccircumflex.v
ENCODING 57749
SWIDTH 1000 0
DWIDTH 11 0
BBX 9 12 1 -1
BITMAP
1F00
2300
7F00
4E80
5080
DF00
DE00
D000
D900
DE80
E080
7F00
ENDCHAR
STARTCHAR Cdotaccent.v
ENCODING 57750
SWIDTH 1000 0
DWIDTH 11 0
BBX 9 12 1 -1
BITMAP
1E00
1200
1D00
2E80
5080
DF00
DE00
D000
D900
DE80
E080
7F00
ENDCHAR
STARTCHAR Ccaron.v
ENCODING 57751
SWIDTH 1000 0
DWIDTH 11 0
BBX 9 13 1 -1
BITMAP
1000
2F00
6D00
7F00
2E80
5080
DF00
DE00
D000
D900
DE80
E080
7F00
ENDCHAR
STARTCHAR Dcaron.v
ENCODING 57752
SWIDTH 1000 0
DWIDTH 11 0
BBX 9 13 1 -1
BITMAP
1000
2F00
6D00
7E00
4D80
D380
DD80
DD80
DD80
DD80
DE80
C100
FE00
ENDCHAR
STARTCHAR Egrave.v
ENCODING 57753
SWIDTH 1000 0
DWIDTH 11 0
BBX 9 12 1 -1
BITMAP
3F00
6F00
7F00
4E80
D080
DF00
DF00
D100
DF00
DE80
C080
FF00
ENDCHAR
STARTCHAR Eacute.v
ENCODING 57754
SWIDTH 1000 0
DWIDTH 11 0
BBX 9 12 1 -1
BITMAP
3F00
2D00
7F00
4E80
D080
DF00
DF00
D100
DF00
DE80
C080
FF00
ENDCHAR
STARTCHAR Ecircumflex.v
ENCODING 57755
SWIDTH 1000 0
DWIDTH 11 0
BBX 9 12 1 -1
BITMAP
3F00
2300
7F00
4E80
D080
DF00
DF00
D100
DF00
DE80
C080
FF00
ENDCHAR
STARTCHAR Edieresis.v
ENCODING 57756
SWIDTH 1000 0
DWIDTH 11 0
BBX 9 12 1 -1
BITMAP
3F00
6500
7F00
4E80
D080
DF00
DF00
D100
DF00
DE80
C080
FF00
ENDCHAR
STARTCHAR Emacron.v
ENCODING 57757
SWIDTH 1000 0
DWIDTH 11 0
BBX 9 12 1 -1
BITMAP
3F00
2F00
7F00
4E80
D080
DF00
DF00
D100
DF00
DE80
C080
FF00
ENDCHAR
STARTCHAR Ebreve.v
ENCODING 57758
SWIDTH 1000 0
DWIDTH 11 0
BBX 9 12 1 -1
BITMAP
3F00
6F00
7F00
4E80
D080
DF00
DF00
D100
DF00
DE80
C080
FF00
ENDCHAR
STARTCHAR Edotaccent.v
ENCODING 57759
SWIDTH 1000 0
DWIDTH 11 0
BBX 9 12 1 -1
BITMAP
1E00
3200
3D00
4E80
D080
DF00
DF00
D100
DF00
DE80
C080
FF00
ENDCHAR
STARTCHAR Eogonek.v
ENCODING 57760
SWIDTH 1000 0
DWIDTH 11 0
BBX 9 12 1 -3
BITMAP
7F80
5E80
DE80
D100
DF00
DE00
D180
CE80
C280
FE80
0C80
0F00
ENDCHAR
STARTCHAR Ecaron.v
ENCODING 57761
SWIDTH 1000 0
DWIDTH 11 0
BBX 9 13 1 -1
BITMAP
1000
2F00
6D00
7F00
4E80
D080
DF00
DF00
D100
DF00
DE80
C080
FF00
ENDCHAR
STARTCHAR Gcircumflex.v
ENCODING 57762
SWIDTH 1000 0
DWIDTH 11 0
BBX 9 12 1 -1
BITMAP
3F00
2300
7E00
4F00
5100
DE00
DE00
D580
DD80
DF80
E080
7F00
ENDCHAR
STARTCHAR Gbreve.v
ENCODING 57763
SWIDTH 1000 0
DWIDTH 11 0
BBX 9 12 1 -1
BITMAP
3F00
6F00
7E00
2F00
5100
DE00
DE00
D580
DD80
DF80
E080
7F00
ENDCHAR
STARTCHAR Gdotaccent.v
ENCODING 57764
SWIDTH 1000 0
DWIDTH 11 0
BBX 9 12 1 -1
BITMAP
1E00
3200
3C00
2F00
5100
DE00
DE00
D580
DD80
DF80
E080
7F00
ENDCHAR
STARTCHAR Gcommaaccent.v
ENCODING 57765
SWIDTH 1000 0
DWIDTH 11 0
BBX 9 14 1 -5
BITMAP
3F00
4F00
5100
DE00
D580
DD80
D180
CE80
7D80
3200
3E00
3A00
1C00
1800
ENDCHAR
STARTCHAR Hcircumflex.v
ENCODING 57766
SWIDTH 1000 0
DWIDTH 11 0
BBX 9 12 1 -1
BITMAP
3F00
2300
7F00
4C80
DD80
DD80
DF80
D180
DD80
DD80
CC80
FF00
ENDCHAR
STARTCHAR Igrave.v
ENCODING 57767
SWIDTH 1000 0
DWIDTH 11 0
BBX 9 12 1 -1
BITMAP
3F00
6F00
7F00
5A80
C480
F500
7600
3600
3700
5E80
C080
FF00
ENDCHAR
STARTCHAR Iacute.v
ENCODING 57768
SWIDTH 1000 0
DWIDTH 11 0
BBX 9 12 1 -1
BITMAP
3F00
2D00
7F00
5A80
C480
F500
7600
3600
3700
5E80
C080
FF00
ENDCHAR
STARTCHAR Icircumflex.v
ENCODING 57769
SWIDTH 1000 0
DWIDTH 11 0
BBX 9 12 1 -1
BITMAP
3F00
2300
7F00
5A80
C480
F500
7600
3600
3700
5E80
C080
FF00
ENDCHAR
STARTCHAR Idieresis.v
ENCODING 57770
SWIDTH 1000 0
DWIDTH 11 0
BBX 9 12 1 -1
BITMAP
3F00
6500
7F00
5A80
C480
F500
7600
3600
3700
5E80
C080
FF00
ENDCHAR
STARTCHAR Itilde.v
ENCODING 57771
SWIDTH 1000 0
DWIDTH 11 0
BBX 9 12 1 -1
BITMAP
3F00
2F00
7F00
5A80
C480
F500
7600
3600
3700
5E80
C080
FF00
ENDCHAR
STARTCHAR Imacron.v
ENCODING 57772
SWIDTH 1000 0
DWIDTH 11 0
BBX 9 12 1 -1
BITMAP
3F00
2F00
7F00
5A80
C480
F500
7600
3600
3700
5E80
C080
FF00
ENDCHAR
STARTCHAR Ibreve.v
ENCODING 57773
SWIDTH 1000 0
DWIDTH 11 0
BBX 9 12 1 -1
BITMAP
3F00
6F00
7F00
5A80
C480
F500
7600
3600
3700
5E80
C080
FF00
ENDCHAR
STARTCHAR Iogonek.v
ENCODING 57774
SWIDTH 1000 0
DWIDTH 11 0
BBX 9 12 1 -3
BITMAP
7F80
5E80
C480
F700
3600
3600
4580
5A80
C280
FE80
0C80
0F00
ENDCHAR
STARTCHAR Idotaccent.v
ENCODING 57775
SWIDTH 1000 0
DWIDTH 11 0
BBX 9 12 1 -1
BITMAP
1E00
3200
3D00
5A80
C480
F500
7600
3600
3700
5E80
C080
FF00
ENDCHAR
STARTCHAR Jcircumflex.v
ENCODING 57776
SWIDTH 1000 0
DWIDTH 11 0
BBX 9 13 1 -2
BITMAP
1F80
1180
3F00
3480
0D80
0D80
7D80
5D80
DD80
DA80
E500
7E00
1800
ENDCHAR
STARTCHAR Kcommaaccent.v
ENCODING 57777
SWIDTH 1000 0
DWIDTH 11 0
BBX 9 14 1 -5
BITMAP
7F80
5B00
DB00
D500
DA80
D180
DD80
CC80
CD80
F200
3E00
3A00
1C00
1800
ENDCHAR
STARTCHAR Lacute.v
ENCODING 57778
SWIDTH 1000 0
DWIDTH 11 0
BBX 9 12 1 -1
BITMAP
7E00
5A00
FC00
C800
D800
D800
DB80
DC80
DD80
DF80
C080
FF00
ENDCHAR
STARTCHAR Lcommaaccent.v
ENCODING 57779
SWIDTH 1000 0
DWIDTH 11 0
BBX 9 14 1 -5
BITMAP
7800
5800
D800
DB00
DC80
DD80
D180
CE80
CD80
F200
3E00
3A00
1C00
1800
ENDCHAR
STARTCHAR Lcaron.v
ENCODING 57780
SWIDTH 1000 0
DWIDTH 11 0
BBX 9 10 1 -1
BITMAP
7B80
5D80
DD00
DE80
DD80
DD80
DD80
DF80
C080
FF00
ENDCHAR
STARTCHAR Ntilde.v
ENCODING 57781
SWIDTH 1000 0
DWIDTH 11 0
BBX 9 12 1 -1
BITMAP
3F00
2F00
7F00
4C80
D580
DA80
D580
DA80
DA80
DD80
CC80
F700
ENDCHAR
STARTCHAR Nacute.v
ENCODING 57782
SWIDTH 1000 0
DWIDTH 11 0
BBX 9 12 1 -1
BITMAP
3F00
2D00
7F00
4C80
D580
DA80
D580
DA80
DA80
DD80
CC80
F700
ENDCHAR
STARTCHAR Ncommaaccent.v
ENCODING 57783
SWIDTH 1000 0
DWIDTH 11 0
BBX 9 14 1 -5
BITMAP
7F80
5580
D580
D980
D580
DA80
DD80
CC80
CD80
F200
3E00
3A00
1C00
1800
ENDCHAR
STARTCHAR Ncaron.v
ENCODING 57784
SWIDTH 1000 0
DWIDTH 11 0
BBX 9 13 1 -1
BITMAP
1000
2F00
6D00
7F00
4C80
D580
DA80
D580
DA80
DA80
DD80
CC80
F700
ENDCHAR
STARTCHAR Ograve.v
ENCODING 57785
SWIDTH 1000 0
DWIDTH 11 0
BBX 9 13 1 -2
BITMAP
3F00
6F00
7F00
2E80
5180
DD80
D580
D580
DD80
DA80
E500
7E00
1800
ENDCHAR
STARTCHAR Oacute.v
ENCODING 57786
SWIDTH 1000 0
DWIDTH 11 0
BBX 9 13 1 -2
BITMAP
3F00
2D00
7F00
4E80
5180
DD80
D580
D580
DD80
DA80
E500
7E00
1800
ENDCHAR
STARTCHAR Ocircumflex.v
ENCODING 57787
SWIDTH 1000 0
DWIDTH 11 0
BBX 9 13 1 -2
BITMAP
3F00
2300
7F00
4E80
5180
DD80
D580
D580
DD80
DA80
E500
7E00
1800
ENDCHAR
STARTCHAR Otilde.v
ENCODING 57788
SWIDTH 1000 0
DWIDTH 11 0
BBX 9 13 1 -2
BITMAP
3F00
2F00
7F00
4E80
5180
DD80
D580
D580
DD80
DA80
E500
7E00
1800
ENDCHAR
STARTCHAR Odieresis.v
ENCODING 57789
SWIDTH 1000 0
DWIDTH 11 0
BBX 9 13 1 -2
BITMAP
3F00
6500
7F00
4E80
5180
DD80
D580
D580
DD80
DA80
E500
7E00
1800
ENDCHAR
STARTCHAR Omacron.v
ENCODING 57790
SWIDTH 1000 0
DWIDTH 11 0
BBX 9 13 1 -2
BITMAP
3F00
2F00
7F00
4E80
5180
DD80
D580
D580
DD80
DA80
E500
7E00
1800
ENDCHAR
STARTCHAR Obreve.v
ENCODING 57791
SWIDTH 1000 0
DWIDTH 11 0
BBX 9 13 1 -2
BITMAP
3F00
6F00
7F00
2E80
5180
DD80
D580
D580
DD80
DA80
E500
7E00
1800
ENDCHAR
STARTCHAR Ohungarumlaut.v
ENCODING 57792
SWIDTH 1000 0
DWIDTH 11 0
BBX 9 14 1 -2
BITMAP
1F80
2F00
2500
7F00
4E80
5180
DD80
D580
D580
DD80
DA80
E500
7E00
1800
ENDCHAR
STARTCHAR Racute.v
ENCODING 57793
SWIDTH 1000 0
DWIDTH 11 0
BBX 9 12 1 -1
BITMAP
3F00
2D00
7E00
4D00
D280
DE80
D300
DD80
D180
DD80
CC80
F700
ENDCHAR
STARTCHAR Rcommaaccent.v
ENCODING 57794
SWIDTH 1000 0
DWIDTH 11 0
BBX 9 14 1 -5
BITMAP
7F00
5D00
DA80
DF00
DE80
D180
DD80
CC80
CC80
F300
3E00
3A00
1C00
1800
ENDCHAR
STARTCHAR Rcaron.v
ENCODING 57795
SWIDTH 1000 0
DWIDTH 11 0
BBX 9 13 1 -1
BITMAP
1000
2F00
6D00
7E00
4D00
D280
DE80
D300
DD80
D180
DD80
CC80
F700
ENDCHAR
STARTCHAR Sacute.v
ENCODING 57796
SWIDTH 1000 0
DWIDTH 11 0
BBX 9 12 1 -1
BITMAP
3F00
2D00
7F00
4E80
5080
DF00
DC80
C380
7D80
5F80
C100
FE00
ENDCHAR
STARTCHAR Scircumflex.v
ENCODING 57797
SWIDTH 1000 0
DWIDTH 11 0
BBX 9 12 1 -1
BITMAP
3F00
2300
7F00
4E80
5080
DF00
DC80
C380
7D80
5F80
C100
FE00
ENDCHAR
STARTCHAR Scedilla.v
ENCODING 57798
SWIDTH 1000 0
DWIDTH 11 0
BBX 9 11 1 -2
BITMAP
3F80
5E80
5F00
D100
CE80
F980
4580
5E80
CB00
F200
3C00
ENDCHAR
STARTCHAR Scaron.v
ENCODING 57799
SWIDTH 1000 0
DWIDTH 11 0
BBX 9 13 1 -1
BITMAP
1000
2F00
6D00
7F00
2E80
5080
DF00
DC80
C380
7D80
5F80
C100
FE00
ENDCHAR
STARTCHAR Scommaaccent.v
ENCODING 57800
SWIDTH 1000 0
DWIDTH 11 0
BBX 9 14 1 -5
BITMAP
3F80
5E80
5F00
D100
CE80
F980
4580
5E80
CD00
F200
3E00
3A00
1C00
1800
ENDCHAR
STARTCHAR Tcommaaccent.v
ENCODING 57801
SWIDTH 1000 0
DWIDTH 11 0
BBX 9 13 1 -4
BITMAP
7F80
5F80
C480
F500
3600
3600
3200
3200
3E00
3200
3C00
1C00
1800
ENDCHAR
STARTCHAR Tcaron.v
ENCODING 57802
SWIDTH 1000 0
DWIDTH 11 0
BBX 9 13 1 -1
BITMAP
1000
2F00
6D00
7E00
5B80
C480
F500
7600
3600
3600
3600
3200
3C00
ENDCHAR
STARTCHAR Ugrave.v
ENCODING 57803
SWIDTH 1000 0
DWIDTH 11 0
BBX 9 13 1 -2
BITMAP
3F00
6F00
7F00
4C80
DD80
DD80
DD80
DD80
DD80
DA80
E500
7E00
1800
ENDCHAR
STARTCHAR Uacute.v
ENCODING 57804
SWIDTH 1000 0
DWIDTH 11 0
BBX 9 13 1 -2
BITMAP
1F00
2D00
3F00
4C80
DD80
DD80
DD80
DD80
DD80
DA80
E500
7E00
1800
ENDCHAR
STARTCHAR Ucircumflex.v
ENCODING 57805
SWIDTH 1000 0
DWIDTH 11 0
BBX 9 13 1 -2
BITMAP
3F00
2300
7F00
4C80
DD80
DD80
DD80
DD80
DD80
DA80
E500
7E00
1800
ENDCHAR
STARTCHAR Udieresis.v
ENCODING 57806
SWIDTH 1000 0
DWIDTH 11 0
BBX 9 13 1 -2
BITMAP
3F00
6500
7F00
4C80
DD80
DD80
DD80
DD80
DD80
DA80
E500
7E00
1800
ENDCHAR
STARTCHAR Utilde.v
ENCODING 57807
SWIDTH 1000 0
DWIDTH 11 0
BBX 9 13 1 -2
BITMAP
3F00
2F00
7F00
4C80
DD80
DD80
DD80
DD80
DD80
DA80
E500
7E00
1800
ENDCHAR
STARTCHAR Umacron.v
ENCODING 57808
SWIDTH 1000 0
DWIDTH 11 0
BBX 9 13 1 -2
BITMAP
3F00
2F00
7F00
4C80
DD80
DD80
DD80
DD80
DD80
DA80
E500
7E00
1800
ENDCHAR
STARTCHAR Ubreve.v
ENCODING 57809
SWIDTH 1000 0
DWIDTH 11 0
BBX 9 13 1 -2
BITMAP
3F00
6F00
7F00
4C80
DD80
DD80
DD80
DD80
DD80
DA80
E500
7E00
1800
ENDCHAR
STARTCHAR Uring.v
ENCODING 57810
SWIDTH 1000 0
DWIDTH 11 0
BBX 9 15 1 -2
BITMAP
3F00
3700
7700
6D00
7F00
4C80
DD80
DD80
DD80
DD80
DD80
DA80
E500
7E00
1800
ENDCHAR
STARTCHAR Uhungarumlaut.v
ENCODING 57811
SWIDTH 1000 0
DWIDTH 11 0
BBX 9 14 1 -2
BITMAP
1F80
2E80
2500
7F00
4C80
DD80
DD80
DD80
DD80
DD80
DA80
E500
7E00
1800
ENDCHAR
STARTCHAR Uogonek.v
ENCODING 57812
SWIDTH 1000 0
DWIDTH 11 0
BBX 9 12 1 -3
BITMAP
7F80
5D80
DD80
DD80
DD80
DD80
D180
CE80
6500
7E00
3200
1C00
ENDCHAR
STARTCHAR Wcircumflex.v
ENCODING 57813
SWIDTH 1000 0
DWIDTH 11 0
BBX 9 12 1 -1
BITMAP
3F00
2300
7F00
4E80
EF80
EB80
EB80
ED80
D380
D680
C480
7F00
ENDCHAR
STARTCHAR Wgrave.v
ENCODING 57814
SWIDTH 1000 0
DWIDTH 11 0
BBX 9 12 1 -1
BITMAP
3F00
6F00
7F00
4E80
EF80
EB80
EB80
ED80
D380
D680
C480
7F00
ENDCHAR
STARTCHAR Wacute.v
ENCODING 57815
SWIDTH 1000 0
DWIDTH 11 0
BBX 9 12 1 -1
BITMAP
1F00
2D00
7F00
4A80
EF80
EB80
EB80
ED80
D380
D680
C480
7F00
ENDCHAR
STARTCHAR Wdieresis.v
ENCODING 57816
SWIDTH 1000 0
DWIDTH 11 0
BBX 9 12 1 -1
BITMAP
3F00
6500
7F00
4E80
EF80
EB80
EB80
ED80
D380
D680
C480
7F00
ENDCHAR
STARTCHAR Yacute.v
ENCODING 57817
SWIDTH 1000 0
DWIDTH 11 0
BBX 9 12 1 -1
BITMAP
1F00
2D00
3F00
4C80
DD80
D580
D280
6B00
7600
3600
3200
3C00
ENDCHAR
STARTCHAR Ycircumflex.v
ENCODING 57818
SWIDTH 1000 0
DWIDTH 11 0
BBX 9 12 1 -1
BITMAP
3F00
2300
7F00
4C80
DD80
D580
D280
6B00
7600
3600
3200
3C00
ENDCHAR
STARTCHAR Ydieresis.v
ENCODING 57819
SWIDTH 1000 0
DWIDTH 11 0
BBX 9 12 1 -1
BITMAP
3F00
6500
7F00
4C80
DD80
D580
D280
6B00
7600
3600
3200
3C00
ENDCHAR
STARTCHAR Ygrave.v
ENCODING 57820
SWIDTH 1000 0
DWIDTH 11 0
BBX 9 12 1 -1
BITMAP
3F00
6F00
7F00
4C80
DD80
D580
D280
6B00
7600
3600
3200
3C00
ENDCHAR
STARTCHAR Zacute.v
ENCODING 57821
SWIDTH 1000 0
DWIDTH 11 0
BBX 9 12 1 -1
BITMAP
1F00
2D00
3F00
5E80
C180
FA80
7500
2A00
5400
7F80
C080
FF00
ENDCHAR
STARTCHAR Zdotaccent.v
ENCODING 57822
SWIDTH 1000 0
DWIDTH 11 0
BBX 9 12 1 -1
BITMAP
1E00
3200
3D00
5E80
C180
FA80
7500
2A00
5400
7F80
C080
FF00
ENDCHAR
STARTCHAR Zcaron.v
ENCODING 57823
SWIDTH 1000 0
DWIDTH 11 0
BBX 9 13 1 -1
BITMAP
1000
2F00
6D00
7F00
5E80
C180
FA80
7500
2A00
5400
7F80
C080
FF00
ENDCHAR
STARTCHAR AE.v
ENCODING 57824
SWIDTH 1000 0
DWIDTH 11 0
BBX 9 10 1 -1
BITMAP
3F80
2F80
5480
5D80
6F80
FC80
E500
EF80
C880
FF00
ENDCHAR
STARTCHAR Eth.v
ENCODING 57825
SWIDTH 1000 0
DWIDTH 11 0
BBX 9 10 1 -1
BITMAP
7F00
5E80
D180
DD80
B580
9580
DD80
DE80
C100
FE00
ENDCHAR
STARTCHAR Oslash.v
ENCODING 57826
SWIDTH 1000 0
DWIDTH 11 0
BBX 9 12 1 -2
BITMAP
0380
3D00
5E80
5A80
DD80
DA80
DD80
DD80
DA80
F500
4E00
7800
ENDCHAR
STARTCHAR Thorn.v
ENCODING 57827
SWIDTH 1000 0
DWIDTH 11 0
BBX 9 10 1 -1
BITMAP
7800
5F00
DE80
D180
DD80
DD80
DE80
D100
CE00
F000
ENDCHAR
STARTCHAR Dcroat.v
ENCODING 57828
SWIDTH 1000 0
DWIDTH 11 0
BBX 9 10 1 -1
BITMAP
7F00
5E80
D180
DD80
B580
9580
DD80
DE80
C100
FE00
ENDCHAR
STARTCHAR Hbar.v
ENCODING 57829
SWIDTH 1000 0
DWIDTH 11 0
BBX 9 10 1 -1
BITMAP
7F80
5580
BF80
9180
DD80
D180
DF80
DD80
CC80
F700
ENDCHAR
STARTCHAR IJ.v
ENCODING 57830
SWIDTH 1000 0
DWIDTH 11 0
BBX 9 10 1 -1
BITMAP
7F80
5D80
DD80
DD80
CD80
FD80
2D80
5E80
C100
FE00
ENDCHAR
STARTCHAR Ldot.v
ENCODING 57831
SWIDTH 1000 0
DWIDTH 11 0
BBX 9 13 1 -4
BITMAP
7800
5800
D800
DB00
DC80
DD80
D180
CE80
CE80
F100
1600
1200
1C00
ENDCHAR
STARTCHAR Lslash.v
ENCODING 57832
SWIDTH 1000 0
DWIDTH 11 0
BBX 9 10 1 -1
BITMAP
7800
5800
D800
D400
FF80
DD80
DD80
DF80
C080
FF00
ENDCHAR
STARTCHAR Eng.v
ENCODING 57833
SWIDTH 1000 0
DWIDTH 11 0
BBX 9 12 1 -3
BITMAP
1F00
3E80
5180
DD80
DD80
DD80
DD80
DD80
CB80
F900
1E00
0800
ENDCHAR
STARTCHAR OE.v
ENCODING 57834
SWIDTH 1000 0
DWIDTH 11 0
BBX 9 10 1 -1
BITMAP
3F80
5F80
6280
EB80
EB80
EA80
EB00
DF80
C080
7F00
ENDCHAR
STARTCHAR Tbar.v
ENCODING 57835
SWIDTH 1000 0
DWIDTH 11 0
BBX 9 10 1 -1
BITMAP
7F80
DF80
F700
3700
2F00
6500
7600
3200
3200
3C00
ENDCHAR
STARTCHAR Germandbls.v
ENCODING 57836
SWIDTH 1000 0
DWIDTH 11 0
BBX 9 10 1 -1
BITMAP
7F00
5F00
D300
DB00
DA80
D980
DD80
DB80
C880
FF00
ENDCHAR
STARTCHAR A.salt_v
ENCODING 57837
SWIDTH 1000 0
DWIDTH 11 0
BBX 9 10 1 -1
BITMAP
3F00
5E80
5580
DD80
DD80
DF80
D180
DD80
CC80
F700
ENDCHAR
STARTCHAR Agrave.salt_v
ENCODING 57838
SWIDTH 1000 0
DWIDTH 11 0
BBX 9 12 1 -1
BITMAP
3F00
6F00
7F00
2E80
5180
DD80
D580
DF80
D180
DD80
CC80
F700
ENDCHAR
STARTCHAR Aacute.salt_v
ENCODING 57839
SWIDTH 1000 0
DWIDTH 11 0
BBX 9 12 1 -1
BITMAP
3F00
2D00
7F00
4E80
5180
DD80
D580
DF80
D180
DD80
CC80
F700
ENDCHAR
STARTCHAR Acircumflex.salt_v
ENCODING 57840
SWIDTH 1000 0
DWIDTH 11 0
BBX 9 12 1 -1
BITMAP
3F00
2300
7F00
4E80
5180
DD80
D580
DF80
D180
DD80
CC80
F700
ENDCHAR
STARTCHAR Atilde.salt_v
ENCODING 57841
SWIDTH 1000 0
DWIDTH 11 0
BBX 9 12 1 -1
BITMAP
3F00
2F00
7F00
4E80
5180
DD80
D580
DF80
D180
DD80
CC80
F700
ENDCHAR
STARTCHAR Adieresis.salt_v
ENCODING 57842
SWIDTH 1000 0
DWIDTH 11 0
BBX 9 12 1 -1
BITMAP
3F00
6500
7F00
4E80
5180
DD80
D580
DF80
D180
DD80
CC80
F700
ENDCHAR
STARTCHAR Aring.salt_v
ENCODING 57843
SWIDTH 1000 0
DWIDTH 11 0
BBX 9 12 1 -1
BITMAP
3F00
3700
7700
4E80
5180
DD80
DD80
DF80
D180
DD80
CC80
F700
ENDCHAR
STARTCHAR Amacron.salt_v
ENCODING 57844
SWIDTH 1000 0
DWIDTH 11 0
BBX 9 12 1 -1
BITMAP
3F00
2F00
7F00
4E80
5180
DD80
D580
DF80
D180
DD80
CC80
F700
ENDCHAR
STARTCHAR Abreve.salt_v
ENCODING 57845
SWIDTH 1000 0
DWIDTH 11 0
BBX 9 12 1 -1
BITMAP
3F00
6F00
7F00
2E80
5180
DD80
D580
DF80
D180
DD80
CC80
F700
ENDCHAR
STARTCHAR Aogonek.salt_v
ENCODING 57846
SWIDTH 1000 0
DWIDTH 11 0
BBX 9 13 1 -4
BITMAP
1500
2E80
5180
DD80
DD80
DF80
D180
DD80
CE80
F680
0D80
0F00
0600
ENDCHAR
STARTCHAR E.salt_v
ENCODING 57847
SWIDTH 1000 0
DWIDTH 11 0
BBX 9 10 1 -1
BITMAP
3F80
4E80
5180
DE00
DF00
D100
DF00
DE80
6080
7F00
ENDCHAR
STARTCHAR Egrave.salt_v
ENCODING 57848
SWIDTH 1000 0
DWIDTH 11 0
BBX 9 12 1 -1
BITMAP
3F00
6F00
7F00
2E80
5080
DF00
DF00
D100
DF00
DE80
E080
7F00
ENDCHAR
STARTCHAR Eacute.salt_v
ENCODING 57849
SWIDTH 1000 0
DWIDTH 11 0
BBX 9 12 1 -1
BITMAP
3F00
2D00
7F00
4E80
5080
DF00
DF00
D100
DF00
DE80
E080
7F00
ENDCHAR
STARTCHAR Ecircumflex.salt_v
ENCODING 57850
SWIDTH 1000 0
DWIDTH 11 0
BBX 9 12 1 -1
BITMAP
3F00
2300
7F00
4E80
5080
DF00
DF00
D100
DF00
DE80
E080
7F00
ENDCHAR
STARTCHAR Edieresis.salt_v
ENCODING 57851
SWIDTH 1000 0
DWIDTH 11 0
BBX 9 12 1 -1
BITMAP
3F00
6500
7F00
4E80
5080
DF00
DF00
D100
DF00
DE80
E080
7F00
ENDCHAR
STARTCHAR Emacron.salt_v
ENCODING 57852
SWIDTH 1000 0
DWIDTH 11 0
BBX 9 12 1 -1
BITMAP
3F00
2F00
7F00
4E80
5080
DF00
DF00
D100
DF00
DE80
E080
7F00
ENDCHAR
STARTCHAR Ebreve.salt_v
ENCODING 57853
SWIDTH 1000 0
DWIDTH 11 0
BBX 9 12 1 -1
BITMAP
3F00
6F00
7F00
2E80
5080
DF00
DF00
D100
DF00
DE80
E080
7F00
ENDCHAR
STARTCHAR Edotaccent.salt_v
ENCODING 57854
SWIDTH 1000 0
DWIDTH 11 0
BBX 9 12 1 -1
BITMAP
1E00
3200
3D00
2E80
5080
DF00
DF00
D100
DF00
DE80
E080
7F00
ENDCHAR
STARTCHAR Eogonek.salt_v
ENCODING 57855
SWIDTH 1000 0
DWIDTH 11 0
BBX 9 12 1 -3
BITMAP
3F80
4E80
5680
D900
DF00
DE00
D180
CE80
7280
7E80
0C80
0F00
ENDCHAR
STARTCHAR Ecaron.salt_v
ENCODING 57856
SWIDTH 1000 0
DWIDTH 11 0
BBX 9 13 1 -1
BITMAP
1000
2F00
6D00
7F00
2E80
5080
DF00
DF00
D100
DF00
DE80
E080
7F00
ENDCHAR
STARTCHAR I.salt_v
ENCODING 57857
SWIDTH 1000 0
DWIDTH 11 0
BBX 5 10 3 -1
BITMAP
78
58
D8
D8
D8
D8
D8
D8
C8
F0
ENDCHAR
STARTCHAR I_I.salt_v
ENCODING 57858
SWIDTH 1000 0
DWIDTH 11 0
BBX 9 10 1 -1
BITMAP
7F80
5D80
DD80
DD80
DD80
DD80
DD80
DD80
CC80
FF00
ENDCHAR
STARTCHAR Igrave.salt_v
ENCODING 57859
SWIDTH 1000 0
DWIDTH 11 0
BBX 7 12 2 -1
BITMAP
7E
DE
FC
24
6C
6C
6C
6C
6C
6C
64
78
ENDCHAR
STARTCHAR Iacute.salt_v
ENCODING 57860
SWIDTH 1000 0
DWIDTH 11 0
BBX 7 12 2 -1
BITMAP
7E
5A
FC
E4
6C
6C
6C
6C
6C
6C
64
78
ENDCHAR
STARTCHAR Icircumflex.salt_v
ENCODING 57861
SWIDTH 1000 0
DWIDTH 11 0
BBX 7 12 2 -1
BITMAP
7E
46
FC
E4
6C
6C
6C
6C
6C
6C
64
78
ENDCHAR
STARTCHAR Idieresis.salt_v
ENCODING 57862
SWIDTH 1000 0
DWIDTH 11 0
BBX 7 12 2 -1
BITMAP
7E
CA
FC
E4
6C
6C
6C
6C
6C
6C
64
78
ENDCHAR
STARTCHAR Itilde.salt_v
ENCODING 57863
SWIDTH 1000 0
DWIDTH 11 0
BBX 7 12 2 -1
BITMAP
7E
5E
FC
E4
6C
6C
6C
6C
6C
6C
64
78
ENDCHAR
STARTCHAR Imacron.salt_v
ENCODING 57864
SWIDTH 1000 0
DWIDTH 11 0
BBX 7 12 2 -1
BITMAP
7E
5E
FC
E4
6C
6C
6C
6C
6C
6C
64
78
ENDCHAR
STARTCHAR Ibreve.salt_v
ENCODING 57865
SWIDTH 1000 0
DWIDTH 11 0
BBX 7 12 2 -1
BITMAP
7E
DE
FC
64
6C
6C
6C
6C
6C
6C
64
78
ENDCHAR
STARTCHAR Iogonek.salt_v
ENCODING 57866
SWIDTH 1000 0
DWIDTH 11 0
BBX 5 12 3 -4
BITMAP
78
58
D8
D8
D8
D8
D8
E8
E8
D8
F0
60
ENDCHAR
STARTCHAR Idotaccent.salt_v
ENCODING 57867
SWIDTH 1000 0
DWIDTH 11 0
BBX 5 12 3 -1
BITMAP
78
C8
F0
C8
D8
D8
D8
D8
D8
D8
C8
F0
ENDCHAR
STARTCHAR L.salt_v
ENCODING 57868
SWIDTH 1000 0
DWIDTH 11 0
BBX 9 10 1 -1
BITMAP
7800
5800
D800
D800
D800
D800
D900
DE80
C080
FF00
ENDCHAR
STARTCHAR Lacute.salt_v
ENCODING 57869
SWIDTH 1000 0
DWIDTH 11 0
BBX 9 12 1 -1
BITMAP
7E00
5A00
FC00
C800
D800
D800
D800
D800
D900
DE80
C080
FF00
ENDCHAR
STARTCHAR Lcommaaccent.salt_v
ENCODING 57870
SWIDTH 1000 0
DWIDTH 11 0
BBX 9 14 1 -5
BITMAP
7800
5800
D800
D800
D800
D800
D780
CE80
CD80
F200
3E00
3A00
1C00
1800
ENDCHAR
STARTCHAR Lcaron.salt_v
ENCODING 57871
SWIDTH 1000 0
DWIDTH 11 0
BBX 9 10 1 -1
BITMAP
7B80
5B80
DF80
DE80
DF00
D800
D900
DE80
C080
FF00
ENDCHAR
STARTCHAR Ldot.salt_v
ENCODING 57872
SWIDTH 1000 0
DWIDTH 11 0
BBX 9 13 1 -4
BITMAP
7800
5800
D800
D800
D800
D800
D780
CE80
DD80
E200
2A00
2400
3800
ENDCHAR
STARTCHAR Lslash.salt_v
ENCODING 57873
SWIDTH 1000 0
DWIDTH 11 0
BBX 9 10 1 -1
BITMAP
7800
5800
D800
9400
B400
D800
D900
DE80
C080
FF00
ENDCHAR
STARTCHAR L.salt_s_v
ENCODING 57874
SWIDTH 1000 0
DWIDTH 11 0
BBX 9 9 1 -1
BITMAP
7800
D800
D800
D800
D800
D900
DE80
C080
FF00
ENDCHAR
STARTCHAR M.salt_v
ENCODING 57875
SWIDTH 1000 0
DWIDTH 11 0
BBX 9 10 1 -1
BITMAP
3F80
7F80
B780
B780
B780
B780
B780
B780
9280
FF00
ENDCHAR
STARTCHAR N.salt_v
ENCODING 57876
SWIDTH 1000 0
DWIDTH 11 0
BBX 9 10 1 -1
BITMAP
3F00
5E80
5580
DD80
DD80
DD80
DD80
DD80
CC80
FF00
ENDCHAR
STARTCHAR Ntilde.salt_v
ENCODING 57877
SWIDTH 1000 0
DWIDTH 11 0
BBX 9 12 1 -1
BITMAP
3F00
2F00
7F00
4E80
5180
DD80
DD80
DD80
DD80
DD80
CC80
FF00
ENDCHAR
STARTCHAR Nacute.salt_v
ENCODING 57878
SWIDTH 1000 0
DWIDTH 11 0
BBX 9 12 1 -1
BITMAP
3F00
2D00
7F00
4E80
5180
DD80
DD80
DD80
DD80
DD80
CC80
FF00
ENDCHAR
STARTCHAR Ncommaaccent.salt_v
ENCODING 57879
SWIDTH 1000 0
DWIDTH 11 0
BBX 9 13 1 -4
BITMAP
3F00
5E80
5180
DD80
DD80
DD80
CC80
CC80
FF00
3200
3C00
1C00
1800
ENDCHAR
STARTCHAR Ncaron.salt_v
ENCODING 57880
SWIDTH 1000 0
DWIDTH 11 0
BBX 9 13 1 -1
BITMAP
1000
2F00
6D00
7F00
2E80
5180
DD80
DD80
DD80
DD80
DD80
CC80
FF00
ENDCHAR
STARTCHAR W.salt_v
ENCODING 57881
SWIDTH 1000 0
DWIDTH 11 0
BBX 9 11 1 -2
BITMAP
7F80
B780
B780
B780
B780
B780
B780
BD80
C280
FF00
6400
ENDCHAR
STARTCHAR Wcircumflex.salt_v
ENCODING 57882
SWIDTH 1000 0
DWIDTH 11 0
BBX 9 13 1 -2
BITMAP
3F00
2300
7F00
9280
B780
B780
B780
B780
B780
BD80
C280
FF00
6400
ENDCHAR
STARTCHAR Wgrave.salt_v
ENCODING 57883
SWIDTH 1000 0
DWIDTH 11 0
BBX 9 13 1 -2
BITMAP
3F00
6F00
7F00
9280
B780
B780
B780
B780
B780
BD80
C280
FF00
6400
ENDCHAR
STARTCHAR Wacute.salt_v
ENCODING 57884
SWIDTH 1000 0
DWIDTH 11 0
BBX 9 13 1 -2
BITMAP
3F00
2D00
7F00
9280
B780
B780
B780
B780
B780
BD80
C280
FF00
6400
ENDCHAR
STARTCHAR Wdieresis.salt_v
ENCODING 57885
SWIDTH 1000 0
DWIDTH 11 0
BBX 9 13 1 -2
BITMAP
3F00
6500
7F00
9280
B780
B780
B780
B780
B780
BD80
C280
FF00
6400
ENDCHAR
STARTCHAR X.salt_v
ENCODING 57886
SWIDTH 1100 0
DWIDTH 12 0
BBX 8 10 2 -1
BITMAP
7F
DB
DB
DA
5D
A3
AF
AF
8D
FF
ENDCHAR
STARTCHAR Y.salt_v
ENCODING 57887
SWIDTH 1000 0
DWIDTH 11 0
BBX 9 10 1 -1
BITMAP
7F80
5D80
DD80
DD80
D180
CE80
7700
7600
3200
3C00
ENDCHAR
STARTCHAR Yacute.salt_v
ENCODING 57888
SWIDTH 1000 0
DWIDTH 11 0
BBX 9 12 1 -1
BITMAP
3F00
2D00
7F00
4C80
DD80
DD80
D180
CA80
6500
7600
3200
3C00
ENDCHAR
STARTCHAR Ycircumflex.salt_v
ENCODING 57889
SWIDTH 1000 0
DWIDTH 11 0
BBX 9 12 1 -1
BITMAP
3F00
2300
7F00
4C80
DD80
DD80
D180
CA80
6500
7600
3200
3C00
ENDCHAR
STARTCHAR Ydieresis.salt_v
ENCODING 57890
SWIDTH 1000 0
DWIDTH 11 0
BBX 9 12 1 -1
BITMAP
3F00
6500
7F00
4C80
DD80
DD80
D180
CA80
6500
7600
3200
3C00
ENDCHAR
STARTCHAR Ygrave.salt_v
ENCODING 57891
SWIDTH 1000 0
DWIDTH 11 0
BBX 9 12 1 -1
BITMAP
3F00
6F00
7F00
4C80
DD80
DD80
D180
CA80
6500
7600
3200
3C00
ENDCHAR
STARTCHAR AE.salt_v
ENCODING 57892
SWIDTH 1000 0
DWIDTH 11 0
BBX 9 10 1 -1
BITMAP
3F80
5F80
6280
EB80
EB80
FE80
E300
EB80
C880
FF00
ENDCHAR
STARTCHAR IJ.salt_v
ENCODING 57893
SWIDTH 1000 0
DWIDTH 11 0
BBX 9 19 1 -6
BITMAP
1E00
3600
3600
3600
3600
3600
3600
3200
3F00
0480
0D80
0D80
7D80
5D80
DD80
DA80
E500
7E00
1800
ENDCHAR
STARTCHAR IJ.stack_v
ENCODING 57894
SWIDTH 1000 0
DWIDTH 11 0
BBX 9 19 1 -6
BITMAP
7F80
C480
F500
7600
3600
3700
5E80
C080
FF00
0480
0580
0D80
3D80
4D80
DD80
D180
CE80
7300
7C00
ENDCHAR
STARTCHAR commaaccent.v
ENCODING 57895
SWIDTH 1000 0
DWIDTH 11 0
BBX 5 5 3 -5
BITMAP
30
78
E8
F8
70
ENDCHAR
STARTCHAR hyphen.v
ENCODING 57896
SWIDTH 1000 0
DWIDTH 11 0
BBX 3 6 4 1
BITMAP
60
A0
A0
A0
A0
C0
ENDCHAR
STARTCHAR endash.v
ENCODING 57897
SWIDTH 1000 0
DWIDTH 11 0
BBX 3 9 4 -1
BITMAP
E0
A0
A0
A0
A0
A0
A0
E0
C0
ENDCHAR
STARTCHAR emdash.v
ENCODING 57898
SWIDTH 1000 0
DWIDTH 11 0
BBX 3 13 4 -3
BITMAP
E0
A0
A0
A0
A0
A0
A0
A0
A0
A0
A0
A0
C0
ENDCHAR
STARTCHAR parenleft.v
ENCODING 57899
SWIDTH 1000 0
DWIDTH 11 0
BBX 11 6 0 1
BITMAP
3FC0
4020
BFE0
AFE0
9FA0
E1C0
ENDCHAR
STARTCHAR parenright.v
ENCODING 57900
SWIDTH 1000 0
DWIDTH 11 0
BBX 11 6 0 1
BITMAP
6060
9FA0
A060
DFA0
E040
7F80
ENDCHAR
STARTCHAR bracketleft.v
ENCODING 57901
SWIDTH 1000 0
DWIDTH 11 0
BBX 11 6 0 1
BITMAP
7FE0
8020
BFE0
AFE0
9FA0
E1C0
ENDCHAR
STARTCHAR bracketright.v
ENCODING 57902
SWIDTH 1000 0
DWIDTH 11 0
BBX 11 6 0 1
BITMAP
6060
9FA0
A060
9FA0
8020
FFC0
ENDCHAR
STARTCHAR braceleft.v
ENCODING 57903
SWIDTH 1000 0
DWIDTH 11 0
BBX 11 6 0 1
BITMAP
0700
3EE0
59A0
A260
9FA0
E1E0
ENDCHAR
STARTCHAR braceright.v
ENCODING 57904
SWIDTH 1000 0
DWIDTH 11 0
BBX 11 6 0 1
BITMAP
70E0
AF60
BBE0
C620
F9C0
7F00
ENDCHAR
STARTCHAR quoteleft.v
ENCODING 57905
SWIDTH 1000 0
DWIDTH 11 0
BBX 5 6 3 1
BITMAP
38
70
E8
F8
C8
F0
ENDCHAR
STARTCHAR quoteright.v
ENCODING 57906
SWIDTH 1000 0
DWIDTH 11 0
BBX 5 6 3 1
BITMAP
78
F8
D8
E8
F0
E0
ENDCHAR
STARTCHAR quotedblleft.v
ENCODING 57907
SWIDTH 1000 0
DWIDTH 11 0
BBX 9 6 1 1
BITMAP
3F00
5D00
6480
D780
C480
FF00
ENDCHAR
STARTCHAR quotedblright.v
ENCODING 57908
SWIDTH 1000 0
DWIDTH 11 0
BBX 9 6 1 1
BITMAP
7F80
D780
C880
F780
7F00
6E00
ENDCHAR
STARTCHAR quotesinglbase.v
ENCODING 57909
SWIDTH 1000 0
DWIDTH 11 0
BBX 5 7 3 0
BITMAP
38
48
F8
F8
E8
F0
40
ENDCHAR
STARTCHAR quotedblbase.v
ENCODING 57910
SWIDTH 1000 0
DWIDTH 11 0
BBX 9 6 1 1
BITMAP
7F80
D780
C880
F780
7F00
6E00
ENDCHAR
STARTCHAR guilsinglleft.v
ENCODING 57911
SWIDTH 1000 0
DWIDTH 11 0
BBX 7 7 2 0
BITMAP
3E
5C
56
EE
CA
FE
C8
ENDCHAR
STARTCHAR guilsinglright.v
ENCODING 57912
SWIDTH 1000 0
DWIDTH 11 0
BBX 7 7 2 0
BITMAP
7E
EE
EE
D6
CA
7C
70
ENDCHAR
STARTCHAR guillemotleft.v
ENCODING 57913
SWIDTH 1000 0
DWIDTH 11 0
BBX 7 10 2 -1
BITMAP
3C
4A
56
4A
FE
EA
56
6E
CA
FC
ENDCHAR
STARTCHAR guillemotright.v
ENCODING 57914
SWIDTH 1000 0
DWIDTH 11 0
BBX 7 10 2 -1
BITMAP
7E
EE
D6
CA
7C
4A
EE
DC
64
78
ENDCHAR
STARTCHAR period.v
ENCODING 57915
SWIDTH 1000 0
DWIDTH 11 0
BBX 5 5 3 1
BITMAP
38
58
C8
C8
F0
ENDCHAR
STARTCHAR comma.v
ENCODING 57916
SWIDTH 1000 0
DWIDTH 11 0
BBX 5 7 3 0
BITMAP
38
48
F8
F8
E8
F0
40
ENDCHAR
STARTCHAR ellipsis.v
ENCODING 57917
SWIDTH 1000 0
DWIDTH 11 0
BBX 13 5 -1 1
BITMAP
3BB8
5558
C448
C448
FFF0
ENDCHAR
STARTCHAR exclamdown.v
ENCODING 57918
SWIDTH 1000 0
DWIDTH 11 0
BBX 5 10 3 -1
BITMAP
78
D8
F0
C8
D8
D8
D8
C8
C8
F0
ENDCHAR
STARTCHAR questiondown.v
ENCODING 57919
SWIDTH 1000 0
DWIDTH 11 0
BBX 7 10 2 -1
BITMAP
1E
36
32
3E
5A
A2
AE
9E
E2
FC
ENDCHAR
STARTCHAR dagger.v
ENCODING 57920
SWIDTH 1000 0
DWIDTH 11 0
BBX 9 10 1 -1
BITMAP
1E00
3400
4780
DF80
C480
F700
1400
1200
1200
3C00
ENDCHAR
STARTCHAR daggerdbl.v
ENCODING 57921
SWIDTH 1000 0
DWIDTH 11 0
BBX 9 10 1 -1
BITMAP
3E00
5F80
C480
F700
4480
5F80
C480
F380
D200
3C00
ENDCHAR
STARTCHAR perthousand.v
ENCODING 57922
SWIDTH 1000 0
DWIDTH 11 0
BBX 11 10 0 -1
BITMAP
3F80
7D00
DB00
EE00
D6C0
7D60
2BE0
3D60
4AA0
FFC0
ENDCHAR
STARTCHAR ampersand.salt_v
ENCODING 57923
SWIDTH 1000 0
DWIDTH 11 0
BBX 9 13 1 -3
BITMAP
0E00
1580
2F80
7080
7700
4F00
5100
DE00
DB80
C480
7100
1E00
1800
ENDCHAR
STARTCHAR quoteleft.salt_v
ENCODING 57924
SWIDTH 1000 0
DWIDTH 11 0
BBX 4 5 1 1
BITMAP
70
70
D0
F0
E0
ENDCHAR
STARTCHAR quoteright.salt_v
ENCODING 57925
SWIDTH 1000 0
DWIDTH 11 0
BBX 4 5 1 1
BITMAP
70
F0
F0
60
C0
ENDCHAR
STARTCHAR A.s_v
ENCODING 57926
SWIDTH 1000 0
DWIDTH 11 0
BBX 9 9 1 -1
BITMAP
3F00
3300
5680
5D80
5180
DF80
DD80
CC80
F700
ENDCHAR
STARTCHAR C.s_v
ENCODING 57927
SWIDTH 1000 0
DWIDTH 11 0
BBX 9 9 1 -1
BITMAP
3F80
5080
DF00
DE00
D000
D900
DE80
E080
7F00
ENDCHAR
STARTCHAR D.s_v
ENCODING 57928
SWIDTH 1000 0
DWIDTH 11 0
BBX 9 9 1 -1
BITMAP
7F80
D380
DD80
DD80
DD80
DD80
DE80
C100
FE00
ENDCHAR
STARTCHAR E.s_v
ENCODING 57929
SWIDTH 1000 0
DWIDTH 11 0
BBX 9 9 1 -1
BITMAP
7F80
D080
DF00
DF00
D100
DF00
DE80
C080
FF00
ENDCHAR
STARTCHAR G.s_v
ENCODING 57930
SWIDTH 1000 0
DWIDTH 11 0
BBX 9 9 1 -1
BITMAP
3F00
5100
DE00
DE00
D580
DD80
DF80
E080
7F00
ENDCHAR
STARTCHAR H.s_v
ENCODING 57931
SWIDTH 1000 0
DWIDTH 11 0
BBX 9 9 1 -1
BITMAP
7F80
DD80
DD80
DF80
D180
DD80
DD80
CC80
FF00
ENDCHAR
STARTCHAR I.s_v
ENCODING 57932
SWIDTH 1000 0
DWIDTH 11 0
BBX 9 9 1 -1
BITMAP
7F80
C480
F500
7600
3600
3700
5E80
C080
FF00
ENDCHAR
STARTCHAR J.s_v
ENCODING 57933
SWIDTH 1000 0
DWIDTH 11 0
BBX 9 10 1 -2
BITMAP
0780
0D80
0D80
7D80
5D80
DD80
DA80
E500
7E00
1800
ENDCHAR
STARTCHAR K.s_v
ENCODING 57934
SWIDTH 1000 0
DWIDTH 11 0
BBX 9 9 1 -1
BITMAP
7F80
DB00
DB00
DE80
D180
DD80
DD80
CC80
FF00
ENDCHAR
STARTCHAR L.s_v
ENCODING 57935
SWIDTH 1000 0
DWIDTH 11 0
BBX 9 9 1 -1
BITMAP
7800
D800
D800
DB80
DC80
DD80
DF80
C080
FF00
ENDCHAR
STARTCHAR N.s_v
ENCODING 57936
SWIDTH 1000 0
DWIDTH 11 0
BBX 9 9 1 -1
BITMAP
7F80
D580
DA80
D580
DA80
DA80
DD80
CC80
F700
ENDCHAR
STARTCHAR O.s_v
ENCODING 57937
SWIDTH 1000 0
DWIDTH 11 0
BBX 9 11 1 -2
BITMAP
1500
2E80
5180
DD80
D580
D580
DD80
DA80
E500
7E00
1800
ENDCHAR
STARTCHAR R.s_v
ENCODING 57938
SWIDTH 1000 0
DWIDTH 11 0
BBX 9 9 1 -1
BITMAP
7F00
D280
DE80
D300
DD80
D180
DD80
CC80
F700
ENDCHAR
STARTCHAR S.s_v
ENCODING 57939
SWIDTH 1000 0
DWIDTH 11 0
BBX 9 9 1 -1
BITMAP
3F80
5080
DF00
DC80
C380
7D80
5F80
C100
FE00
ENDCHAR
STARTCHAR T.s_v
ENCODING 57940
SWIDTH 1000 0
DWIDTH 11 0
BBX 9 9 1 -1
BITMAP
7F80
C480
F500
7600
3600
3600
3600
3200
3C00
ENDCHAR
STARTCHAR U.s_v
ENCODING 57941
SWIDTH 1000 0
DWIDTH 11 0
BBX 9 10 1 -2
BITMAP
7F80
DD80
DD80
DD80
DD80
DD80
DA80
E500
7E00
1800
ENDCHAR
STARTCHAR W.s_v
ENCODING 57942
SWIDTH 1000 0
DWIDTH 11 0
BBX 9 9 1 -1
BITMAP
7B80
EF80
EB80
EB80
ED80
D380
D680
C480
7F00
ENDCHAR
STARTCHAR Y.s_v
ENCODING 57943
SWIDTH 1000 0
DWIDTH 11 0
BBX 9 9 1 -1
BITMAP
7F80
DD80
D580
D280
6B00
7600
3600
3200
3C00
ENDCHAR
STARTCHAR Z.s_v
ENCODING 57944
SWIDTH 1000 0
DWIDTH 11 0
BBX 9 9 1 -1
BITMAP
7F80
C180
FA80
7500
2A00
5400
7F80
C080
FF00
ENDCHAR
STARTCHAR A.salt_s_v
ENCODING 57945
SWIDTH 1000 0
DWIDTH 11 0
BBX 9 10 1 -1
BITMAP
1500
2E80
5180
DD80
D580
DF80
D180
DD80
CC80
F700
ENDCHAR
STARTCHAR E.salt_s_v
ENCODING 57946
SWIDTH 1000 0
DWIDTH 11 0
BBX 9 9 1 -1
BITMAP
3F80
5080
DF00
DF00
D100
DF00
DE80
E080
7F00
ENDCHAR
STARTCHAR I.salt_s_v
ENCODING 57947
SWIDTH 1000 0
DWIDTH 11 0
BBX 5 9 3 -1
BITMAP
78
D8
D8
D8
D8
D8
D8
C8
F0
ENDCHAR
STARTCHAR N.salt_s_v
ENCODING 57948
SWIDTH 1000 0
DWIDTH 11 0
BBX 9 10 1 -1
BITMAP
1500
2E80
5180
DD80
DD80
DD80
DD80
DD80
CC80
FF00
ENDCHAR
STARTCHAR W.salt_s_v
ENCODING 57949
SWIDTH 1000 0
DWIDTH 11 0
BBX 9 10 1 -2
BITMAP
FF80
B780
B780
B780
B780
B780
BD80
C280
FF00
6400
ENDCHAR
STARTCHAR Y.salt_s_v
ENCODING 57950
SWIDTH 1000 0
DWIDTH 11 0
BBX 9 9 1 -1
BITMAP
7F80
DD80
DD80
D180
CA80
6500
7600
3200
3C00
ENDCHAR
STARTCHAR uniF6C3
ENCODING 63171
SWIDTH 600 0
DWIDTH 7 0
BBX 4 6 1 -5
BITMAP
30
70
D0
F0
F0
E0
ENDCHAR
STARTCHAR fi
ENCODING 64257
SWIDTH 1423 0
DWIDTH 16 0
BBX 15 10 0 -1
BITMAP
7F7E
5EDE
D7EA
D2EC
DE2C
D22C
D42A
D85E
C8C2
70FC
ENDCHAR
STARTCHAR fl
ENCODING 64258
SWIDTH 1513 0
DWIDTH 17 0
BBX 16 10 0 -1
BITMAP
7F78
5ED8
D7D8
D2DB
DEDD
D2DD
D4D1
D8DF
C8C1
70FE
ENDCHAR
STARTCHAR exclam.v
ENCODING 65281
SWIDTH 1000 0
DWIDTH 11 0
BBX 5 10 3 -1
BITMAP
78
D8
D8
D8
C8
C8
F8
58
C8
F0
ENDCHAR
STARTCHAR quotedbl.v
ENCODING 65282
SWIDTH 1000 0
DWIDTH 11 0
BBX 7 6 2 1
BITMAP
FE
AE
AE
8A
8A
FC
ENDCHAR
STARTCHAR percent.v
ENCODING 65285
SWIDTH 1000 0
DWIDTH 11 0
BBX 9 10 1 -1
BITMAP
3B80
7D00
F700
EE00
D700
FB80
2F80
3D80
5A80
EF00
ENDCHAR
STARTCHAR ampersand.v
ENCODING 65286
SWIDTH 1000 0
DWIDTH 11 0
BBX 9 10 1 -1
BITMAP
1E00
2D00
5200
7400
5F80
6380
ED80
DF80
C180
7E00
ENDCHAR
STARTCHAR quotesingle.v
ENCODING 65287
SWIDTH 1000 0
DWIDTH 11 0
BBX 5 6 3 1
BITMAP
78
D8
D8
C8
C8
F0
ENDCHAR
STARTCHAR asterisk.v
ENCODING 65290
SWIDTH 1000 0
DWIDTH 11 0
BBX 9 9 1 -1
BITMAP
0E00
3500
4E80
5E80
FD00
2B00
2500
7E00
2800
ENDCHAR
STARTCHAR zero.v
ENCODING 65296
SWIDTH 1000 0
DWIDTH 11 0
BBX 9 11 1 -2
BITMAP
3F00
5E80
5580
DD80
DD80
DD80
DD80
DA80
E500
7E00
1800
ENDCHAR
STARTCHAR one.v
ENCODING 65297
SWIDTH 1000 0
DWIDTH 11 0
BBX 9 10 1 -1
BITMAP
3E00
4A00
4600
7600
1600
1600
3700
4E80
C080
FF00
ENDCHAR
STARTCHAR two.v
ENCODING 65298
SWIDTH 1000 0
DWIDTH 11 0
BBX 9 10 1 -1
BITMAP
3F00
5E80
4580
7980
2E80
5100
5E00
DF80
C080
FF00
ENDCHAR
STARTCHAR three.v
ENCODING 65299
SWIDTH 1000 0
DWIDTH 11 0
BBX 9 10 1 -1
BITMAP
7F00
5D00
C300
FB00
2E80
6180
7D80
5F80
C180
FE00
ENDCHAR
STARTCHAR four.v
ENCODING 65300
SWIDTH 1000 0
DWIDTH 11 0
BBX 9 10 1 -1
BITMAP
7F80
5D80
DD80
DD80
D180
DF80
C180
7D80
0C80
0F00
ENDCHAR
STARTCHAR five.v
ENCODING 65301
SWIDTH 1000 0
DWIDTH 11 0
BBX 9 10 1 -1
BITMAP
7F80
5E80
D080
D700
DE80
C180
FD80
5F80
C100
FE00
ENDCHAR
STARTCHAR six.v
ENCODING 65302
SWIDTH 1000 0
DWIDTH 11 0
BBX 9 11 1 -2
BITMAP
3F00
4F00
5100
DF00
DE80
D580
DD80
D380
ED00
7E00
1800
ENDCHAR
STARTCHAR seven.v
ENCODING 65303
SWIDTH 1000 0
DWIDTH 11 0
BBX 9 10 1 -1
BITMAP
7F80
5E80
C180
FD80
1380
2C80
2B00
6C00
6400
7800
ENDCHAR
STARTCHAR eight.v
ENCODING 65304
SWIDTH 1000 0
DWIDTH 11 0
BBX 9 11 1 -2
BITMAP
1F00
3E80
5680
7680
4F80
5180
DD80
D180
CF80
7E00
3800
ENDCHAR
STARTCHAR nine.v
ENCODING 65305
SWIDTH 1000 0
DWIDTH 11 0
BBX 9 10 1 -1
BITMAP
3F00
5E80
5D80
DD80
DE80
E180
7D80
2F80
6100
7E00
ENDCHAR
STARTCHAR colon.v
ENCODING 65306
SWIDTH 1000 0
DWIDTH 11 0
BBX 5 10 3 0
BITMAP
38
48
D8
C8
C8
F8
D8
C8
C8
F0
ENDCHAR
STARTCHAR semicolon.v
ENCODING 65307
SWIDTH 1000 0
DWIDTH 11 0
BBX 5 11 3 -2
BITMAP
78
58
D8
C8
F8
68
D8
F8
C8
F0
40
ENDCHAR
STARTCHAR question.v
ENCODING 65311
SWIDTH 1000 0
DWIDTH 11 0
BBX 7 10 2 -1
BITMAP
FE
BE
FA
46
DA
7C
48
58
C8
F0
ENDCHAR
STARTCHAR A.v
ENCODING 65313
SWIDTH 1000 0
DWIDTH 11 0
BBX 9 10 1 -1
BITMAP
1F00
2D00
7300
5680
5D80
5F80
D180
DD80
CC80
F700
ENDCHAR
STARTCHAR B.v
ENCODING 65314
SWIDTH 1000 0
DWIDTH 11 0
BBX 9 10 1 -1
BITMAP
7F00
5D00
DF00
DF00
DE80
D180
DD80
DF80
C180
FE00
ENDCHAR
STARTCHAR C.v
ENCODING 65315
SWIDTH 1000 0
DWIDTH 11 0
BBX 9 10 1 -1
BITMAP
3F80
4E80
5080
DF00
D000
D000
D900
DE80
E080
7F00
ENDCHAR
STARTCHAR D.v
ENCODING 65316
SWIDTH 1000 0
DWIDTH 11 0
BBX 9 10 1 -1
BITMAP
7F00
5E80
D180
DD80
DD80
DD80
DD80
DE80
C100
FE00
ENDCHAR
STARTCHAR E.v
ENCODING 65317
SWIDTH 1000 0
DWIDTH 11 0
BBX 9 10 1 -1
BITMAP
7F80
5E80
D180
DE00
DF00
D100
DF00
DE80
C080
FF00
ENDCHAR
STARTCHAR F.v
ENCODING 65318
SWIDTH 1000 0
DWIDTH 11 0
BBX 9 10 1 -1
BITMAP
7F80
5E80
D080
DF00
D100
DF00
DE00
DC00
C800
F000
ENDCHAR
STARTCHAR G.v
ENCODING 65319
SWIDTH 1000 0
DWIDTH 11 0
BBX 9 10 1 -1
BITMAP
3F00
4F00
5100
DE00
D380
D580
DD80
DF80
E080
7F00
ENDCHAR
STARTCHAR H.v
ENCODING 65320
SWIDTH 1000 0
DWIDTH 11 0
BBX 9 10 1 -1
BITMAP
7F80
5D80
DD80
D180
DF80
D180
DD80
DD80
CC80
FF00
ENDCHAR
STARTCHAR I.v
ENCODING 65321
SWIDTH 1000 0
DWIDTH 11 0
BBX 9 10 1 -1
BITMAP
7F80
5E80
C480
F700
3600
3600
3700
5E80
C080
FF00
ENDCHAR
STARTCHAR J.v
ENCODING 65322
SWIDTH 1000 0
DWIDTH 11 0
BBX 9 11 1 -2
BITMAP
0780
0580
0D80
0D80
7D80
5D80
DD80
DA80
E500
7E00
3800
ENDCHAR
STARTCHAR K.v
ENCODING 65323
SWIDTH 1000 0
DWIDTH 11 0
BBX 9 10 1 -1
BITMAP
7F80
5A80
DB00
DD00
DE80
D180
DD80
DD80
CC80
F700
ENDCHAR
STARTCHAR L.v
ENCODING 65324
SWIDTH 1000 0
DWIDTH 11 0
BBX 9 10 1 -1
BITMAP
7800
5800
D800
D800
DB80
DD80
DD80
DF80
C080
FF00
ENDCHAR
STARTCHAR M.v
ENCODING 65325
SWIDTH 1000 0
DWIDTH 11 0
BBX 9 10 1 -1
BITMAP
7B80
D580
EB80
ED80
E580
EB80
ED80
ED80
D480
E700
ENDCHAR
STARTCHAR N.v
ENCODING 65326
SWIDTH 1000 0
DWIDTH 11 0
BBX 9 10 1 -1
BITMAP
7F80
5580
D580
D980
D580
DA80
DD80
DD80
CC80
F700
ENDCHAR
STARTCHAR O.v
ENCODING 65327
SWIDTH 1000 0
DWIDTH 11 0
BBX 9 11 1 -2
BITMAP
3F00
5E80
5580
DD80
D580
D580
DD80
DA80
E500
7E00
1800
ENDCHAR
STARTCHAR P.v
ENCODING 65328
SWIDTH 1000 0
DWIDTH 11 0
BBX 9 10 1 -1
BITMAP
7F00
5E80
D180
DD80
D180
DE80
D100
DE00
C800
F000
ENDCHAR
STARTCHAR Q.v
ENCODING 65329
SWIDTH 1000 0
DWIDTH 11 0
BBX 9 12 1 -3
BITMAP
3F00
5E80
5580
DD80
D580
D580
DD80
DA80
E500
7200
3C00
1800
ENDCHAR
STARTCHAR R.v
ENCODING 65330
SWIDTH 1000 0
DWIDTH 11 0
BBX 9 10 1 -1
BITMAP
7F00
5D00
DA80
DE80
D380
DD80
DD80
DD80
CC80
F700
ENDCHAR
STARTCHAR S.v
ENCODING 65331
SWIDTH 1000 0
DWIDTH 11 0
BBX 9 10 1 -1
BITMAP
3F80
5E80
5880
D700
CE80
E180
7D80
5F80
C100
FE00
ENDCHAR
STARTCHAR T.v
ENCODING 65332
SWIDTH 1000 0
DWIDTH 11 0
BBX 9 10 1 -1
BITMAP
7F80
5F80
C480
F500
3600
3600
3600
3600
3200
3C00
ENDCHAR
STARTCHAR U.v
ENCODING 65333
SWIDTH 1000 0
DWIDTH 11 0
BBX 9 11 1 -2
BITMAP
7F80
5D80
DD80
DD80
DD80
DD80
DD80
DA80
E500
7E00
1800
ENDCHAR
STARTCHAR V.v
ENCODING 65334
SWIDTH 1000 0
DWIDTH 11 0
BBX 9 10 1 -1
BITMAP
7B80
5D80
DD80
DD80
DD80
D680
7280
6F00
6100
3E00
ENDCHAR
STARTCHAR W.v
ENCODING 65335
SWIDTH 1000 0
DWIDTH 11 0
BBX 9 10 1 -1
BITMAP
7B80
EF80
EF80
EB80
EB80
ED80
D380
D680
C480
7F00
ENDCHAR
STARTCHAR X.v
ENCODING 65336
SWIDTH 1100 0
DWIDTH 12 0
BBX 8 10 2 -1
BITMAP
77
AF
EB
D3
EE
53
6B
AF
8D
FE
ENDCHAR
STARTCHAR Y.v
ENCODING 65337
SWIDTH 1000 0
DWIDTH 11 0
BBX 9 10 1 -1
BITMAP
7B80
5D80
DD80
D580
D280
6D00
7600
3600
3200
3C00
ENDCHAR
STARTCHAR Z.v
ENCODING 65338
SWIDTH 1000 0
DWIDTH 11 0
BBX 9 10 1 -1
BITMAP
7F80
5E80
C180
FA80
1500
2A00
5400
7F80
C080
FF00
ENDCHAR
STARTCHAR uni2B24.salt_v
ENCODING 65339
SWIDTH 1280 0
DWIDTH 14 0
BBX 12 13 1 -2
BITMAP
3FC0
7FE0
7FE0
FFF0
FFF0
FFF0
FFF0
FFF0
FFF0
FFF0
7FF0
7FE0
3FC0
ENDCHAR
STARTCHAR uni25DD.curve_v
ENCODING 65340
SWIDTH 1280 0
DWIDTH 14 0
BBX 12 13 1 -2
BITMAP
1FF0
3FF0
7FF0
FFF0
FFF0
FFF0
FFF0
FFF0
FFF0
FFF0
FFF0
FFF0
FFF0
ENDCHAR
STARTCHAR uni2B1B.trapezoid_e_v
ENCODING 65341
SWIDTH 1280 0
DWIDTH 14 0
BBX 12 14 1 -2
BITMAP
E000
FF00
FFF0
FFF0
FFF0
FFF0
FFF0
FFF0
FFF0
FFF0
FFF0
FFF0
FFF0
FFF0
ENDCHAR
STARTCHAR uni2B1B.trapezoid_w_v
ENCODING 65342
SWIDTH 1280 0
DWIDTH 14 0
BBX 12 14 1 -3
BITMAP
FFF0
FFF0
FFF0
FFF0
FFF0
FFF0
FFF0
FFF0
FFF0
FFF0
FFF0
FFF0
FF80
F000
ENDCHAR
STARTCHAR .notdef
ENCODING -1
SWIDTH 1100 0
DWIDTH 12 0
BBX 10 11 1 -2
BITMAP
7FC0
BFC0
C0C0
C0C0
C0C0
C0C0
C0C0
C0C0
C0C0
FFC0
FF80
ENDCHAR
STARTCHAR one.sups
ENCODING -1
SWIDTH 557 0
DWIDTH 6 0
BBX 6 8 0 1
BITMAP
78
D8
F8
78
74
5C
C4
F8
ENDCHAR
STARTCHAR two.sups
ENCODING -1
SWIDTH 585 0
DWIDTH 6 0
BBX 6 8 0 1
BITMAP
7C
F4
EC
74
DC
DC
C4
F8
ENDCHAR
STARTCHAR three.sups
ENCODING -1
SWIDTH 584 0
DWIDTH 6 0
BBX 6 8 0 1
BITMAP
7C
CC
FC
5C
74
5C
C4
F8
ENDCHAR
STARTCHAR four.sups
ENCODING -1
SWIDTH 620 0
DWIDTH 7 0
BBX 6 8 0 1
BITMAP
7C
F4
F4
EC
DC
F4
1C
18
ENDCHAR
ENDFONT
